%TF.GenerationSoftware,KiCad,Pcbnew,9.0.0-rc1*%
%TF.CreationDate,2025-01-08T18:27:09+01:00*%
%TF.ProjectId,HBST,48425354-2e6b-4696-9361-645f70636258,rev?*%
%TF.SameCoordinates,Original*%
%TF.FileFunction,Paste,Top*%
%TF.FilePolarity,Positive*%
%FSLAX46Y46*%
G04 Gerber Fmt 4.6, Leading zero omitted, Abs format (unit mm)*
G04 Created by KiCad (PCBNEW 9.0.0-rc1) date 2025-01-08 18:27:09*
%MOMM*%
%LPD*%
G01*
G04 APERTURE LIST*
G04 Aperture macros list*
%AMRoundRect*
0 Rectangle with rounded corners*
0 $1 Rounding radius*
0 $2 $3 $4 $5 $6 $7 $8 $9 X,Y pos of 4 corners*
0 Add a 4 corners polygon primitive as box body*
4,1,4,$2,$3,$4,$5,$6,$7,$8,$9,$2,$3,0*
0 Add four circle primitives for the rounded corners*
1,1,$1+$1,$2,$3*
1,1,$1+$1,$4,$5*
1,1,$1+$1,$6,$7*
1,1,$1+$1,$8,$9*
0 Add four rect primitives between the rounded corners*
20,1,$1+$1,$2,$3,$4,$5,0*
20,1,$1+$1,$4,$5,$6,$7,0*
20,1,$1+$1,$6,$7,$8,$9,0*
20,1,$1+$1,$8,$9,$2,$3,0*%
G04 Aperture macros list end*
%ADD10RoundRect,0.062500X-0.062500X-0.375000X0.062500X-0.375000X0.062500X0.375000X-0.062500X0.375000X0*%
%ADD11RoundRect,0.062500X-0.375000X-0.062500X0.375000X-0.062500X0.375000X0.062500X-0.375000X0.062500X0*%
%ADD12RoundRect,0.250001X-0.354999X-0.354999X0.354999X-0.354999X0.354999X0.354999X-0.354999X0.354999X0*%
%ADD13RoundRect,0.250000X-0.250000X-0.475000X0.250000X-0.475000X0.250000X0.475000X-0.250000X0.475000X0*%
%ADD14RoundRect,0.250000X0.475000X-0.250000X0.475000X0.250000X-0.475000X0.250000X-0.475000X-0.250000X0*%
%ADD15RoundRect,0.250000X-0.475000X0.250000X-0.475000X-0.250000X0.475000X-0.250000X0.475000X0.250000X0*%
%ADD16RoundRect,0.250000X0.450000X-0.350000X0.450000X0.350000X-0.450000X0.350000X-0.450000X-0.350000X0*%
%ADD17RoundRect,0.250000X0.250000X0.475000X-0.250000X0.475000X-0.250000X-0.475000X0.250000X-0.475000X0*%
G04 APERTURE END LIST*
D10*
%TO.C,U1*%
X145750000Y-95062500D03*
X146250000Y-95062500D03*
X146750000Y-95062500D03*
X147250000Y-95062500D03*
X147750000Y-95062500D03*
X148250000Y-95062500D03*
X148750000Y-95062500D03*
X149250000Y-95062500D03*
X149750000Y-95062500D03*
X150250000Y-95062500D03*
X150750000Y-95062500D03*
X151250000Y-95062500D03*
X151750000Y-95062500D03*
X152250000Y-95062500D03*
X152750000Y-95062500D03*
X153250000Y-95062500D03*
D11*
X153937500Y-95750000D03*
X153937500Y-96250000D03*
X153937500Y-96750000D03*
X153937500Y-97250000D03*
X153937500Y-97750000D03*
X153937500Y-98250000D03*
X153937500Y-98750000D03*
X153937500Y-99250000D03*
X153937500Y-99750000D03*
X153937500Y-100250000D03*
X153937500Y-100750000D03*
X153937500Y-101250000D03*
X153937500Y-101750000D03*
X153937500Y-102250000D03*
X153937500Y-102750000D03*
X153937500Y-103250000D03*
D10*
X153250000Y-103937500D03*
X152750000Y-103937500D03*
X152250000Y-103937500D03*
X151750000Y-103937500D03*
X151250000Y-103937500D03*
X150750000Y-103937500D03*
X150250000Y-103937500D03*
X149750000Y-103937500D03*
X149250000Y-103937500D03*
X148750000Y-103937500D03*
X148250000Y-103937500D03*
X147750000Y-103937500D03*
X147250000Y-103937500D03*
X146750000Y-103937500D03*
X146250000Y-103937500D03*
X145750000Y-103937500D03*
D11*
X145062500Y-103250000D03*
X145062500Y-102750000D03*
X145062500Y-102250000D03*
X145062500Y-101750000D03*
X145062500Y-101250000D03*
X145062500Y-100750000D03*
X145062500Y-100250000D03*
X145062500Y-99750000D03*
X145062500Y-99250000D03*
X145062500Y-98750000D03*
X145062500Y-98250000D03*
X145062500Y-97750000D03*
X145062500Y-97250000D03*
X145062500Y-96750000D03*
X145062500Y-96250000D03*
X145062500Y-95750000D03*
D12*
X151750000Y-101750000D03*
X151750000Y-100250000D03*
X151750000Y-98750000D03*
X151750000Y-97250000D03*
X150250000Y-101750000D03*
X150250000Y-100250000D03*
X150250000Y-98750000D03*
X150250000Y-97250000D03*
X148750000Y-101750000D03*
X148750000Y-100250000D03*
X148750000Y-98750000D03*
X148750000Y-97250000D03*
X147250000Y-101750000D03*
X147250000Y-100250000D03*
X147250000Y-98750000D03*
X147250000Y-97250000D03*
%TD*%
D13*
%TO.C,C2*%
X142950000Y-95800000D03*
X141050000Y-95800000D03*
%TD*%
D14*
%TO.C,C16*%
X159900000Y-88300000D03*
X159900000Y-90200000D03*
%TD*%
D13*
%TO.C,C9*%
X159000000Y-93200000D03*
X157100000Y-93200000D03*
%TD*%
D15*
%TO.C,C7*%
X153700000Y-108700000D03*
X153700000Y-106800000D03*
%TD*%
D14*
%TO.C,C15*%
X157920000Y-88250000D03*
X157920000Y-90150000D03*
%TD*%
%TO.C,C13*%
X139800000Y-88250000D03*
X139800000Y-90150000D03*
%TD*%
D13*
%TO.C,C3*%
X141950000Y-103500000D03*
X140050000Y-103500000D03*
%TD*%
D16*
%TO.C,R1*%
X146500000Y-89212500D03*
X146500000Y-87212500D03*
%TD*%
D13*
%TO.C,C12*%
X157700000Y-104100000D03*
X155800000Y-104100000D03*
%TD*%
D15*
%TO.C,C8*%
X151700000Y-108700000D03*
X151700000Y-106800000D03*
%TD*%
D13*
%TO.C,C11*%
X157750000Y-106100000D03*
X155850000Y-106100000D03*
%TD*%
D16*
%TO.C,R2*%
X148600000Y-87187500D03*
X148600000Y-89187500D03*
%TD*%
%TO.C,R4*%
X152450000Y-89187500D03*
X152450000Y-87187500D03*
%TD*%
D14*
%TO.C,C14*%
X141800000Y-88200000D03*
X141800000Y-90100000D03*
%TD*%
D13*
%TO.C,C4*%
X142000000Y-105500000D03*
X140100000Y-105500000D03*
%TD*%
%TO.C,C10*%
X166100000Y-97200000D03*
X164200000Y-97200000D03*
%TD*%
D17*
%TO.C,C1*%
X141050000Y-93800000D03*
X142950000Y-93800000D03*
%TD*%
D16*
%TO.C,R3*%
X150500000Y-89187500D03*
X150500000Y-87187500D03*
%TD*%
D14*
%TO.C,C6*%
X145900000Y-106700000D03*
X145900000Y-108600000D03*
%TD*%
%TO.C,C5*%
X143900000Y-106700000D03*
X143900000Y-108600000D03*
%TD*%
M02*
