%TF.GenerationSoftware,KiCad,Pcbnew,9.0.0-rc1*%
%TF.CreationDate,2025-01-08T18:27:09+01:00*%
%TF.ProjectId,HBST,48425354-2e6b-4696-9361-645f70636258,rev?*%
%TF.SameCoordinates,Original*%
%TF.FileFunction,Copper,L3,Inr*%
%TF.FilePolarity,Positive*%
%FSLAX46Y46*%
G04 Gerber Fmt 4.6, Leading zero omitted, Abs format (unit mm)*
G04 Created by KiCad (PCBNEW 9.0.0-rc1) date 2025-01-08 18:27:09*
%MOMM*%
%LPD*%
G01*
G04 APERTURE LIST*
%TA.AperFunction,ComponentPad*%
%ADD10C,5.400000*%
%TD*%
%TA.AperFunction,ComponentPad*%
%ADD11O,1.700000X1.700000*%
%TD*%
%TA.AperFunction,ComponentPad*%
%ADD12R,1.700000X1.700000*%
%TD*%
%TA.AperFunction,ComponentPad*%
%ADD13C,1.400000*%
%TD*%
%TA.AperFunction,ViaPad*%
%ADD14C,0.600000*%
%TD*%
G04 APERTURE END LIST*
D10*
%TO.N,N/C*%
%TO.C,H1*%
X111400000Y-61400000D03*
%TD*%
%TO.N,N/C*%
%TO.C,H2*%
X111400000Y-137600000D03*
%TD*%
%TO.N,N/C*%
%TO.C,H3*%
X187600000Y-137600000D03*
%TD*%
%TO.N,N/C*%
%TO.C,H4*%
X187600000Y-61400000D03*
%TD*%
D11*
%TO.N,GND*%
%TO.C,J6*%
X137460000Y-138900000D03*
D12*
%TO.N,VDD*%
X140000000Y-138900000D03*
%TD*%
D11*
%TO.N,GND*%
%TO.C,J3*%
X146680000Y-138925000D03*
%TO.N,/B_VDD*%
X149220000Y-138925000D03*
%TO.N,/B_Vvar_sd*%
X151760000Y-138925000D03*
D12*
%TO.N,/B_Vvar_b*%
X154300000Y-138925000D03*
%TD*%
D11*
%TO.N,GND*%
%TO.C,J1*%
X188925000Y-93450000D03*
%TO.N,/H_Vvar2_b*%
X188925000Y-90910000D03*
%TO.N,/H_Vvar2_sd*%
X188925000Y-88370000D03*
%TO.N,/H_Vvar1_sd*%
X188925000Y-85830000D03*
%TO.N,/H_Vvar1_b*%
X188925000Y-83290000D03*
D12*
%TO.N,/H_AVDD*%
X188925000Y-80750000D03*
%TD*%
D11*
%TO.N,GND*%
%TO.C,J7*%
X188925000Y-72900000D03*
D12*
%TO.N,VDD*%
X188925000Y-70360000D03*
%TD*%
D11*
%TO.N,GND*%
%TO.C,J2*%
X110100000Y-121600000D03*
D12*
%TO.N,VDD*%
X110100000Y-124140000D03*
%TD*%
D11*
%TO.N,GND*%
%TO.C,J8*%
X172800000Y-138900000D03*
D12*
%TO.N,VDD*%
X175340000Y-138900000D03*
%TD*%
D11*
%TO.N,GND*%
%TO.C,J5*%
X188900000Y-122220000D03*
%TO.N,Net-(J5-Pin_8)*%
X188900000Y-119680000D03*
%TO.N,/T_CK1*%
X188900000Y-117140000D03*
%TO.N,/T_RST_N*%
X188900000Y-114600000D03*
%TO.N,/T_CK2*%
X188900000Y-112060000D03*
%TO.N,/T_EN_SHIFT*%
X188900000Y-109520000D03*
%TO.N,/T_CK_SHIFT*%
X188900000Y-106980000D03*
%TO.N,/T_SDOUT*%
X188900000Y-104440000D03*
D12*
%TO.N,/T_SAMPLE*%
X188900000Y-101900000D03*
%TD*%
D13*
%TO.N,Net-(J5-Pin_8)*%
%TO.C,JP2*%
X188640000Y-126650000D03*
%TO.N,Net-(JP2-A)*%
X186100000Y-126650000D03*
%TD*%
D11*
%TO.N,GND*%
%TO.C,J4*%
X110100000Y-82500000D03*
%TO.N,/S_DC2_Vvar2_b*%
X110100000Y-85040000D03*
%TO.N,/S_DC2_Vvar2_sd*%
X110100000Y-87580000D03*
%TO.N,/S_DC2_Vvar1_sd*%
X110100000Y-90120000D03*
%TO.N,/S_DC2_Vvar1_b*%
X110100000Y-92660000D03*
%TO.N,/S_HC_Vvar1_b*%
X110100000Y-95200000D03*
%TO.N,/S_HC_Vvar1_sd*%
X110100000Y-97740000D03*
%TO.N,/S_HC_Vvar2_sd*%
X110100000Y-100280000D03*
%TO.N,/S_HC_Vvar2_b*%
X110100000Y-102820000D03*
%TO.N,/S_DC1_Vvar1_b*%
X110100000Y-105360000D03*
%TO.N,/S_DC1_Vvar1_sd*%
X110100000Y-107900000D03*
%TO.N,/S_DC1_Vvar2_sd*%
X110100000Y-110440000D03*
D12*
%TO.N,/S_DC1_Vvar2_b*%
X110100000Y-112980000D03*
%TD*%
D14*
%TO.N,GND*%
X149500000Y-99500000D03*
X149250000Y-105250000D03*
%TO.N,VDD*%
X143250000Y-103500000D03*
X139750000Y-93500000D03*
X166100000Y-95700000D03*
X155300000Y-109400000D03*
X160800000Y-92400000D03*
X138000000Y-88700000D03*
X158200000Y-107800000D03*
X161900000Y-88500000D03*
%TD*%
%TA.AperFunction,Conductor*%
%TO.N,VDD*%
G36*
X187601746Y-50000549D02*
G01*
X188235713Y-50018336D01*
X188242626Y-50018725D01*
X188872903Y-50071888D01*
X188879759Y-50072660D01*
X189506058Y-50161079D01*
X189512881Y-50162238D01*
X190133226Y-50285632D01*
X190139959Y-50287168D01*
X190752439Y-50445159D01*
X190759090Y-50447076D01*
X191361712Y-50639149D01*
X191368249Y-50641436D01*
X191959170Y-50867002D01*
X191965563Y-50869650D01*
X192542892Y-51127988D01*
X192549138Y-51130996D01*
X192924197Y-51324757D01*
X193111060Y-51421293D01*
X193117144Y-51424655D01*
X193637050Y-51731339D01*
X193661903Y-51745999D01*
X193667793Y-51749700D01*
X194193676Y-52101085D01*
X194199348Y-52105110D01*
X194704697Y-52485424D01*
X194710110Y-52489740D01*
X194874206Y-52628306D01*
X195193355Y-52897803D01*
X195198537Y-52902434D01*
X195658154Y-53336963D01*
X195663036Y-53341845D01*
X195933679Y-53628113D01*
X196097561Y-53801457D01*
X196102193Y-53806641D01*
X196403079Y-54162962D01*
X196510249Y-54289876D01*
X196514585Y-54295314D01*
X196894889Y-54800651D01*
X196898914Y-54806323D01*
X197250299Y-55332206D01*
X197254000Y-55338096D01*
X197575342Y-55882852D01*
X197578706Y-55888939D01*
X197868998Y-56450851D01*
X197872016Y-56457118D01*
X198130342Y-57034420D01*
X198133004Y-57040846D01*
X198358558Y-57631736D01*
X198360855Y-57638301D01*
X198552918Y-58240892D01*
X198554844Y-58247576D01*
X198712825Y-58860016D01*
X198714372Y-58866797D01*
X198837758Y-59487101D01*
X198838923Y-59493958D01*
X198927335Y-60120212D01*
X198928114Y-60127124D01*
X198981273Y-60757357D01*
X198981663Y-60764301D01*
X198999451Y-61398253D01*
X198999500Y-61401731D01*
X198999500Y-137598268D01*
X198999451Y-137601746D01*
X198981663Y-138235698D01*
X198981273Y-138242642D01*
X198928114Y-138872875D01*
X198927335Y-138879787D01*
X198838923Y-139506041D01*
X198837758Y-139512898D01*
X198714372Y-140133202D01*
X198712825Y-140139983D01*
X198554844Y-140752423D01*
X198552918Y-140759107D01*
X198360855Y-141361698D01*
X198358558Y-141368263D01*
X198133004Y-141959153D01*
X198130342Y-141965579D01*
X197872016Y-142542881D01*
X197868998Y-142549148D01*
X197578706Y-143111060D01*
X197575342Y-143117147D01*
X197254000Y-143661903D01*
X197250299Y-143667793D01*
X196898914Y-144193676D01*
X196894889Y-144199348D01*
X196514585Y-144704685D01*
X196510249Y-144710123D01*
X196102196Y-145193355D01*
X196097561Y-145198542D01*
X195663054Y-145658136D01*
X195658136Y-145663054D01*
X195198542Y-146097561D01*
X195193355Y-146102196D01*
X194710123Y-146510249D01*
X194704685Y-146514585D01*
X194199348Y-146894889D01*
X194193676Y-146898914D01*
X193667793Y-147250299D01*
X193661903Y-147254000D01*
X193117147Y-147575342D01*
X193111060Y-147578706D01*
X192549148Y-147868998D01*
X192542881Y-147872016D01*
X191965579Y-148130342D01*
X191959153Y-148133004D01*
X191368263Y-148358558D01*
X191361698Y-148360855D01*
X190759107Y-148552918D01*
X190752423Y-148554844D01*
X190139983Y-148712825D01*
X190133202Y-148714372D01*
X189512898Y-148837758D01*
X189506041Y-148838923D01*
X188879787Y-148927335D01*
X188872875Y-148928114D01*
X188242642Y-148981273D01*
X188235698Y-148981663D01*
X187601746Y-148999451D01*
X187598268Y-148999500D01*
X111401732Y-148999500D01*
X111398254Y-148999451D01*
X110764301Y-148981663D01*
X110757357Y-148981273D01*
X110127124Y-148928114D01*
X110120212Y-148927335D01*
X109493958Y-148838923D01*
X109487101Y-148837758D01*
X108866797Y-148714372D01*
X108860016Y-148712825D01*
X108247576Y-148554844D01*
X108240892Y-148552918D01*
X107638301Y-148360855D01*
X107631736Y-148358558D01*
X107040846Y-148133004D01*
X107034420Y-148130342D01*
X106457118Y-147872016D01*
X106450851Y-147868998D01*
X105888939Y-147578706D01*
X105882852Y-147575342D01*
X105338096Y-147254000D01*
X105332206Y-147250299D01*
X104806323Y-146898914D01*
X104800651Y-146894889D01*
X104295314Y-146514585D01*
X104289876Y-146510249D01*
X103806644Y-146102196D01*
X103801457Y-146097561D01*
X103341845Y-145663036D01*
X103336963Y-145658154D01*
X102902434Y-145198537D01*
X102897803Y-145193355D01*
X102489740Y-144710110D01*
X102485424Y-144704697D01*
X102105110Y-144199348D01*
X102101085Y-144193676D01*
X101749700Y-143667793D01*
X101745999Y-143661903D01*
X101424657Y-143117147D01*
X101421293Y-143111060D01*
X101131001Y-142549148D01*
X101127983Y-142542881D01*
X100869650Y-141965563D01*
X100867002Y-141959170D01*
X100641436Y-141368249D01*
X100639144Y-141361698D01*
X100447081Y-140759107D01*
X100445159Y-140752439D01*
X100287168Y-140139959D01*
X100285632Y-140133226D01*
X100162238Y-139512881D01*
X100161079Y-139506058D01*
X100072660Y-138879759D01*
X100071888Y-138872903D01*
X100018725Y-138242626D01*
X100018336Y-138235698D01*
X100016961Y-138186700D01*
X100000549Y-137601746D01*
X100000500Y-137598268D01*
X100000500Y-137442722D01*
X108599500Y-137442722D01*
X108599500Y-137757277D01*
X108634716Y-138069827D01*
X108634718Y-138069843D01*
X108704710Y-138376499D01*
X108704711Y-138376501D01*
X108808598Y-138673395D01*
X108945072Y-138956786D01*
X108945074Y-138956789D01*
X109112423Y-139223123D01*
X109308539Y-139469044D01*
X109530956Y-139691461D01*
X109776877Y-139887577D01*
X110043211Y-140054926D01*
X110326606Y-140191402D01*
X110623500Y-140295289D01*
X110930160Y-140365282D01*
X111242723Y-140400499D01*
X111242724Y-140400500D01*
X111242727Y-140400500D01*
X111557276Y-140400500D01*
X111557276Y-140400499D01*
X111869840Y-140365282D01*
X112176500Y-140295289D01*
X112473394Y-140191402D01*
X112756789Y-140054926D01*
X113023123Y-139887577D01*
X113269044Y-139691461D01*
X113491461Y-139469044D01*
X113687577Y-139223123D01*
X113854926Y-138956789D01*
X113927360Y-138806379D01*
X136509500Y-138806379D01*
X136509500Y-138993620D01*
X136546025Y-139177243D01*
X136546027Y-139177251D01*
X136617676Y-139350228D01*
X136617681Y-139350237D01*
X136721697Y-139505907D01*
X136721700Y-139505911D01*
X136854088Y-139638299D01*
X136854092Y-139638302D01*
X137009762Y-139742318D01*
X137009768Y-139742321D01*
X137009769Y-139742322D01*
X137182749Y-139813973D01*
X137351086Y-139847457D01*
X137366379Y-139850499D01*
X137366383Y-139850500D01*
X137366384Y-139850500D01*
X137553617Y-139850500D01*
X137553618Y-139850499D01*
X137737251Y-139813973D01*
X137910231Y-139742322D01*
X138065908Y-139638302D01*
X138198302Y-139505908D01*
X138302322Y-139350231D01*
X138373973Y-139177251D01*
X138401769Y-139037510D01*
X138404383Y-139024371D01*
X138436768Y-138962460D01*
X138497483Y-138927886D01*
X138567253Y-138931625D01*
X138623925Y-138972491D01*
X138649506Y-139037510D01*
X138650000Y-139048562D01*
X138650000Y-139797844D01*
X138656401Y-139857372D01*
X138656403Y-139857379D01*
X138706645Y-139992086D01*
X138706649Y-139992093D01*
X138792809Y-140107187D01*
X138792812Y-140107190D01*
X138907906Y-140193350D01*
X138907913Y-140193354D01*
X139042620Y-140243596D01*
X139042627Y-140243598D01*
X139102155Y-140249999D01*
X139102172Y-140250000D01*
X139750000Y-140250000D01*
X139750000Y-139333012D01*
X139807007Y-139365925D01*
X139934174Y-139400000D01*
X140065826Y-139400000D01*
X140192993Y-139365925D01*
X140250000Y-139333012D01*
X140250000Y-140250000D01*
X140897828Y-140250000D01*
X140897844Y-140249999D01*
X140957372Y-140243598D01*
X140957379Y-140243596D01*
X141092086Y-140193354D01*
X141092093Y-140193350D01*
X141207187Y-140107190D01*
X141207190Y-140107187D01*
X141293350Y-139992093D01*
X141293354Y-139992086D01*
X141343596Y-139857379D01*
X141343598Y-139857372D01*
X141349999Y-139797844D01*
X141350000Y-139797827D01*
X141350000Y-139150000D01*
X140433012Y-139150000D01*
X140465925Y-139092993D01*
X140500000Y-138965826D01*
X140500000Y-138834174D01*
X140499251Y-138831379D01*
X145729500Y-138831379D01*
X145729500Y-139018620D01*
X145766025Y-139202243D01*
X145766027Y-139202251D01*
X145837676Y-139375228D01*
X145837681Y-139375237D01*
X145941697Y-139530907D01*
X145941700Y-139530911D01*
X146074088Y-139663299D01*
X146074092Y-139663302D01*
X146229762Y-139767318D01*
X146229768Y-139767321D01*
X146229769Y-139767322D01*
X146402749Y-139838973D01*
X146586374Y-139875498D01*
X146586379Y-139875499D01*
X146586383Y-139875500D01*
X146586384Y-139875500D01*
X146773617Y-139875500D01*
X146773618Y-139875499D01*
X146957251Y-139838973D01*
X147130231Y-139767322D01*
X147285908Y-139663302D01*
X147418302Y-139530908D01*
X147522322Y-139375231D01*
X147593973Y-139202251D01*
X147630500Y-139018616D01*
X147630500Y-138831384D01*
X147630499Y-138831379D01*
X148269500Y-138831379D01*
X148269500Y-139018620D01*
X148306025Y-139202243D01*
X148306027Y-139202251D01*
X148377676Y-139375228D01*
X148377681Y-139375237D01*
X148481697Y-139530907D01*
X148481700Y-139530911D01*
X148614088Y-139663299D01*
X148614092Y-139663302D01*
X148769762Y-139767318D01*
X148769768Y-139767321D01*
X148769769Y-139767322D01*
X148942749Y-139838973D01*
X149126374Y-139875498D01*
X149126379Y-139875499D01*
X149126383Y-139875500D01*
X149126384Y-139875500D01*
X149313617Y-139875500D01*
X149313618Y-139875499D01*
X149497251Y-139838973D01*
X149670231Y-139767322D01*
X149825908Y-139663302D01*
X149958302Y-139530908D01*
X150062322Y-139375231D01*
X150133973Y-139202251D01*
X150170500Y-139018616D01*
X150170500Y-138831384D01*
X150170499Y-138831379D01*
X150809500Y-138831379D01*
X150809500Y-139018620D01*
X150846025Y-139202243D01*
X150846027Y-139202251D01*
X150917676Y-139375228D01*
X150917681Y-139375237D01*
X151021697Y-139530907D01*
X151021700Y-139530911D01*
X151154088Y-139663299D01*
X151154092Y-139663302D01*
X151309762Y-139767318D01*
X151309768Y-139767321D01*
X151309769Y-139767322D01*
X151482749Y-139838973D01*
X151666374Y-139875498D01*
X151666379Y-139875499D01*
X151666383Y-139875500D01*
X151666384Y-139875500D01*
X151853617Y-139875500D01*
X151853618Y-139875499D01*
X152037251Y-139838973D01*
X152210231Y-139767322D01*
X152365908Y-139663302D01*
X152498302Y-139530908D01*
X152602322Y-139375231D01*
X152673973Y-139202251D01*
X152710500Y-139018616D01*
X152710500Y-138831384D01*
X152673973Y-138647749D01*
X152602322Y-138474769D01*
X152602321Y-138474768D01*
X152602318Y-138474762D01*
X152498302Y-138319092D01*
X152498299Y-138319088D01*
X152365911Y-138186700D01*
X152365907Y-138186697D01*
X152329112Y-138162111D01*
X152210237Y-138082681D01*
X152210228Y-138082676D01*
X152167791Y-138065098D01*
X153349500Y-138065098D01*
X153349500Y-139784894D01*
X153349501Y-139784902D01*
X153355330Y-139814212D01*
X153377542Y-139847457D01*
X153382097Y-139850500D01*
X153410787Y-139869669D01*
X153410790Y-139869669D01*
X153410791Y-139869670D01*
X153420647Y-139871630D01*
X153440101Y-139875500D01*
X155159898Y-139875499D01*
X155189213Y-139869669D01*
X155222457Y-139847457D01*
X155244669Y-139814213D01*
X155250500Y-139784899D01*
X155250499Y-138806379D01*
X171849500Y-138806379D01*
X171849500Y-138993620D01*
X171886025Y-139177243D01*
X171886027Y-139177251D01*
X171957676Y-139350228D01*
X171957681Y-139350237D01*
X172061697Y-139505907D01*
X172061700Y-139505911D01*
X172194088Y-139638299D01*
X172194092Y-139638302D01*
X172349762Y-139742318D01*
X172349768Y-139742321D01*
X172349769Y-139742322D01*
X172522749Y-139813973D01*
X172691086Y-139847457D01*
X172706379Y-139850499D01*
X172706383Y-139850500D01*
X172706384Y-139850500D01*
X172893617Y-139850500D01*
X172893618Y-139850499D01*
X173077251Y-139813973D01*
X173250231Y-139742322D01*
X173405908Y-139638302D01*
X173538302Y-139505908D01*
X173642322Y-139350231D01*
X173713973Y-139177251D01*
X173741769Y-139037510D01*
X173744383Y-139024371D01*
X173776768Y-138962460D01*
X173837483Y-138927886D01*
X173907253Y-138931625D01*
X173963925Y-138972491D01*
X173989506Y-139037510D01*
X173990000Y-139048562D01*
X173990000Y-139797844D01*
X173996401Y-139857372D01*
X173996403Y-139857379D01*
X174046645Y-139992086D01*
X174046649Y-139992093D01*
X174132809Y-140107187D01*
X174132812Y-140107190D01*
X174247906Y-140193350D01*
X174247913Y-140193354D01*
X174382620Y-140243596D01*
X174382627Y-140243598D01*
X174442155Y-140249999D01*
X174442172Y-140250000D01*
X175090000Y-140250000D01*
X175090000Y-139333012D01*
X175147007Y-139365925D01*
X175274174Y-139400000D01*
X175405826Y-139400000D01*
X175532993Y-139365925D01*
X175590000Y-139333012D01*
X175590000Y-140250000D01*
X176237828Y-140250000D01*
X176237844Y-140249999D01*
X176297372Y-140243598D01*
X176297379Y-140243596D01*
X176432086Y-140193354D01*
X176432093Y-140193350D01*
X176547187Y-140107190D01*
X176547190Y-140107187D01*
X176633350Y-139992093D01*
X176633354Y-139992086D01*
X176683596Y-139857379D01*
X176683598Y-139857372D01*
X176689999Y-139797844D01*
X176690000Y-139797827D01*
X176690000Y-139150000D01*
X175773012Y-139150000D01*
X175805925Y-139092993D01*
X175840000Y-138965826D01*
X175840000Y-138834174D01*
X175805925Y-138707007D01*
X175773012Y-138650000D01*
X176690000Y-138650000D01*
X176690000Y-138002172D01*
X176689999Y-138002155D01*
X176683598Y-137942627D01*
X176683596Y-137942620D01*
X176633354Y-137807913D01*
X176633350Y-137807906D01*
X176547190Y-137692812D01*
X176547187Y-137692809D01*
X176432093Y-137606649D01*
X176432086Y-137606645D01*
X176297378Y-137556402D01*
X176297372Y-137556401D01*
X176237844Y-137550000D01*
X175590000Y-137550000D01*
X175590000Y-138466988D01*
X175532993Y-138434075D01*
X175405826Y-138400000D01*
X175274174Y-138400000D01*
X175147007Y-138434075D01*
X175090000Y-138466988D01*
X175090000Y-137550000D01*
X174442155Y-137550000D01*
X174382627Y-137556401D01*
X174382620Y-137556403D01*
X174247913Y-137606645D01*
X174247906Y-137606649D01*
X174132812Y-137692809D01*
X174132809Y-137692812D01*
X174046649Y-137807906D01*
X174046645Y-137807913D01*
X173996403Y-137942620D01*
X173996401Y-137942627D01*
X173990000Y-138002155D01*
X173990000Y-138751437D01*
X173970315Y-138818476D01*
X173917511Y-138864231D01*
X173848353Y-138874175D01*
X173784797Y-138845150D01*
X173747023Y-138786372D01*
X173744383Y-138775628D01*
X173724047Y-138673394D01*
X173713973Y-138622749D01*
X173652677Y-138474769D01*
X173642323Y-138449771D01*
X173642318Y-138449762D01*
X173538302Y-138294092D01*
X173538299Y-138294088D01*
X173405911Y-138161700D01*
X173405907Y-138161697D01*
X173250237Y-138057681D01*
X173250228Y-138057676D01*
X173077251Y-137986027D01*
X173077243Y-137986025D01*
X172893620Y-137949500D01*
X172893616Y-137949500D01*
X172706384Y-137949500D01*
X172706379Y-137949500D01*
X172522756Y-137986025D01*
X172522748Y-137986027D01*
X172349771Y-138057676D01*
X172349762Y-138057681D01*
X172194092Y-138161697D01*
X172194088Y-138161700D01*
X172061700Y-138294088D01*
X172061697Y-138294092D01*
X171957681Y-138449762D01*
X171957676Y-138449771D01*
X171886027Y-138622748D01*
X171886025Y-138622756D01*
X171849500Y-138806379D01*
X155250499Y-138806379D01*
X155250499Y-138065102D01*
X155244669Y-138035787D01*
X155228126Y-138011027D01*
X155222457Y-138002542D01*
X155189214Y-137980332D01*
X155189215Y-137980332D01*
X155189213Y-137980331D01*
X155189211Y-137980330D01*
X155189208Y-137980329D01*
X155159901Y-137974500D01*
X153440105Y-137974500D01*
X153440097Y-137974501D01*
X153410787Y-137980330D01*
X153377542Y-138002542D01*
X153355332Y-138035785D01*
X153355329Y-138035791D01*
X153349500Y-138065098D01*
X152167791Y-138065098D01*
X152037251Y-138011027D01*
X152037243Y-138011025D01*
X151853620Y-137974500D01*
X151853616Y-137974500D01*
X151666384Y-137974500D01*
X151666379Y-137974500D01*
X151482756Y-138011025D01*
X151482748Y-138011027D01*
X151309771Y-138082676D01*
X151309762Y-138082681D01*
X151154092Y-138186697D01*
X151154088Y-138186700D01*
X151021700Y-138319088D01*
X151021697Y-138319092D01*
X150917681Y-138474762D01*
X150917676Y-138474771D01*
X150846027Y-138647748D01*
X150846025Y-138647756D01*
X150809500Y-138831379D01*
X150170499Y-138831379D01*
X150133973Y-138647749D01*
X150062322Y-138474769D01*
X150062321Y-138474768D01*
X150062318Y-138474762D01*
X149958302Y-138319092D01*
X149958299Y-138319088D01*
X149825911Y-138186700D01*
X149825907Y-138186697D01*
X149670237Y-138082681D01*
X149670228Y-138082676D01*
X149497251Y-138011027D01*
X149497243Y-138011025D01*
X149313620Y-137974500D01*
X149313616Y-137974500D01*
X149126384Y-137974500D01*
X149126379Y-137974500D01*
X148942756Y-138011025D01*
X148942748Y-138011027D01*
X148769771Y-138082676D01*
X148769762Y-138082681D01*
X148614092Y-138186697D01*
X148614088Y-138186700D01*
X148481700Y-138319088D01*
X148481697Y-138319092D01*
X148377681Y-138474762D01*
X148377676Y-138474771D01*
X148306027Y-138647748D01*
X148306025Y-138647756D01*
X148269500Y-138831379D01*
X147630499Y-138831379D01*
X147593973Y-138647749D01*
X147522322Y-138474769D01*
X147522321Y-138474768D01*
X147522318Y-138474762D01*
X147418302Y-138319092D01*
X147418299Y-138319088D01*
X147285911Y-138186700D01*
X147285907Y-138186697D01*
X147130237Y-138082681D01*
X147130228Y-138082676D01*
X146957251Y-138011027D01*
X146957243Y-138011025D01*
X146773620Y-137974500D01*
X146773616Y-137974500D01*
X146586384Y-137974500D01*
X146586379Y-137974500D01*
X146402756Y-138011025D01*
X146402748Y-138011027D01*
X146229771Y-138082676D01*
X146229762Y-138082681D01*
X146074092Y-138186697D01*
X146074088Y-138186700D01*
X145941700Y-138319088D01*
X145941697Y-138319092D01*
X145837681Y-138474762D01*
X145837676Y-138474771D01*
X145766027Y-138647748D01*
X145766025Y-138647756D01*
X145729500Y-138831379D01*
X140499251Y-138831379D01*
X140465925Y-138707007D01*
X140433012Y-138650000D01*
X141350000Y-138650000D01*
X141350000Y-138002172D01*
X141349999Y-138002155D01*
X141343598Y-137942627D01*
X141343596Y-137942620D01*
X141293354Y-137807913D01*
X141293350Y-137807906D01*
X141207190Y-137692812D01*
X141207187Y-137692809D01*
X141092093Y-137606649D01*
X141092086Y-137606645D01*
X140957379Y-137556403D01*
X140957372Y-137556401D01*
X140897844Y-137550000D01*
X140250000Y-137550000D01*
X140250000Y-138466988D01*
X140192993Y-138434075D01*
X140065826Y-138400000D01*
X139934174Y-138400000D01*
X139807007Y-138434075D01*
X139750000Y-138466988D01*
X139750000Y-137550000D01*
X139102155Y-137550000D01*
X139042627Y-137556401D01*
X139042620Y-137556403D01*
X138907913Y-137606645D01*
X138907906Y-137606649D01*
X138792812Y-137692809D01*
X138792809Y-137692812D01*
X138706649Y-137807906D01*
X138706645Y-137807913D01*
X138656403Y-137942620D01*
X138656401Y-137942627D01*
X138650000Y-138002155D01*
X138650000Y-138751437D01*
X138630315Y-138818476D01*
X138577511Y-138864231D01*
X138508353Y-138874175D01*
X138444797Y-138845150D01*
X138407023Y-138786372D01*
X138404383Y-138775628D01*
X138384047Y-138673394D01*
X138373973Y-138622749D01*
X138312677Y-138474769D01*
X138302323Y-138449771D01*
X138302318Y-138449762D01*
X138198302Y-138294092D01*
X138198299Y-138294088D01*
X138065911Y-138161700D01*
X138065907Y-138161697D01*
X137910237Y-138057681D01*
X137910228Y-138057676D01*
X137737251Y-137986027D01*
X137737243Y-137986025D01*
X137553620Y-137949500D01*
X137553616Y-137949500D01*
X137366384Y-137949500D01*
X137366379Y-137949500D01*
X137182756Y-137986025D01*
X137182748Y-137986027D01*
X137009771Y-138057676D01*
X137009762Y-138057681D01*
X136854092Y-138161697D01*
X136854088Y-138161700D01*
X136721700Y-138294088D01*
X136721697Y-138294092D01*
X136617681Y-138449762D01*
X136617676Y-138449771D01*
X136546027Y-138622748D01*
X136546025Y-138622756D01*
X136509500Y-138806379D01*
X113927360Y-138806379D01*
X113942169Y-138775628D01*
X113956201Y-138746490D01*
X113975215Y-138707007D01*
X113991402Y-138673394D01*
X114095289Y-138376500D01*
X114165282Y-138069840D01*
X114200500Y-137757273D01*
X114200500Y-137442727D01*
X114200499Y-137442722D01*
X184799500Y-137442722D01*
X184799500Y-137757277D01*
X184834716Y-138069827D01*
X184834718Y-138069843D01*
X184904710Y-138376499D01*
X184904711Y-138376501D01*
X185008598Y-138673395D01*
X185145072Y-138956786D01*
X185145074Y-138956789D01*
X185312423Y-139223123D01*
X185508539Y-139469044D01*
X185730956Y-139691461D01*
X185976877Y-139887577D01*
X186243211Y-140054926D01*
X186526606Y-140191402D01*
X186823500Y-140295289D01*
X187130160Y-140365282D01*
X187442723Y-140400499D01*
X187442724Y-140400500D01*
X187442727Y-140400500D01*
X187757276Y-140400500D01*
X187757276Y-140400499D01*
X188069840Y-140365282D01*
X188376500Y-140295289D01*
X188673394Y-140191402D01*
X188956789Y-140054926D01*
X189223123Y-139887577D01*
X189469044Y-139691461D01*
X189691461Y-139469044D01*
X189887577Y-139223123D01*
X190054926Y-138956789D01*
X190191402Y-138673394D01*
X190295289Y-138376500D01*
X190365282Y-138069840D01*
X190400500Y-137757273D01*
X190400500Y-137442727D01*
X190365282Y-137130160D01*
X190295289Y-136823500D01*
X190191402Y-136526606D01*
X190054926Y-136243211D01*
X189887577Y-135976877D01*
X189691461Y-135730956D01*
X189469044Y-135508539D01*
X189223123Y-135312423D01*
X188956789Y-135145074D01*
X188956786Y-135145072D01*
X188673395Y-135008598D01*
X188376501Y-134904711D01*
X188376499Y-134904710D01*
X188069843Y-134834718D01*
X188069827Y-134834716D01*
X187757277Y-134799500D01*
X187757273Y-134799500D01*
X187442727Y-134799500D01*
X187442722Y-134799500D01*
X187130172Y-134834716D01*
X187130156Y-134834718D01*
X186823500Y-134904710D01*
X186823498Y-134904711D01*
X186526604Y-135008598D01*
X186243213Y-135145072D01*
X185976878Y-135312422D01*
X185730956Y-135508538D01*
X185508538Y-135730956D01*
X185312422Y-135976878D01*
X185145072Y-136243213D01*
X185008598Y-136526604D01*
X184904711Y-136823498D01*
X184904710Y-136823500D01*
X184834718Y-137130156D01*
X184834716Y-137130172D01*
X184799500Y-137442722D01*
X114200499Y-137442722D01*
X114165282Y-137130160D01*
X114095289Y-136823500D01*
X113991402Y-136526606D01*
X113854926Y-136243211D01*
X113687577Y-135976877D01*
X113491461Y-135730956D01*
X113269044Y-135508539D01*
X113023123Y-135312423D01*
X112756789Y-135145074D01*
X112756786Y-135145072D01*
X112473395Y-135008598D01*
X112176501Y-134904711D01*
X112176499Y-134904710D01*
X111869843Y-134834718D01*
X111869827Y-134834716D01*
X111557277Y-134799500D01*
X111557273Y-134799500D01*
X111242727Y-134799500D01*
X111242722Y-134799500D01*
X110930172Y-134834716D01*
X110930156Y-134834718D01*
X110623500Y-134904710D01*
X110623498Y-134904711D01*
X110326604Y-135008598D01*
X110043213Y-135145072D01*
X109776878Y-135312422D01*
X109530956Y-135508538D01*
X109308538Y-135730956D01*
X109112422Y-135976878D01*
X108945072Y-136243213D01*
X108808598Y-136526604D01*
X108704711Y-136823498D01*
X108704710Y-136823500D01*
X108634718Y-137130156D01*
X108634716Y-137130172D01*
X108599500Y-137442722D01*
X100000500Y-137442722D01*
X100000500Y-126571153D01*
X185299500Y-126571153D01*
X185299500Y-126728846D01*
X185330261Y-126883489D01*
X185330264Y-126883501D01*
X185390602Y-127029172D01*
X185390609Y-127029185D01*
X185478210Y-127160288D01*
X185478213Y-127160292D01*
X185589707Y-127271786D01*
X185589711Y-127271789D01*
X185720814Y-127359390D01*
X185720827Y-127359397D01*
X185866498Y-127419735D01*
X185866503Y-127419737D01*
X186021153Y-127450499D01*
X186021156Y-127450500D01*
X186021158Y-127450500D01*
X186178844Y-127450500D01*
X186178845Y-127450499D01*
X186333497Y-127419737D01*
X186479179Y-127359394D01*
X186610289Y-127271789D01*
X186721789Y-127160289D01*
X186809394Y-127029179D01*
X186869737Y-126883497D01*
X186900500Y-126728842D01*
X186900500Y-126571158D01*
X186900500Y-126571155D01*
X186900499Y-126571153D01*
X187839500Y-126571153D01*
X187839500Y-126728846D01*
X187870261Y-126883489D01*
X187870264Y-126883501D01*
X187930602Y-127029172D01*
X187930609Y-127029185D01*
X188018210Y-127160288D01*
X188018213Y-127160292D01*
X188129707Y-127271786D01*
X188129711Y-127271789D01*
X188260814Y-127359390D01*
X188260827Y-127359397D01*
X188406498Y-127419735D01*
X188406503Y-127419737D01*
X188561153Y-127450499D01*
X188561156Y-127450500D01*
X188561158Y-127450500D01*
X188718844Y-127450500D01*
X188718845Y-127450499D01*
X188873497Y-127419737D01*
X189019179Y-127359394D01*
X189150289Y-127271789D01*
X189261789Y-127160289D01*
X189349394Y-127029179D01*
X189409737Y-126883497D01*
X189440500Y-126728842D01*
X189440500Y-126571158D01*
X189440500Y-126571155D01*
X189440499Y-126571153D01*
X189409738Y-126416510D01*
X189409737Y-126416503D01*
X189409735Y-126416498D01*
X189349397Y-126270827D01*
X189349390Y-126270814D01*
X189261789Y-126139711D01*
X189261786Y-126139707D01*
X189150292Y-126028213D01*
X189150288Y-126028210D01*
X189019185Y-125940609D01*
X189019172Y-125940602D01*
X188873501Y-125880264D01*
X188873489Y-125880261D01*
X188718845Y-125849500D01*
X188718842Y-125849500D01*
X188561158Y-125849500D01*
X188561155Y-125849500D01*
X188406510Y-125880261D01*
X188406498Y-125880264D01*
X188260827Y-125940602D01*
X188260814Y-125940609D01*
X188129711Y-126028210D01*
X188129707Y-126028213D01*
X188018213Y-126139707D01*
X188018210Y-126139711D01*
X187930609Y-126270814D01*
X187930602Y-126270827D01*
X187870264Y-126416498D01*
X187870261Y-126416510D01*
X187839500Y-126571153D01*
X186900499Y-126571153D01*
X186869738Y-126416510D01*
X186869737Y-126416503D01*
X186869735Y-126416498D01*
X186809397Y-126270827D01*
X186809390Y-126270814D01*
X186721789Y-126139711D01*
X186721786Y-126139707D01*
X186610292Y-126028213D01*
X186610288Y-126028210D01*
X186479185Y-125940609D01*
X186479172Y-125940602D01*
X186333501Y-125880264D01*
X186333489Y-125880261D01*
X186178845Y-125849500D01*
X186178842Y-125849500D01*
X186021158Y-125849500D01*
X186021155Y-125849500D01*
X185866510Y-125880261D01*
X185866498Y-125880264D01*
X185720827Y-125940602D01*
X185720814Y-125940609D01*
X185589711Y-126028210D01*
X185589707Y-126028213D01*
X185478213Y-126139707D01*
X185478210Y-126139711D01*
X185390609Y-126270814D01*
X185390602Y-126270827D01*
X185330264Y-126416498D01*
X185330261Y-126416510D01*
X185299500Y-126571153D01*
X100000500Y-126571153D01*
X100000500Y-123242155D01*
X108750000Y-123242155D01*
X108750000Y-123890000D01*
X109666988Y-123890000D01*
X109634075Y-123947007D01*
X109600000Y-124074174D01*
X109600000Y-124205826D01*
X109634075Y-124332993D01*
X109666988Y-124390000D01*
X108750000Y-124390000D01*
X108750000Y-125037844D01*
X108756401Y-125097372D01*
X108756403Y-125097379D01*
X108806645Y-125232086D01*
X108806649Y-125232093D01*
X108892809Y-125347187D01*
X108892812Y-125347190D01*
X109007906Y-125433350D01*
X109007913Y-125433354D01*
X109142620Y-125483596D01*
X109142627Y-125483598D01*
X109202155Y-125489999D01*
X109202172Y-125490000D01*
X109850000Y-125490000D01*
X109850000Y-124573012D01*
X109907007Y-124605925D01*
X110034174Y-124640000D01*
X110165826Y-124640000D01*
X110292993Y-124605925D01*
X110350000Y-124573012D01*
X110350000Y-125490000D01*
X110997828Y-125490000D01*
X110997844Y-125489999D01*
X111057372Y-125483598D01*
X111057379Y-125483596D01*
X111192086Y-125433354D01*
X111192093Y-125433350D01*
X111307187Y-125347190D01*
X111307190Y-125347187D01*
X111393350Y-125232093D01*
X111393354Y-125232086D01*
X111443596Y-125097379D01*
X111443598Y-125097372D01*
X111449999Y-125037844D01*
X111450000Y-125037827D01*
X111450000Y-124390000D01*
X110533012Y-124390000D01*
X110565925Y-124332993D01*
X110600000Y-124205826D01*
X110600000Y-124074174D01*
X110565925Y-123947007D01*
X110533012Y-123890000D01*
X111450000Y-123890000D01*
X111450000Y-123242172D01*
X111449999Y-123242155D01*
X111443598Y-123182627D01*
X111443596Y-123182620D01*
X111393354Y-123047913D01*
X111393350Y-123047906D01*
X111307190Y-122932812D01*
X111307187Y-122932809D01*
X111192093Y-122846649D01*
X111192086Y-122846645D01*
X111057379Y-122796403D01*
X111057372Y-122796401D01*
X110997844Y-122790000D01*
X110248562Y-122790000D01*
X110181523Y-122770315D01*
X110135768Y-122717511D01*
X110125824Y-122648353D01*
X110154849Y-122584797D01*
X110213627Y-122547023D01*
X110224371Y-122544383D01*
X110294731Y-122530387D01*
X110377251Y-122513973D01*
X110550231Y-122442322D01*
X110705908Y-122338302D01*
X110838302Y-122205908D01*
X110891442Y-122126379D01*
X187949500Y-122126379D01*
X187949500Y-122313620D01*
X187986025Y-122497243D01*
X187986027Y-122497251D01*
X188057676Y-122670228D01*
X188057681Y-122670237D01*
X188161697Y-122825907D01*
X188161700Y-122825911D01*
X188294088Y-122958299D01*
X188294092Y-122958302D01*
X188449762Y-123062318D01*
X188449768Y-123062321D01*
X188449769Y-123062322D01*
X188622749Y-123133973D01*
X188806379Y-123170499D01*
X188806383Y-123170500D01*
X188806384Y-123170500D01*
X188993617Y-123170500D01*
X188993618Y-123170499D01*
X189177251Y-123133973D01*
X189350231Y-123062322D01*
X189505908Y-122958302D01*
X189638302Y-122825908D01*
X189742322Y-122670231D01*
X189813973Y-122497251D01*
X189850500Y-122313616D01*
X189850500Y-122126384D01*
X189813973Y-121942749D01*
X189742322Y-121769769D01*
X189742321Y-121769768D01*
X189742318Y-121769762D01*
X189638302Y-121614092D01*
X189638299Y-121614088D01*
X189505911Y-121481700D01*
X189505907Y-121481697D01*
X189350237Y-121377681D01*
X189350228Y-121377676D01*
X189177251Y-121306027D01*
X189177243Y-121306025D01*
X188993620Y-121269500D01*
X188993616Y-121269500D01*
X188806384Y-121269500D01*
X188806379Y-121269500D01*
X188622756Y-121306025D01*
X188622748Y-121306027D01*
X188449771Y-121377676D01*
X188449762Y-121377681D01*
X188294092Y-121481697D01*
X188294088Y-121481700D01*
X188161700Y-121614088D01*
X188161697Y-121614092D01*
X188057681Y-121769762D01*
X188057676Y-121769771D01*
X187986027Y-121942748D01*
X187986025Y-121942756D01*
X187949500Y-122126379D01*
X110891442Y-122126379D01*
X110941541Y-122051401D01*
X110942319Y-122050235D01*
X110942322Y-122050231D01*
X111013973Y-121877251D01*
X111050500Y-121693616D01*
X111050500Y-121506384D01*
X111013973Y-121322749D01*
X110942322Y-121149769D01*
X110942321Y-121149768D01*
X110942318Y-121149762D01*
X110838302Y-120994092D01*
X110838299Y-120994088D01*
X110705911Y-120861700D01*
X110705907Y-120861697D01*
X110550237Y-120757681D01*
X110550228Y-120757676D01*
X110377251Y-120686027D01*
X110377243Y-120686025D01*
X110193620Y-120649500D01*
X110193616Y-120649500D01*
X110006384Y-120649500D01*
X110006379Y-120649500D01*
X109822756Y-120686025D01*
X109822748Y-120686027D01*
X109649771Y-120757676D01*
X109649762Y-120757681D01*
X109494092Y-120861697D01*
X109494088Y-120861700D01*
X109361700Y-120994088D01*
X109361697Y-120994092D01*
X109257681Y-121149762D01*
X109257676Y-121149771D01*
X109186027Y-121322748D01*
X109186025Y-121322756D01*
X109149500Y-121506379D01*
X109149500Y-121693620D01*
X109186025Y-121877243D01*
X109186027Y-121877251D01*
X109257676Y-122050228D01*
X109257681Y-122050237D01*
X109361697Y-122205907D01*
X109361700Y-122205911D01*
X109494088Y-122338299D01*
X109494092Y-122338302D01*
X109649762Y-122442318D01*
X109649768Y-122442321D01*
X109649769Y-122442322D01*
X109822749Y-122513973D01*
X109889658Y-122527282D01*
X109975629Y-122544383D01*
X110037540Y-122576768D01*
X110072114Y-122637483D01*
X110068375Y-122707253D01*
X110027509Y-122763925D01*
X109962490Y-122789506D01*
X109951438Y-122790000D01*
X109202155Y-122790000D01*
X109142627Y-122796401D01*
X109142620Y-122796403D01*
X109007913Y-122846645D01*
X109007906Y-122846649D01*
X108892812Y-122932809D01*
X108892809Y-122932812D01*
X108806649Y-123047906D01*
X108806645Y-123047913D01*
X108756403Y-123182620D01*
X108756401Y-123182627D01*
X108750000Y-123242155D01*
X100000500Y-123242155D01*
X100000500Y-119586379D01*
X187949500Y-119586379D01*
X187949500Y-119773620D01*
X187986025Y-119957243D01*
X187986027Y-119957251D01*
X188057676Y-120130228D01*
X188057681Y-120130237D01*
X188161697Y-120285907D01*
X188161700Y-120285911D01*
X188294088Y-120418299D01*
X188294092Y-120418302D01*
X188449762Y-120522318D01*
X188449768Y-120522321D01*
X188449769Y-120522322D01*
X188622749Y-120593973D01*
X188806379Y-120630499D01*
X188806383Y-120630500D01*
X188806384Y-120630500D01*
X188993617Y-120630500D01*
X188993618Y-120630499D01*
X189177251Y-120593973D01*
X189350231Y-120522322D01*
X189505908Y-120418302D01*
X189638302Y-120285908D01*
X189742322Y-120130231D01*
X189813973Y-119957251D01*
X189850500Y-119773616D01*
X189850500Y-119586384D01*
X189813973Y-119402749D01*
X189742322Y-119229769D01*
X189742321Y-119229768D01*
X189742318Y-119229762D01*
X189638302Y-119074092D01*
X189638299Y-119074088D01*
X189505911Y-118941700D01*
X189505907Y-118941697D01*
X189350237Y-118837681D01*
X189350228Y-118837676D01*
X189177251Y-118766027D01*
X189177243Y-118766025D01*
X188993620Y-118729500D01*
X188993616Y-118729500D01*
X188806384Y-118729500D01*
X188806379Y-118729500D01*
X188622756Y-118766025D01*
X188622748Y-118766027D01*
X188449771Y-118837676D01*
X188449762Y-118837681D01*
X188294092Y-118941697D01*
X188294088Y-118941700D01*
X188161700Y-119074088D01*
X188161697Y-119074092D01*
X188057681Y-119229762D01*
X188057676Y-119229771D01*
X187986027Y-119402748D01*
X187986025Y-119402756D01*
X187949500Y-119586379D01*
X100000500Y-119586379D01*
X100000500Y-117046379D01*
X187949500Y-117046379D01*
X187949500Y-117233620D01*
X187986025Y-117417243D01*
X187986027Y-117417251D01*
X188057676Y-117590228D01*
X188057681Y-117590237D01*
X188161697Y-117745907D01*
X188161700Y-117745911D01*
X188294088Y-117878299D01*
X188294092Y-117878302D01*
X188449762Y-117982318D01*
X188449768Y-117982321D01*
X188449769Y-117982322D01*
X188622749Y-118053973D01*
X188806379Y-118090499D01*
X188806383Y-118090500D01*
X188806384Y-118090500D01*
X188993617Y-118090500D01*
X188993618Y-118090499D01*
X189177251Y-118053973D01*
X189350231Y-117982322D01*
X189505908Y-117878302D01*
X189638302Y-117745908D01*
X189742322Y-117590231D01*
X189813973Y-117417251D01*
X189850500Y-117233616D01*
X189850500Y-117046384D01*
X189813973Y-116862749D01*
X189742322Y-116689769D01*
X189742321Y-116689768D01*
X189742318Y-116689762D01*
X189638302Y-116534092D01*
X189638299Y-116534088D01*
X189505911Y-116401700D01*
X189505907Y-116401697D01*
X189350237Y-116297681D01*
X189350228Y-116297676D01*
X189177251Y-116226027D01*
X189177243Y-116226025D01*
X188993620Y-116189500D01*
X188993616Y-116189500D01*
X188806384Y-116189500D01*
X188806379Y-116189500D01*
X188622756Y-116226025D01*
X188622748Y-116226027D01*
X188449771Y-116297676D01*
X188449762Y-116297681D01*
X188294092Y-116401697D01*
X188294088Y-116401700D01*
X188161700Y-116534088D01*
X188161697Y-116534092D01*
X188057681Y-116689762D01*
X188057676Y-116689771D01*
X187986027Y-116862748D01*
X187986025Y-116862756D01*
X187949500Y-117046379D01*
X100000500Y-117046379D01*
X100000500Y-114506379D01*
X187949500Y-114506379D01*
X187949500Y-114693620D01*
X187986025Y-114877243D01*
X187986027Y-114877251D01*
X188057676Y-115050228D01*
X188057681Y-115050237D01*
X188161697Y-115205907D01*
X188161700Y-115205911D01*
X188294088Y-115338299D01*
X188294092Y-115338302D01*
X188449762Y-115442318D01*
X188449768Y-115442321D01*
X188449769Y-115442322D01*
X188622749Y-115513973D01*
X188806379Y-115550499D01*
X188806383Y-115550500D01*
X188806384Y-115550500D01*
X188993617Y-115550500D01*
X188993618Y-115550499D01*
X189177251Y-115513973D01*
X189350231Y-115442322D01*
X189505908Y-115338302D01*
X189638302Y-115205908D01*
X189742322Y-115050231D01*
X189813973Y-114877251D01*
X189850500Y-114693616D01*
X189850500Y-114506384D01*
X189813973Y-114322749D01*
X189742322Y-114149769D01*
X189742321Y-114149768D01*
X189742318Y-114149762D01*
X189638302Y-113994092D01*
X189638299Y-113994088D01*
X189505911Y-113861700D01*
X189505907Y-113861697D01*
X189350237Y-113757681D01*
X189350228Y-113757676D01*
X189177251Y-113686027D01*
X189177243Y-113686025D01*
X188993620Y-113649500D01*
X188993616Y-113649500D01*
X188806384Y-113649500D01*
X188806379Y-113649500D01*
X188622756Y-113686025D01*
X188622748Y-113686027D01*
X188449771Y-113757676D01*
X188449762Y-113757681D01*
X188294092Y-113861697D01*
X188294088Y-113861700D01*
X188161700Y-113994088D01*
X188161697Y-113994092D01*
X188057681Y-114149762D01*
X188057676Y-114149771D01*
X187986027Y-114322748D01*
X187986025Y-114322756D01*
X187949500Y-114506379D01*
X100000500Y-114506379D01*
X100000500Y-112120098D01*
X109149500Y-112120098D01*
X109149500Y-113839894D01*
X109149501Y-113839902D01*
X109155330Y-113869212D01*
X109177542Y-113902457D01*
X109194219Y-113913599D01*
X109210787Y-113924669D01*
X109210790Y-113924669D01*
X109210791Y-113924670D01*
X109220647Y-113926630D01*
X109240101Y-113930500D01*
X110959898Y-113930499D01*
X110989213Y-113924669D01*
X111022457Y-113902457D01*
X111044669Y-113869213D01*
X111050500Y-113839899D01*
X111050499Y-112120102D01*
X111044669Y-112090787D01*
X111022457Y-112057543D01*
X110989213Y-112035331D01*
X110989208Y-112035329D01*
X110959901Y-112029500D01*
X109240105Y-112029500D01*
X109240097Y-112029501D01*
X109210787Y-112035330D01*
X109177542Y-112057542D01*
X109155332Y-112090785D01*
X109155329Y-112090791D01*
X109149500Y-112120098D01*
X100000500Y-112120098D01*
X100000500Y-111966379D01*
X187949500Y-111966379D01*
X187949500Y-112153620D01*
X187986025Y-112337243D01*
X187986027Y-112337251D01*
X188057676Y-112510228D01*
X188057681Y-112510237D01*
X188161697Y-112665907D01*
X188161700Y-112665911D01*
X188294088Y-112798299D01*
X188294092Y-112798302D01*
X188449762Y-112902318D01*
X188449768Y-112902321D01*
X188449769Y-112902322D01*
X188622749Y-112973973D01*
X188806379Y-113010499D01*
X188806383Y-113010500D01*
X188806384Y-113010500D01*
X188993617Y-113010500D01*
X188993618Y-113010499D01*
X189177251Y-112973973D01*
X189350231Y-112902322D01*
X189505908Y-112798302D01*
X189638302Y-112665908D01*
X189742322Y-112510231D01*
X189813973Y-112337251D01*
X189850500Y-112153616D01*
X189850500Y-111966384D01*
X189813973Y-111782749D01*
X189742322Y-111609769D01*
X189742321Y-111609768D01*
X189742318Y-111609762D01*
X189638302Y-111454092D01*
X189638299Y-111454088D01*
X189505911Y-111321700D01*
X189505907Y-111321697D01*
X189350237Y-111217681D01*
X189350228Y-111217676D01*
X189177251Y-111146027D01*
X189177243Y-111146025D01*
X188993620Y-111109500D01*
X188993616Y-111109500D01*
X188806384Y-111109500D01*
X188806379Y-111109500D01*
X188622756Y-111146025D01*
X188622748Y-111146027D01*
X188449771Y-111217676D01*
X188449762Y-111217681D01*
X188294092Y-111321697D01*
X188294088Y-111321700D01*
X188161700Y-111454088D01*
X188161697Y-111454092D01*
X188057681Y-111609762D01*
X188057676Y-111609771D01*
X187986027Y-111782748D01*
X187986025Y-111782756D01*
X187949500Y-111966379D01*
X100000500Y-111966379D01*
X100000500Y-110346379D01*
X109149500Y-110346379D01*
X109149500Y-110533620D01*
X109186025Y-110717243D01*
X109186027Y-110717251D01*
X109257676Y-110890228D01*
X109257681Y-110890237D01*
X109361697Y-111045907D01*
X109361700Y-111045911D01*
X109494088Y-111178299D01*
X109494092Y-111178302D01*
X109649762Y-111282318D01*
X109649768Y-111282321D01*
X109649769Y-111282322D01*
X109822749Y-111353973D01*
X110006379Y-111390499D01*
X110006383Y-111390500D01*
X110006384Y-111390500D01*
X110193617Y-111390500D01*
X110193618Y-111390499D01*
X110377251Y-111353973D01*
X110550231Y-111282322D01*
X110705908Y-111178302D01*
X110838302Y-111045908D01*
X110942322Y-110890231D01*
X111013973Y-110717251D01*
X111050500Y-110533616D01*
X111050500Y-110346384D01*
X111013973Y-110162749D01*
X110942322Y-109989769D01*
X110942321Y-109989768D01*
X110942318Y-109989762D01*
X110838302Y-109834092D01*
X110838299Y-109834088D01*
X110705911Y-109701700D01*
X110705907Y-109701697D01*
X110550237Y-109597681D01*
X110550228Y-109597676D01*
X110442608Y-109553098D01*
X110377251Y-109526027D01*
X110377243Y-109526025D01*
X110193620Y-109489500D01*
X110193616Y-109489500D01*
X110006384Y-109489500D01*
X110006379Y-109489500D01*
X109822756Y-109526025D01*
X109822748Y-109526027D01*
X109649771Y-109597676D01*
X109649762Y-109597681D01*
X109494092Y-109701697D01*
X109494088Y-109701700D01*
X109361700Y-109834088D01*
X109361697Y-109834092D01*
X109257681Y-109989762D01*
X109257676Y-109989771D01*
X109186027Y-110162748D01*
X109186025Y-110162756D01*
X109149500Y-110346379D01*
X100000500Y-110346379D01*
X100000500Y-109426379D01*
X187949500Y-109426379D01*
X187949500Y-109613620D01*
X187986025Y-109797243D01*
X187986027Y-109797251D01*
X188057676Y-109970228D01*
X188057681Y-109970237D01*
X188161697Y-110125907D01*
X188161700Y-110125911D01*
X188294088Y-110258299D01*
X188294092Y-110258302D01*
X188449762Y-110362318D01*
X188449768Y-110362321D01*
X188449769Y-110362322D01*
X188622749Y-110433973D01*
X188806379Y-110470499D01*
X188806383Y-110470500D01*
X188806384Y-110470500D01*
X188993617Y-110470500D01*
X188993618Y-110470499D01*
X189177251Y-110433973D01*
X189350231Y-110362322D01*
X189505908Y-110258302D01*
X189638302Y-110125908D01*
X189742322Y-109970231D01*
X189813973Y-109797251D01*
X189850500Y-109613616D01*
X189850500Y-109426384D01*
X189813973Y-109242749D01*
X189742322Y-109069769D01*
X189742321Y-109069768D01*
X189742318Y-109069762D01*
X189638302Y-108914092D01*
X189638299Y-108914088D01*
X189505911Y-108781700D01*
X189505907Y-108781697D01*
X189350237Y-108677681D01*
X189350228Y-108677676D01*
X189177251Y-108606027D01*
X189177243Y-108606025D01*
X188993620Y-108569500D01*
X188993616Y-108569500D01*
X188806384Y-108569500D01*
X188806379Y-108569500D01*
X188622756Y-108606025D01*
X188622748Y-108606027D01*
X188449771Y-108677676D01*
X188449762Y-108677681D01*
X188294092Y-108781697D01*
X188294088Y-108781700D01*
X188161700Y-108914088D01*
X188161697Y-108914092D01*
X188057681Y-109069762D01*
X188057676Y-109069771D01*
X187986027Y-109242748D01*
X187986025Y-109242756D01*
X187949500Y-109426379D01*
X100000500Y-109426379D01*
X100000500Y-107806379D01*
X109149500Y-107806379D01*
X109149500Y-107993620D01*
X109186025Y-108177243D01*
X109186027Y-108177251D01*
X109257676Y-108350228D01*
X109257681Y-108350237D01*
X109361697Y-108505907D01*
X109361700Y-108505911D01*
X109494088Y-108638299D01*
X109494092Y-108638302D01*
X109649762Y-108742318D01*
X109649768Y-108742321D01*
X109649769Y-108742322D01*
X109822749Y-108813973D01*
X110006379Y-108850499D01*
X110006383Y-108850500D01*
X110006384Y-108850500D01*
X110193617Y-108850500D01*
X110193618Y-108850499D01*
X110377251Y-108813973D01*
X110550231Y-108742322D01*
X110705908Y-108638302D01*
X110838302Y-108505908D01*
X110942322Y-108350231D01*
X111013973Y-108177251D01*
X111050500Y-107993616D01*
X111050500Y-107806384D01*
X111013973Y-107622749D01*
X110942322Y-107449769D01*
X110942321Y-107449768D01*
X110942318Y-107449762D01*
X110838302Y-107294092D01*
X110838299Y-107294088D01*
X110705911Y-107161700D01*
X110705907Y-107161697D01*
X110550237Y-107057681D01*
X110550228Y-107057676D01*
X110442608Y-107013098D01*
X110377251Y-106986027D01*
X110377243Y-106986025D01*
X110193620Y-106949500D01*
X110193616Y-106949500D01*
X110006384Y-106949500D01*
X110006379Y-106949500D01*
X109822756Y-106986025D01*
X109822748Y-106986027D01*
X109649771Y-107057676D01*
X109649762Y-107057681D01*
X109494092Y-107161697D01*
X109494088Y-107161700D01*
X109361700Y-107294088D01*
X109361697Y-107294092D01*
X109257681Y-107449762D01*
X109257676Y-107449771D01*
X109186027Y-107622748D01*
X109186025Y-107622756D01*
X109149500Y-107806379D01*
X100000500Y-107806379D01*
X100000500Y-106886379D01*
X187949500Y-106886379D01*
X187949500Y-107073620D01*
X187986025Y-107257243D01*
X187986027Y-107257251D01*
X188057676Y-107430228D01*
X188057681Y-107430237D01*
X188161697Y-107585907D01*
X188161700Y-107585911D01*
X188294088Y-107718299D01*
X188294092Y-107718302D01*
X188449762Y-107822318D01*
X188449768Y-107822321D01*
X188449769Y-107822322D01*
X188622749Y-107893973D01*
X188806379Y-107930499D01*
X188806383Y-107930500D01*
X188806384Y-107930500D01*
X188993617Y-107930500D01*
X188993618Y-107930499D01*
X189177251Y-107893973D01*
X189350231Y-107822322D01*
X189505908Y-107718302D01*
X189638302Y-107585908D01*
X189742322Y-107430231D01*
X189813973Y-107257251D01*
X189850500Y-107073616D01*
X189850500Y-106886384D01*
X189813973Y-106702749D01*
X189742322Y-106529769D01*
X189742321Y-106529768D01*
X189742318Y-106529762D01*
X189638302Y-106374092D01*
X189638299Y-106374088D01*
X189505911Y-106241700D01*
X189505907Y-106241697D01*
X189350237Y-106137681D01*
X189350228Y-106137676D01*
X189177251Y-106066027D01*
X189177243Y-106066025D01*
X188993620Y-106029500D01*
X188993616Y-106029500D01*
X188806384Y-106029500D01*
X188806379Y-106029500D01*
X188622756Y-106066025D01*
X188622748Y-106066027D01*
X188449771Y-106137676D01*
X188449762Y-106137681D01*
X188294092Y-106241697D01*
X188294088Y-106241700D01*
X188161700Y-106374088D01*
X188161697Y-106374092D01*
X188057681Y-106529762D01*
X188057676Y-106529771D01*
X187986027Y-106702748D01*
X187986025Y-106702756D01*
X187949500Y-106886379D01*
X100000500Y-106886379D01*
X100000500Y-105266379D01*
X109149500Y-105266379D01*
X109149500Y-105453620D01*
X109186025Y-105637243D01*
X109186027Y-105637251D01*
X109257676Y-105810228D01*
X109257681Y-105810237D01*
X109361697Y-105965907D01*
X109361700Y-105965911D01*
X109494088Y-106098299D01*
X109494092Y-106098302D01*
X109649762Y-106202318D01*
X109649768Y-106202321D01*
X109649769Y-106202322D01*
X109822749Y-106273973D01*
X110006379Y-106310499D01*
X110006383Y-106310500D01*
X110006384Y-106310500D01*
X110193617Y-106310500D01*
X110193618Y-106310499D01*
X110377251Y-106273973D01*
X110550231Y-106202322D01*
X110705908Y-106098302D01*
X110838302Y-105965908D01*
X110942322Y-105810231D01*
X111013973Y-105637251D01*
X111050500Y-105453616D01*
X111050500Y-105266384D01*
X111050407Y-105265921D01*
X111039949Y-105213337D01*
X111036754Y-105197273D01*
X148849500Y-105197273D01*
X148849500Y-105302727D01*
X148876793Y-105404587D01*
X148929520Y-105495913D01*
X149004087Y-105570480D01*
X149095413Y-105623207D01*
X149197273Y-105650500D01*
X149197275Y-105650500D01*
X149302725Y-105650500D01*
X149302727Y-105650500D01*
X149404587Y-105623207D01*
X149495913Y-105570480D01*
X149570480Y-105495913D01*
X149623207Y-105404587D01*
X149650500Y-105302727D01*
X149650500Y-105197273D01*
X149623207Y-105095413D01*
X149570480Y-105004087D01*
X149495913Y-104929520D01*
X149404587Y-104876793D01*
X149302727Y-104849500D01*
X149197273Y-104849500D01*
X149095413Y-104876793D01*
X149095410Y-104876794D01*
X149004085Y-104929521D01*
X148929521Y-105004085D01*
X148876794Y-105095410D01*
X148876793Y-105095413D01*
X148849500Y-105197273D01*
X111036754Y-105197273D01*
X111013974Y-105082756D01*
X111013973Y-105082749D01*
X110942322Y-104909769D01*
X110942321Y-104909768D01*
X110942318Y-104909762D01*
X110838302Y-104754092D01*
X110838299Y-104754088D01*
X110705911Y-104621700D01*
X110705907Y-104621697D01*
X110550237Y-104517681D01*
X110550228Y-104517676D01*
X110442608Y-104473098D01*
X110377251Y-104446027D01*
X110377243Y-104446025D01*
X110193620Y-104409500D01*
X110193616Y-104409500D01*
X110006384Y-104409500D01*
X110006379Y-104409500D01*
X109822756Y-104446025D01*
X109822748Y-104446027D01*
X109649771Y-104517676D01*
X109649762Y-104517681D01*
X109494092Y-104621697D01*
X109494088Y-104621700D01*
X109361700Y-104754088D01*
X109361697Y-104754092D01*
X109257681Y-104909762D01*
X109257676Y-104909771D01*
X109186027Y-105082748D01*
X109186025Y-105082756D01*
X109149500Y-105266379D01*
X100000500Y-105266379D01*
X100000500Y-104346379D01*
X187949500Y-104346379D01*
X187949500Y-104533620D01*
X187986025Y-104717243D01*
X187986027Y-104717251D01*
X188057676Y-104890228D01*
X188057681Y-104890237D01*
X188161697Y-105045907D01*
X188161700Y-105045911D01*
X188294088Y-105178299D01*
X188294092Y-105178302D01*
X188449762Y-105282318D01*
X188449768Y-105282321D01*
X188449769Y-105282322D01*
X188622749Y-105353973D01*
X188806379Y-105390499D01*
X188806383Y-105390500D01*
X188806384Y-105390500D01*
X188993617Y-105390500D01*
X188993618Y-105390499D01*
X189177251Y-105353973D01*
X189350231Y-105282322D01*
X189505908Y-105178302D01*
X189638302Y-105045908D01*
X189742322Y-104890231D01*
X189813973Y-104717251D01*
X189850500Y-104533616D01*
X189850500Y-104346384D01*
X189813973Y-104162749D01*
X189742322Y-103989769D01*
X189742321Y-103989768D01*
X189742318Y-103989762D01*
X189638302Y-103834092D01*
X189638299Y-103834088D01*
X189505911Y-103701700D01*
X189505907Y-103701697D01*
X189350237Y-103597681D01*
X189350228Y-103597676D01*
X189177251Y-103526027D01*
X189177243Y-103526025D01*
X188993620Y-103489500D01*
X188993616Y-103489500D01*
X188806384Y-103489500D01*
X188806379Y-103489500D01*
X188622756Y-103526025D01*
X188622748Y-103526027D01*
X188449771Y-103597676D01*
X188449762Y-103597681D01*
X188294092Y-103701697D01*
X188294088Y-103701700D01*
X188161700Y-103834088D01*
X188161697Y-103834092D01*
X188057681Y-103989762D01*
X188057676Y-103989771D01*
X187986027Y-104162748D01*
X187986025Y-104162756D01*
X187949500Y-104346379D01*
X100000500Y-104346379D01*
X100000500Y-102726379D01*
X109149500Y-102726379D01*
X109149500Y-102913620D01*
X109186025Y-103097243D01*
X109186027Y-103097251D01*
X109257676Y-103270228D01*
X109257681Y-103270237D01*
X109361697Y-103425907D01*
X109361700Y-103425911D01*
X109494088Y-103558299D01*
X109494092Y-103558302D01*
X109649762Y-103662318D01*
X109649768Y-103662321D01*
X109649769Y-103662322D01*
X109822749Y-103733973D01*
X110006379Y-103770499D01*
X110006383Y-103770500D01*
X110006384Y-103770500D01*
X110193617Y-103770500D01*
X110193618Y-103770499D01*
X110377251Y-103733973D01*
X110550231Y-103662322D01*
X110705908Y-103558302D01*
X110838302Y-103425908D01*
X110942322Y-103270231D01*
X111013973Y-103097251D01*
X111050500Y-102913616D01*
X111050500Y-102726384D01*
X111013973Y-102542749D01*
X110942322Y-102369769D01*
X110942321Y-102369768D01*
X110942318Y-102369762D01*
X110838302Y-102214092D01*
X110838299Y-102214088D01*
X110705911Y-102081700D01*
X110705907Y-102081697D01*
X110550237Y-101977681D01*
X110550228Y-101977676D01*
X110377251Y-101906027D01*
X110377243Y-101906025D01*
X110193620Y-101869500D01*
X110193616Y-101869500D01*
X110006384Y-101869500D01*
X110006379Y-101869500D01*
X109822756Y-101906025D01*
X109822748Y-101906027D01*
X109649771Y-101977676D01*
X109649762Y-101977681D01*
X109494092Y-102081697D01*
X109494088Y-102081700D01*
X109361700Y-102214088D01*
X109361697Y-102214092D01*
X109257681Y-102369762D01*
X109257676Y-102369771D01*
X109186027Y-102542748D01*
X109186025Y-102542756D01*
X109149500Y-102726379D01*
X100000500Y-102726379D01*
X100000500Y-100186379D01*
X109149500Y-100186379D01*
X109149500Y-100373620D01*
X109186025Y-100557243D01*
X109186027Y-100557251D01*
X109257676Y-100730228D01*
X109257681Y-100730237D01*
X109361697Y-100885907D01*
X109361700Y-100885911D01*
X109494088Y-101018299D01*
X109494092Y-101018302D01*
X109649762Y-101122318D01*
X109649768Y-101122321D01*
X109649769Y-101122322D01*
X109822749Y-101193973D01*
X110006379Y-101230499D01*
X110006383Y-101230500D01*
X110006384Y-101230500D01*
X110193617Y-101230500D01*
X110193618Y-101230499D01*
X110377251Y-101193973D01*
X110550231Y-101122322D01*
X110673288Y-101040098D01*
X187949500Y-101040098D01*
X187949500Y-102759894D01*
X187949501Y-102759902D01*
X187955330Y-102789212D01*
X187977542Y-102822457D01*
X187994219Y-102833599D01*
X188010787Y-102844669D01*
X188010790Y-102844669D01*
X188010791Y-102844670D01*
X188020647Y-102846630D01*
X188040101Y-102850500D01*
X189759898Y-102850499D01*
X189789213Y-102844669D01*
X189822457Y-102822457D01*
X189844669Y-102789213D01*
X189850500Y-102759899D01*
X189850499Y-101040102D01*
X189844669Y-101010787D01*
X189844668Y-101010785D01*
X189822457Y-100977542D01*
X189789214Y-100955332D01*
X189789215Y-100955332D01*
X189789213Y-100955331D01*
X189789211Y-100955330D01*
X189789208Y-100955329D01*
X189759901Y-100949500D01*
X188040105Y-100949500D01*
X188040097Y-100949501D01*
X188010787Y-100955330D01*
X187977542Y-100977542D01*
X187955332Y-101010785D01*
X187955329Y-101010791D01*
X187949500Y-101040098D01*
X110673288Y-101040098D01*
X110705908Y-101018302D01*
X110713425Y-101010785D01*
X110777883Y-100946328D01*
X110838299Y-100885911D01*
X110838302Y-100885908D01*
X110942322Y-100730231D01*
X111013973Y-100557251D01*
X111050500Y-100373616D01*
X111050500Y-100186384D01*
X111013973Y-100002749D01*
X110942322Y-99829769D01*
X110942321Y-99829768D01*
X110942318Y-99829762D01*
X110838302Y-99674092D01*
X110838299Y-99674088D01*
X110705911Y-99541700D01*
X110705906Y-99541696D01*
X110564592Y-99447273D01*
X149099500Y-99447273D01*
X149099500Y-99552727D01*
X149126793Y-99654587D01*
X149179520Y-99745913D01*
X149254087Y-99820480D01*
X149345413Y-99873207D01*
X149447273Y-99900500D01*
X149447275Y-99900500D01*
X149552725Y-99900500D01*
X149552727Y-99900500D01*
X149654587Y-99873207D01*
X149745913Y-99820480D01*
X149820480Y-99745913D01*
X149873207Y-99654587D01*
X149900500Y-99552727D01*
X149900500Y-99447273D01*
X149873207Y-99345413D01*
X149820480Y-99254087D01*
X149745913Y-99179520D01*
X149654587Y-99126793D01*
X149552727Y-99099500D01*
X149447273Y-99099500D01*
X149345413Y-99126793D01*
X149345410Y-99126794D01*
X149254085Y-99179521D01*
X149179521Y-99254085D01*
X149126794Y-99345410D01*
X149126793Y-99345413D01*
X149099500Y-99447273D01*
X110564592Y-99447273D01*
X110550237Y-99437681D01*
X110550228Y-99437676D01*
X110377251Y-99366027D01*
X110377243Y-99366025D01*
X110193620Y-99329500D01*
X110193616Y-99329500D01*
X110006384Y-99329500D01*
X110006379Y-99329500D01*
X109822756Y-99366025D01*
X109822748Y-99366027D01*
X109649771Y-99437676D01*
X109649762Y-99437681D01*
X109494092Y-99541697D01*
X109494088Y-99541700D01*
X109361700Y-99674088D01*
X109361697Y-99674092D01*
X109257681Y-99829762D01*
X109257676Y-99829771D01*
X109186027Y-100002748D01*
X109186025Y-100002756D01*
X109149500Y-100186379D01*
X100000500Y-100186379D01*
X100000500Y-97646379D01*
X109149500Y-97646379D01*
X109149500Y-97833620D01*
X109186025Y-98017243D01*
X109186027Y-98017251D01*
X109257676Y-98190228D01*
X109257681Y-98190237D01*
X109361697Y-98345907D01*
X109361700Y-98345911D01*
X109494088Y-98478299D01*
X109494092Y-98478302D01*
X109649762Y-98582318D01*
X109649768Y-98582321D01*
X109649769Y-98582322D01*
X109822749Y-98653973D01*
X110006379Y-98690499D01*
X110006383Y-98690500D01*
X110006384Y-98690500D01*
X110193617Y-98690500D01*
X110193618Y-98690499D01*
X110377251Y-98653973D01*
X110550231Y-98582322D01*
X110705908Y-98478302D01*
X110838302Y-98345908D01*
X110942322Y-98190231D01*
X111013973Y-98017251D01*
X111050500Y-97833616D01*
X111050500Y-97646384D01*
X111013973Y-97462749D01*
X110942322Y-97289769D01*
X110942321Y-97289768D01*
X110942318Y-97289762D01*
X110838302Y-97134092D01*
X110838299Y-97134088D01*
X110705911Y-97001700D01*
X110705907Y-97001697D01*
X110550237Y-96897681D01*
X110550228Y-96897676D01*
X110377251Y-96826027D01*
X110377243Y-96826025D01*
X110193620Y-96789500D01*
X110193616Y-96789500D01*
X110006384Y-96789500D01*
X110006379Y-96789500D01*
X109822756Y-96826025D01*
X109822748Y-96826027D01*
X109649771Y-96897676D01*
X109649762Y-96897681D01*
X109494092Y-97001697D01*
X109494088Y-97001700D01*
X109361700Y-97134088D01*
X109361697Y-97134092D01*
X109257681Y-97289762D01*
X109257676Y-97289771D01*
X109186027Y-97462748D01*
X109186025Y-97462756D01*
X109149500Y-97646379D01*
X100000500Y-97646379D01*
X100000500Y-95106379D01*
X109149500Y-95106379D01*
X109149500Y-95293620D01*
X109186025Y-95477243D01*
X109186027Y-95477251D01*
X109257676Y-95650228D01*
X109257681Y-95650237D01*
X109361697Y-95805907D01*
X109361700Y-95805911D01*
X109494088Y-95938299D01*
X109494092Y-95938302D01*
X109649762Y-96042318D01*
X109649768Y-96042321D01*
X109649769Y-96042322D01*
X109822749Y-96113973D01*
X110006379Y-96150499D01*
X110006383Y-96150500D01*
X110006384Y-96150500D01*
X110193617Y-96150500D01*
X110193618Y-96150499D01*
X110377251Y-96113973D01*
X110550231Y-96042322D01*
X110705908Y-95938302D01*
X110838302Y-95805908D01*
X110942322Y-95650231D01*
X111013973Y-95477251D01*
X111050500Y-95293616D01*
X111050500Y-95106384D01*
X111013973Y-94922749D01*
X110942322Y-94749769D01*
X110942321Y-94749768D01*
X110942318Y-94749762D01*
X110838302Y-94594092D01*
X110838299Y-94594088D01*
X110705911Y-94461700D01*
X110705907Y-94461697D01*
X110550237Y-94357681D01*
X110550228Y-94357676D01*
X110377251Y-94286027D01*
X110377243Y-94286025D01*
X110193620Y-94249500D01*
X110193616Y-94249500D01*
X110006384Y-94249500D01*
X110006379Y-94249500D01*
X109822756Y-94286025D01*
X109822748Y-94286027D01*
X109649771Y-94357676D01*
X109649762Y-94357681D01*
X109494092Y-94461697D01*
X109494088Y-94461700D01*
X109361700Y-94594088D01*
X109361697Y-94594092D01*
X109257681Y-94749762D01*
X109257676Y-94749771D01*
X109186027Y-94922748D01*
X109186025Y-94922756D01*
X109149500Y-95106379D01*
X100000500Y-95106379D01*
X100000500Y-92566379D01*
X109149500Y-92566379D01*
X109149500Y-92753620D01*
X109186025Y-92937243D01*
X109186027Y-92937251D01*
X109257676Y-93110228D01*
X109257681Y-93110237D01*
X109361697Y-93265907D01*
X109361700Y-93265911D01*
X109494088Y-93398299D01*
X109494092Y-93398302D01*
X109649762Y-93502318D01*
X109649768Y-93502321D01*
X109649769Y-93502322D01*
X109822749Y-93573973D01*
X110006379Y-93610499D01*
X110006383Y-93610500D01*
X110006384Y-93610500D01*
X110193617Y-93610500D01*
X110193618Y-93610499D01*
X110377251Y-93573973D01*
X110550231Y-93502322D01*
X110705908Y-93398302D01*
X110747831Y-93356379D01*
X187974500Y-93356379D01*
X187974500Y-93543620D01*
X188011025Y-93727243D01*
X188011027Y-93727251D01*
X188082676Y-93900228D01*
X188082681Y-93900237D01*
X188186697Y-94055907D01*
X188186700Y-94055911D01*
X188319088Y-94188299D01*
X188319092Y-94188302D01*
X188474762Y-94292318D01*
X188474768Y-94292321D01*
X188474769Y-94292322D01*
X188647749Y-94363973D01*
X188831379Y-94400499D01*
X188831383Y-94400500D01*
X188831384Y-94400500D01*
X189018617Y-94400500D01*
X189018618Y-94400499D01*
X189202251Y-94363973D01*
X189375231Y-94292322D01*
X189530908Y-94188302D01*
X189663302Y-94055908D01*
X189767322Y-93900231D01*
X189838973Y-93727251D01*
X189875500Y-93543616D01*
X189875500Y-93356384D01*
X189838973Y-93172749D01*
X189767322Y-92999769D01*
X189767321Y-92999768D01*
X189767318Y-92999762D01*
X189663302Y-92844092D01*
X189663299Y-92844088D01*
X189530911Y-92711700D01*
X189530907Y-92711697D01*
X189375237Y-92607681D01*
X189375228Y-92607676D01*
X189202251Y-92536027D01*
X189202243Y-92536025D01*
X189018620Y-92499500D01*
X189018616Y-92499500D01*
X188831384Y-92499500D01*
X188831379Y-92499500D01*
X188647756Y-92536025D01*
X188647748Y-92536027D01*
X188474771Y-92607676D01*
X188474762Y-92607681D01*
X188319092Y-92711697D01*
X188319088Y-92711700D01*
X188186700Y-92844088D01*
X188186697Y-92844092D01*
X188082681Y-92999762D01*
X188082676Y-92999771D01*
X188011027Y-93172748D01*
X188011025Y-93172756D01*
X187974500Y-93356379D01*
X110747831Y-93356379D01*
X110838302Y-93265908D01*
X110942322Y-93110231D01*
X111013973Y-92937251D01*
X111050500Y-92753616D01*
X111050500Y-92566384D01*
X111013973Y-92382749D01*
X110942322Y-92209769D01*
X110942321Y-92209768D01*
X110942318Y-92209762D01*
X110838302Y-92054092D01*
X110838299Y-92054088D01*
X110705911Y-91921700D01*
X110705907Y-91921697D01*
X110550237Y-91817681D01*
X110550228Y-91817676D01*
X110377251Y-91746027D01*
X110377243Y-91746025D01*
X110193620Y-91709500D01*
X110193616Y-91709500D01*
X110006384Y-91709500D01*
X110006379Y-91709500D01*
X109822756Y-91746025D01*
X109822748Y-91746027D01*
X109649771Y-91817676D01*
X109649762Y-91817681D01*
X109494092Y-91921697D01*
X109494088Y-91921700D01*
X109361700Y-92054088D01*
X109361697Y-92054092D01*
X109257681Y-92209762D01*
X109257676Y-92209771D01*
X109186027Y-92382748D01*
X109186025Y-92382756D01*
X109149500Y-92566379D01*
X100000500Y-92566379D01*
X100000500Y-90026379D01*
X109149500Y-90026379D01*
X109149500Y-90213620D01*
X109186025Y-90397243D01*
X109186027Y-90397251D01*
X109257676Y-90570228D01*
X109257681Y-90570237D01*
X109361697Y-90725907D01*
X109361700Y-90725911D01*
X109494088Y-90858299D01*
X109494092Y-90858302D01*
X109649762Y-90962318D01*
X109649768Y-90962321D01*
X109649769Y-90962322D01*
X109822749Y-91033973D01*
X110006379Y-91070499D01*
X110006383Y-91070500D01*
X110006384Y-91070500D01*
X110193617Y-91070500D01*
X110193618Y-91070499D01*
X110377251Y-91033973D01*
X110550231Y-90962322D01*
X110705908Y-90858302D01*
X110747831Y-90816379D01*
X187974500Y-90816379D01*
X187974500Y-91003620D01*
X188011025Y-91187243D01*
X188011027Y-91187251D01*
X188082676Y-91360228D01*
X188082681Y-91360237D01*
X188186697Y-91515907D01*
X188186700Y-91515911D01*
X188319088Y-91648299D01*
X188319092Y-91648302D01*
X188474762Y-91752318D01*
X188474768Y-91752321D01*
X188474769Y-91752322D01*
X188647749Y-91823973D01*
X188831379Y-91860499D01*
X188831383Y-91860500D01*
X188831384Y-91860500D01*
X189018617Y-91860500D01*
X189018618Y-91860499D01*
X189202251Y-91823973D01*
X189375231Y-91752322D01*
X189530908Y-91648302D01*
X189663302Y-91515908D01*
X189767322Y-91360231D01*
X189838973Y-91187251D01*
X189875500Y-91003616D01*
X189875500Y-90816384D01*
X189838973Y-90632749D01*
X189767322Y-90459769D01*
X189767321Y-90459768D01*
X189767318Y-90459762D01*
X189663302Y-90304092D01*
X189663299Y-90304088D01*
X189530911Y-90171700D01*
X189530907Y-90171697D01*
X189375237Y-90067681D01*
X189375228Y-90067676D01*
X189202251Y-89996027D01*
X189202243Y-89996025D01*
X189018620Y-89959500D01*
X189018616Y-89959500D01*
X188831384Y-89959500D01*
X188831379Y-89959500D01*
X188647756Y-89996025D01*
X188647748Y-89996027D01*
X188474771Y-90067676D01*
X188474762Y-90067681D01*
X188319092Y-90171697D01*
X188319088Y-90171700D01*
X188186700Y-90304088D01*
X188186697Y-90304092D01*
X188082681Y-90459762D01*
X188082676Y-90459771D01*
X188011027Y-90632748D01*
X188011025Y-90632756D01*
X187974500Y-90816379D01*
X110747831Y-90816379D01*
X110838302Y-90725908D01*
X110942322Y-90570231D01*
X111013973Y-90397251D01*
X111050500Y-90213616D01*
X111050500Y-90026384D01*
X111013973Y-89842749D01*
X110942322Y-89669769D01*
X110942321Y-89669768D01*
X110942318Y-89669762D01*
X110838302Y-89514092D01*
X110838299Y-89514088D01*
X110705911Y-89381700D01*
X110705907Y-89381697D01*
X110550237Y-89277681D01*
X110550228Y-89277676D01*
X110377251Y-89206027D01*
X110377243Y-89206025D01*
X110193620Y-89169500D01*
X110193616Y-89169500D01*
X110006384Y-89169500D01*
X110006379Y-89169500D01*
X109822756Y-89206025D01*
X109822748Y-89206027D01*
X109649771Y-89277676D01*
X109649762Y-89277681D01*
X109494092Y-89381697D01*
X109494088Y-89381700D01*
X109361700Y-89514088D01*
X109361697Y-89514092D01*
X109257681Y-89669762D01*
X109257676Y-89669771D01*
X109186027Y-89842748D01*
X109186025Y-89842756D01*
X109149500Y-90026379D01*
X100000500Y-90026379D01*
X100000500Y-87486379D01*
X109149500Y-87486379D01*
X109149500Y-87673620D01*
X109186025Y-87857243D01*
X109186027Y-87857251D01*
X109257676Y-88030228D01*
X109257681Y-88030237D01*
X109361697Y-88185907D01*
X109361700Y-88185911D01*
X109494088Y-88318299D01*
X109494092Y-88318302D01*
X109649762Y-88422318D01*
X109649768Y-88422321D01*
X109649769Y-88422322D01*
X109822749Y-88493973D01*
X110006379Y-88530499D01*
X110006383Y-88530500D01*
X110006384Y-88530500D01*
X110193617Y-88530500D01*
X110193618Y-88530499D01*
X110377251Y-88493973D01*
X110550231Y-88422322D01*
X110705908Y-88318302D01*
X110747831Y-88276379D01*
X187974500Y-88276379D01*
X187974500Y-88463620D01*
X188011025Y-88647243D01*
X188011027Y-88647251D01*
X188082676Y-88820228D01*
X188082681Y-88820237D01*
X188186697Y-88975907D01*
X188186700Y-88975911D01*
X188319088Y-89108299D01*
X188319092Y-89108302D01*
X188474762Y-89212318D01*
X188474768Y-89212321D01*
X188474769Y-89212322D01*
X188647749Y-89283973D01*
X188831379Y-89320499D01*
X188831383Y-89320500D01*
X188831384Y-89320500D01*
X189018617Y-89320500D01*
X189018618Y-89320499D01*
X189202251Y-89283973D01*
X189375231Y-89212322D01*
X189530908Y-89108302D01*
X189663302Y-88975908D01*
X189767322Y-88820231D01*
X189838973Y-88647251D01*
X189875500Y-88463616D01*
X189875500Y-88276384D01*
X189838973Y-88092749D01*
X189767322Y-87919769D01*
X189767321Y-87919768D01*
X189767318Y-87919762D01*
X189663302Y-87764092D01*
X189663299Y-87764088D01*
X189530911Y-87631700D01*
X189530907Y-87631697D01*
X189375237Y-87527681D01*
X189375228Y-87527676D01*
X189202251Y-87456027D01*
X189202243Y-87456025D01*
X189018620Y-87419500D01*
X189018616Y-87419500D01*
X188831384Y-87419500D01*
X188831379Y-87419500D01*
X188647756Y-87456025D01*
X188647748Y-87456027D01*
X188474771Y-87527676D01*
X188474762Y-87527681D01*
X188319092Y-87631697D01*
X188319088Y-87631700D01*
X188186700Y-87764088D01*
X188186697Y-87764092D01*
X188082681Y-87919762D01*
X188082676Y-87919771D01*
X188011027Y-88092748D01*
X188011025Y-88092756D01*
X187974500Y-88276379D01*
X110747831Y-88276379D01*
X110838302Y-88185908D01*
X110942322Y-88030231D01*
X111013973Y-87857251D01*
X111050500Y-87673616D01*
X111050500Y-87486384D01*
X111013973Y-87302749D01*
X110942322Y-87129769D01*
X110942321Y-87129768D01*
X110942318Y-87129762D01*
X110838302Y-86974092D01*
X110838299Y-86974088D01*
X110705911Y-86841700D01*
X110705907Y-86841697D01*
X110550237Y-86737681D01*
X110550228Y-86737676D01*
X110377251Y-86666027D01*
X110377243Y-86666025D01*
X110193620Y-86629500D01*
X110193616Y-86629500D01*
X110006384Y-86629500D01*
X110006379Y-86629500D01*
X109822756Y-86666025D01*
X109822748Y-86666027D01*
X109649771Y-86737676D01*
X109649762Y-86737681D01*
X109494092Y-86841697D01*
X109494088Y-86841700D01*
X109361700Y-86974088D01*
X109361697Y-86974092D01*
X109257681Y-87129762D01*
X109257676Y-87129771D01*
X109186027Y-87302748D01*
X109186025Y-87302756D01*
X109149500Y-87486379D01*
X100000500Y-87486379D01*
X100000500Y-84946379D01*
X109149500Y-84946379D01*
X109149500Y-85133620D01*
X109186025Y-85317243D01*
X109186027Y-85317251D01*
X109257676Y-85490228D01*
X109257681Y-85490237D01*
X109361697Y-85645907D01*
X109361700Y-85645911D01*
X109494088Y-85778299D01*
X109494092Y-85778302D01*
X109649762Y-85882318D01*
X109649768Y-85882321D01*
X109649769Y-85882322D01*
X109822749Y-85953973D01*
X110006379Y-85990499D01*
X110006383Y-85990500D01*
X110006384Y-85990500D01*
X110193617Y-85990500D01*
X110193618Y-85990499D01*
X110377251Y-85953973D01*
X110550231Y-85882322D01*
X110705908Y-85778302D01*
X110747831Y-85736379D01*
X187974500Y-85736379D01*
X187974500Y-85923620D01*
X188011025Y-86107243D01*
X188011027Y-86107251D01*
X188082676Y-86280228D01*
X188082681Y-86280237D01*
X188186697Y-86435907D01*
X188186700Y-86435911D01*
X188319088Y-86568299D01*
X188319092Y-86568302D01*
X188474762Y-86672318D01*
X188474768Y-86672321D01*
X188474769Y-86672322D01*
X188647749Y-86743973D01*
X188831379Y-86780499D01*
X188831383Y-86780500D01*
X188831384Y-86780500D01*
X189018617Y-86780500D01*
X189018618Y-86780499D01*
X189202251Y-86743973D01*
X189375231Y-86672322D01*
X189530908Y-86568302D01*
X189663302Y-86435908D01*
X189767322Y-86280231D01*
X189838973Y-86107251D01*
X189875500Y-85923616D01*
X189875500Y-85736384D01*
X189838973Y-85552749D01*
X189767322Y-85379769D01*
X189767321Y-85379768D01*
X189767318Y-85379762D01*
X189663302Y-85224092D01*
X189663299Y-85224088D01*
X189530911Y-85091700D01*
X189530907Y-85091697D01*
X189375237Y-84987681D01*
X189375228Y-84987676D01*
X189202251Y-84916027D01*
X189202243Y-84916025D01*
X189018620Y-84879500D01*
X189018616Y-84879500D01*
X188831384Y-84879500D01*
X188831379Y-84879500D01*
X188647756Y-84916025D01*
X188647748Y-84916027D01*
X188474771Y-84987676D01*
X188474762Y-84987681D01*
X188319092Y-85091697D01*
X188319088Y-85091700D01*
X188186700Y-85224088D01*
X188186697Y-85224092D01*
X188082681Y-85379762D01*
X188082676Y-85379771D01*
X188011027Y-85552748D01*
X188011025Y-85552756D01*
X187974500Y-85736379D01*
X110747831Y-85736379D01*
X110838302Y-85645908D01*
X110942322Y-85490231D01*
X111013973Y-85317251D01*
X111050500Y-85133616D01*
X111050500Y-84946384D01*
X111013973Y-84762749D01*
X110942322Y-84589769D01*
X110942321Y-84589768D01*
X110942318Y-84589762D01*
X110838302Y-84434092D01*
X110838299Y-84434088D01*
X110705911Y-84301700D01*
X110705907Y-84301697D01*
X110550237Y-84197681D01*
X110550228Y-84197676D01*
X110377251Y-84126027D01*
X110377243Y-84126025D01*
X110193620Y-84089500D01*
X110193616Y-84089500D01*
X110006384Y-84089500D01*
X110006379Y-84089500D01*
X109822756Y-84126025D01*
X109822748Y-84126027D01*
X109649771Y-84197676D01*
X109649762Y-84197681D01*
X109494092Y-84301697D01*
X109494088Y-84301700D01*
X109361700Y-84434088D01*
X109361697Y-84434092D01*
X109257681Y-84589762D01*
X109257676Y-84589771D01*
X109186027Y-84762748D01*
X109186025Y-84762756D01*
X109149500Y-84946379D01*
X100000500Y-84946379D01*
X100000500Y-82406379D01*
X109149500Y-82406379D01*
X109149500Y-82593620D01*
X109186025Y-82777243D01*
X109186027Y-82777251D01*
X109257676Y-82950228D01*
X109257681Y-82950237D01*
X109361697Y-83105907D01*
X109361700Y-83105911D01*
X109494088Y-83238299D01*
X109494092Y-83238302D01*
X109649762Y-83342318D01*
X109649768Y-83342321D01*
X109649769Y-83342322D01*
X109822749Y-83413973D01*
X110006379Y-83450499D01*
X110006383Y-83450500D01*
X110006384Y-83450500D01*
X110193617Y-83450500D01*
X110193618Y-83450499D01*
X110377251Y-83413973D01*
X110550231Y-83342322D01*
X110705908Y-83238302D01*
X110747831Y-83196379D01*
X187974500Y-83196379D01*
X187974500Y-83383620D01*
X188011025Y-83567243D01*
X188011027Y-83567251D01*
X188082676Y-83740228D01*
X188082681Y-83740237D01*
X188186697Y-83895907D01*
X188186700Y-83895911D01*
X188319088Y-84028299D01*
X188319092Y-84028302D01*
X188474762Y-84132318D01*
X188474768Y-84132321D01*
X188474769Y-84132322D01*
X188647749Y-84203973D01*
X188831379Y-84240499D01*
X188831383Y-84240500D01*
X188831384Y-84240500D01*
X189018617Y-84240500D01*
X189018618Y-84240499D01*
X189202251Y-84203973D01*
X189375231Y-84132322D01*
X189530908Y-84028302D01*
X189663302Y-83895908D01*
X189767322Y-83740231D01*
X189838973Y-83567251D01*
X189875500Y-83383616D01*
X189875500Y-83196384D01*
X189838973Y-83012749D01*
X189767322Y-82839769D01*
X189767321Y-82839768D01*
X189767318Y-82839762D01*
X189663302Y-82684092D01*
X189663299Y-82684088D01*
X189530911Y-82551700D01*
X189530907Y-82551697D01*
X189375237Y-82447681D01*
X189375228Y-82447676D01*
X189202251Y-82376027D01*
X189202243Y-82376025D01*
X189018620Y-82339500D01*
X189018616Y-82339500D01*
X188831384Y-82339500D01*
X188831379Y-82339500D01*
X188647756Y-82376025D01*
X188647748Y-82376027D01*
X188474771Y-82447676D01*
X188474762Y-82447681D01*
X188319092Y-82551697D01*
X188319088Y-82551700D01*
X188186700Y-82684088D01*
X188186697Y-82684092D01*
X188082681Y-82839762D01*
X188082676Y-82839771D01*
X188011027Y-83012748D01*
X188011025Y-83012756D01*
X187974500Y-83196379D01*
X110747831Y-83196379D01*
X110838302Y-83105908D01*
X110942322Y-82950231D01*
X111013973Y-82777251D01*
X111050500Y-82593616D01*
X111050500Y-82406384D01*
X111013973Y-82222749D01*
X110942322Y-82049769D01*
X110942321Y-82049768D01*
X110942318Y-82049762D01*
X110838302Y-81894092D01*
X110838299Y-81894088D01*
X110705911Y-81761700D01*
X110705907Y-81761697D01*
X110550237Y-81657681D01*
X110550228Y-81657676D01*
X110377251Y-81586027D01*
X110377243Y-81586025D01*
X110193620Y-81549500D01*
X110193616Y-81549500D01*
X110006384Y-81549500D01*
X110006379Y-81549500D01*
X109822756Y-81586025D01*
X109822748Y-81586027D01*
X109649771Y-81657676D01*
X109649762Y-81657681D01*
X109494092Y-81761697D01*
X109494088Y-81761700D01*
X109361700Y-81894088D01*
X109361697Y-81894092D01*
X109257681Y-82049762D01*
X109257676Y-82049771D01*
X109186027Y-82222748D01*
X109186025Y-82222756D01*
X109149500Y-82406379D01*
X100000500Y-82406379D01*
X100000500Y-79890098D01*
X187974500Y-79890098D01*
X187974500Y-81609894D01*
X187974501Y-81609902D01*
X187980330Y-81639212D01*
X188002542Y-81672457D01*
X188019219Y-81683599D01*
X188035787Y-81694669D01*
X188035790Y-81694669D01*
X188035791Y-81694670D01*
X188045647Y-81696630D01*
X188065101Y-81700500D01*
X189784898Y-81700499D01*
X189814213Y-81694669D01*
X189847457Y-81672457D01*
X189869669Y-81639213D01*
X189875500Y-81609899D01*
X189875499Y-79890102D01*
X189869669Y-79860787D01*
X189869668Y-79860785D01*
X189847457Y-79827542D01*
X189814214Y-79805332D01*
X189814215Y-79805332D01*
X189814213Y-79805331D01*
X189814211Y-79805330D01*
X189814208Y-79805329D01*
X189784901Y-79799500D01*
X188065105Y-79799500D01*
X188065097Y-79799501D01*
X188035787Y-79805330D01*
X188002542Y-79827542D01*
X187980332Y-79860785D01*
X187980329Y-79860791D01*
X187974500Y-79890098D01*
X100000500Y-79890098D01*
X100000500Y-69462155D01*
X187575000Y-69462155D01*
X187575000Y-70110000D01*
X188491988Y-70110000D01*
X188459075Y-70167007D01*
X188425000Y-70294174D01*
X188425000Y-70425826D01*
X188459075Y-70552993D01*
X188491988Y-70610000D01*
X187575000Y-70610000D01*
X187575000Y-71257844D01*
X187581401Y-71317372D01*
X187581403Y-71317379D01*
X187631645Y-71452086D01*
X187631649Y-71452093D01*
X187717809Y-71567187D01*
X187717812Y-71567190D01*
X187832906Y-71653350D01*
X187832913Y-71653354D01*
X187967620Y-71703596D01*
X187967627Y-71703598D01*
X188027155Y-71709999D01*
X188027172Y-71710000D01*
X188776438Y-71710000D01*
X188843477Y-71729685D01*
X188889232Y-71782489D01*
X188899176Y-71851647D01*
X188870151Y-71915203D01*
X188811373Y-71952977D01*
X188800629Y-71955617D01*
X188647756Y-71986025D01*
X188647748Y-71986027D01*
X188474771Y-72057676D01*
X188474762Y-72057681D01*
X188319092Y-72161697D01*
X188319088Y-72161700D01*
X188186700Y-72294088D01*
X188186697Y-72294092D01*
X188082681Y-72449762D01*
X188082676Y-72449771D01*
X188011027Y-72622748D01*
X188011025Y-72622756D01*
X187974500Y-72806379D01*
X187974500Y-72993620D01*
X188011025Y-73177243D01*
X188011027Y-73177251D01*
X188082676Y-73350228D01*
X188082681Y-73350237D01*
X188186697Y-73505907D01*
X188186700Y-73505911D01*
X188319088Y-73638299D01*
X188319092Y-73638302D01*
X188474762Y-73742318D01*
X188474768Y-73742321D01*
X188474769Y-73742322D01*
X188647749Y-73813973D01*
X188831379Y-73850499D01*
X188831383Y-73850500D01*
X188831384Y-73850500D01*
X189018617Y-73850500D01*
X189018618Y-73850499D01*
X189202251Y-73813973D01*
X189375231Y-73742322D01*
X189530908Y-73638302D01*
X189663302Y-73505908D01*
X189767322Y-73350231D01*
X189838973Y-73177251D01*
X189875500Y-72993616D01*
X189875500Y-72806384D01*
X189838973Y-72622749D01*
X189767322Y-72449769D01*
X189767321Y-72449768D01*
X189767318Y-72449762D01*
X189663302Y-72294092D01*
X189663299Y-72294088D01*
X189530911Y-72161700D01*
X189530907Y-72161697D01*
X189375237Y-72057681D01*
X189375228Y-72057676D01*
X189202251Y-71986027D01*
X189202243Y-71986025D01*
X189049371Y-71955617D01*
X188987460Y-71923232D01*
X188952886Y-71862517D01*
X188956625Y-71792747D01*
X188997491Y-71736075D01*
X189062510Y-71710494D01*
X189073562Y-71710000D01*
X189822828Y-71710000D01*
X189822844Y-71709999D01*
X189882372Y-71703598D01*
X189882379Y-71703596D01*
X190017086Y-71653354D01*
X190017093Y-71653350D01*
X190132187Y-71567190D01*
X190132190Y-71567187D01*
X190218350Y-71452093D01*
X190218354Y-71452086D01*
X190268596Y-71317379D01*
X190268598Y-71317372D01*
X190274999Y-71257844D01*
X190275000Y-71257827D01*
X190275000Y-70610000D01*
X189358012Y-70610000D01*
X189390925Y-70552993D01*
X189425000Y-70425826D01*
X189425000Y-70294174D01*
X189390925Y-70167007D01*
X189358012Y-70110000D01*
X190275000Y-70110000D01*
X190275000Y-69462172D01*
X190274999Y-69462155D01*
X190268598Y-69402627D01*
X190268596Y-69402620D01*
X190218354Y-69267913D01*
X190218350Y-69267906D01*
X190132190Y-69152812D01*
X190132187Y-69152809D01*
X190017093Y-69066649D01*
X190017086Y-69066645D01*
X189882379Y-69016403D01*
X189882372Y-69016401D01*
X189822844Y-69010000D01*
X189175000Y-69010000D01*
X189175000Y-69926988D01*
X189117993Y-69894075D01*
X188990826Y-69860000D01*
X188859174Y-69860000D01*
X188732007Y-69894075D01*
X188675000Y-69926988D01*
X188675000Y-69010000D01*
X188027155Y-69010000D01*
X187967627Y-69016401D01*
X187967620Y-69016403D01*
X187832913Y-69066645D01*
X187832906Y-69066649D01*
X187717812Y-69152809D01*
X187717809Y-69152812D01*
X187631649Y-69267906D01*
X187631645Y-69267913D01*
X187581403Y-69402620D01*
X187581401Y-69402627D01*
X187575000Y-69462155D01*
X100000500Y-69462155D01*
X100000500Y-61401731D01*
X100000549Y-61398253D01*
X100004913Y-61242722D01*
X108599500Y-61242722D01*
X108599500Y-61557277D01*
X108634716Y-61869827D01*
X108634718Y-61869843D01*
X108704710Y-62176499D01*
X108704711Y-62176501D01*
X108808598Y-62473395D01*
X108945072Y-62756786D01*
X108945074Y-62756789D01*
X109112423Y-63023123D01*
X109308539Y-63269044D01*
X109530956Y-63491461D01*
X109776877Y-63687577D01*
X110043211Y-63854926D01*
X110326606Y-63991402D01*
X110623500Y-64095289D01*
X110930160Y-64165282D01*
X111242723Y-64200499D01*
X111242724Y-64200500D01*
X111242727Y-64200500D01*
X111557276Y-64200500D01*
X111557276Y-64200499D01*
X111869840Y-64165282D01*
X112176500Y-64095289D01*
X112473394Y-63991402D01*
X112756789Y-63854926D01*
X113023123Y-63687577D01*
X113269044Y-63491461D01*
X113491461Y-63269044D01*
X113687577Y-63023123D01*
X113854926Y-62756789D01*
X113991402Y-62473394D01*
X114095289Y-62176500D01*
X114165282Y-61869840D01*
X114200500Y-61557273D01*
X114200500Y-61242727D01*
X114200499Y-61242722D01*
X184799500Y-61242722D01*
X184799500Y-61557277D01*
X184834716Y-61869827D01*
X184834718Y-61869843D01*
X184904710Y-62176499D01*
X184904711Y-62176501D01*
X185008598Y-62473395D01*
X185145072Y-62756786D01*
X185145074Y-62756789D01*
X185312423Y-63023123D01*
X185508539Y-63269044D01*
X185730956Y-63491461D01*
X185976877Y-63687577D01*
X186243211Y-63854926D01*
X186526606Y-63991402D01*
X186823500Y-64095289D01*
X187130160Y-64165282D01*
X187442723Y-64200499D01*
X187442724Y-64200500D01*
X187442727Y-64200500D01*
X187757276Y-64200500D01*
X187757276Y-64200499D01*
X188069840Y-64165282D01*
X188376500Y-64095289D01*
X188673394Y-63991402D01*
X188956789Y-63854926D01*
X189223123Y-63687577D01*
X189469044Y-63491461D01*
X189691461Y-63269044D01*
X189887577Y-63023123D01*
X190054926Y-62756789D01*
X190191402Y-62473394D01*
X190295289Y-62176500D01*
X190365282Y-61869840D01*
X190400500Y-61557273D01*
X190400500Y-61242727D01*
X190365282Y-60930160D01*
X190295289Y-60623500D01*
X190191402Y-60326606D01*
X190054926Y-60043211D01*
X189887577Y-59776877D01*
X189691461Y-59530956D01*
X189469044Y-59308539D01*
X189223123Y-59112423D01*
X188956789Y-58945074D01*
X188956786Y-58945072D01*
X188673395Y-58808598D01*
X188376501Y-58704711D01*
X188376499Y-58704710D01*
X188069843Y-58634718D01*
X188069827Y-58634716D01*
X187757277Y-58599500D01*
X187757273Y-58599500D01*
X187442727Y-58599500D01*
X187442722Y-58599500D01*
X187130172Y-58634716D01*
X187130156Y-58634718D01*
X186823500Y-58704710D01*
X186823498Y-58704711D01*
X186526604Y-58808598D01*
X186243213Y-58945072D01*
X185976878Y-59112422D01*
X185730956Y-59308538D01*
X185508538Y-59530956D01*
X185312422Y-59776878D01*
X185145072Y-60043213D01*
X185008598Y-60326604D01*
X184904711Y-60623498D01*
X184904710Y-60623500D01*
X184834718Y-60930156D01*
X184834716Y-60930172D01*
X184799500Y-61242722D01*
X114200499Y-61242722D01*
X114165282Y-60930160D01*
X114095289Y-60623500D01*
X113991402Y-60326606D01*
X113854926Y-60043211D01*
X113687577Y-59776877D01*
X113491461Y-59530956D01*
X113269044Y-59308539D01*
X113023123Y-59112423D01*
X112756789Y-58945074D01*
X112756786Y-58945072D01*
X112473395Y-58808598D01*
X112176501Y-58704711D01*
X112176499Y-58704710D01*
X111869843Y-58634718D01*
X111869827Y-58634716D01*
X111557277Y-58599500D01*
X111557273Y-58599500D01*
X111242727Y-58599500D01*
X111242722Y-58599500D01*
X110930172Y-58634716D01*
X110930156Y-58634718D01*
X110623500Y-58704710D01*
X110623498Y-58704711D01*
X110326604Y-58808598D01*
X110043213Y-58945072D01*
X109776878Y-59112422D01*
X109530956Y-59308538D01*
X109308538Y-59530956D01*
X109112422Y-59776878D01*
X108945072Y-60043213D01*
X108808598Y-60326604D01*
X108704711Y-60623498D01*
X108704710Y-60623500D01*
X108634718Y-60930156D01*
X108634716Y-60930172D01*
X108599500Y-61242722D01*
X100004913Y-61242722D01*
X100005108Y-61235770D01*
X100013682Y-60930172D01*
X100018336Y-60764284D01*
X100018724Y-60757375D01*
X100071888Y-60127092D01*
X100072660Y-60120244D01*
X100161079Y-59493935D01*
X100162236Y-59487124D01*
X100285634Y-58866765D01*
X100287166Y-58860047D01*
X100445162Y-58247550D01*
X100447073Y-58240918D01*
X100639152Y-57638276D01*
X100641431Y-57631761D01*
X100867006Y-57040817D01*
X100869645Y-57034448D01*
X101127994Y-56457093D01*
X101130989Y-56450875D01*
X101421302Y-55888921D01*
X101424646Y-55882870D01*
X101746010Y-55338077D01*
X101749688Y-55332223D01*
X102101095Y-54806307D01*
X102105098Y-54800666D01*
X102485437Y-54295284D01*
X102489726Y-54289906D01*
X102897823Y-53806620D01*
X102902417Y-53801479D01*
X103336980Y-53341827D01*
X103341827Y-53336980D01*
X103801479Y-52902417D01*
X103806620Y-52897823D01*
X104289906Y-52489726D01*
X104295284Y-52485437D01*
X104800666Y-52105098D01*
X104806307Y-52101095D01*
X105332223Y-51749688D01*
X105338077Y-51746010D01*
X105882870Y-51424646D01*
X105888921Y-51421302D01*
X106450875Y-51130989D01*
X106457093Y-51127994D01*
X107034448Y-50869645D01*
X107040817Y-50867006D01*
X107631761Y-50641431D01*
X107638276Y-50639152D01*
X108240918Y-50447073D01*
X108247550Y-50445162D01*
X108860047Y-50287166D01*
X108866765Y-50285634D01*
X109487124Y-50162236D01*
X109493935Y-50161079D01*
X110120244Y-50072660D01*
X110127092Y-50071888D01*
X110757375Y-50018724D01*
X110764284Y-50018336D01*
X111398254Y-50000549D01*
X111401732Y-50000500D01*
X111465892Y-50000500D01*
X187534108Y-50000500D01*
X187598268Y-50000500D01*
X187601746Y-50000549D01*
G37*
%TD.AperFunction*%
%TD*%
M02*
