%TF.GenerationSoftware,KiCad,Pcbnew,9.0.0-rc1*%
%TF.CreationDate,2025-01-08T18:27:10+01:00*%
%TF.ProjectId,HBST,48425354-2e6b-4696-9361-645f70636258,rev?*%
%TF.SameCoordinates,Original*%
%TF.FileFunction,Other,User*%
%FSLAX46Y46*%
G04 Gerber Fmt 4.6, Leading zero omitted, Abs format (unit mm)*
G04 Created by KiCad (PCBNEW 9.0.0-rc1) date 2025-01-08 18:27:10*
%MOMM*%
%LPD*%
G01*
G04 APERTURE LIST*
%ADD10C,0.050000*%
G04 APERTURE END LIST*
D10*
X99500000Y-49500000D02*
X199500000Y-49500000D01*
X199500000Y-149500000D01*
X99500000Y-149500000D01*
X99500000Y-49500000D01*
%TO.C,U1*%
X154630000Y-104630000D02*
X154630000Y-94370000D01*
X154630000Y-94370000D02*
X144370000Y-94370000D01*
X144370000Y-104630000D02*
X154630000Y-104630000D01*
X144370000Y-94370000D02*
X144370000Y-104630000D01*
%TO.C,H1*%
X116650000Y-61400000D02*
G75*
G02*
X106150000Y-61400000I-5250000J0D01*
G01*
X106150000Y-61400000D02*
G75*
G02*
X116650000Y-61400000I5250000J0D01*
G01*
%TO.C,H2*%
X116650000Y-137600000D02*
G75*
G02*
X106150000Y-137600000I-5250000J0D01*
G01*
X106150000Y-137600000D02*
G75*
G02*
X116650000Y-137600000I5250000J0D01*
G01*
%TO.C,H3*%
X192850000Y-137600000D02*
G75*
G02*
X182350000Y-137600000I-5250000J0D01*
G01*
X182350000Y-137600000D02*
G75*
G02*
X192850000Y-137600000I5250000J0D01*
G01*
%TO.C,H4*%
X192850000Y-61400000D02*
G75*
G02*
X182350000Y-61400000I-5250000J0D01*
G01*
X182350000Y-61400000D02*
G75*
G02*
X192850000Y-61400000I5250000J0D01*
G01*
%TO.C,C2*%
X143700000Y-96780000D02*
X140300000Y-96780000D01*
X143700000Y-94820000D02*
X143700000Y-96780000D01*
X140300000Y-96780000D02*
X140300000Y-94820000D01*
X140300000Y-94820000D02*
X143700000Y-94820000D01*
%TO.C,J6*%
X141800000Y-149450000D02*
X141800000Y-137100000D01*
X141800000Y-137100000D02*
X135650000Y-137100000D01*
X135650000Y-149450000D02*
X141800000Y-149450000D01*
X135650000Y-137100000D02*
X135650000Y-149450000D01*
%TO.C,TP1*%
X147500000Y-93237500D02*
G75*
G02*
X145500000Y-93237500I-1000000J0D01*
G01*
X145500000Y-93237500D02*
G75*
G02*
X147500000Y-93237500I1000000J0D01*
G01*
%TO.C,C16*%
X160880000Y-90950000D02*
X158920000Y-90950000D01*
X160880000Y-87550000D02*
X160880000Y-90950000D01*
X158920000Y-90950000D02*
X158920000Y-87550000D01*
X158920000Y-87550000D02*
X160880000Y-87550000D01*
%TO.C,C9*%
X159750000Y-94180000D02*
X156350000Y-94180000D01*
X159750000Y-92220000D02*
X159750000Y-94180000D01*
X156350000Y-94180000D02*
X156350000Y-92220000D01*
X156350000Y-92220000D02*
X159750000Y-92220000D01*
%TO.C,C7*%
X154680000Y-109450000D02*
X152720000Y-109450000D01*
X154680000Y-106050000D02*
X154680000Y-109450000D01*
X152720000Y-109450000D02*
X152720000Y-106050000D01*
X152720000Y-106050000D02*
X154680000Y-106050000D01*
%TO.C,TP3*%
X151550000Y-93237500D02*
G75*
G02*
X149550000Y-93237500I-1000000J0D01*
G01*
X149550000Y-93237500D02*
G75*
G02*
X151550000Y-93237500I1000000J0D01*
G01*
%TO.C,J3*%
X156100000Y-149475000D02*
X156100000Y-137125000D01*
X156100000Y-137125000D02*
X144900000Y-137125000D01*
X144900000Y-149475000D02*
X156100000Y-149475000D01*
X144900000Y-137125000D02*
X144900000Y-149475000D01*
%TO.C,J1*%
X199475000Y-95250000D02*
X199475000Y-78950000D01*
X199475000Y-78950000D02*
X187125000Y-78950000D01*
X187125000Y-95250000D02*
X199475000Y-95250000D01*
X187125000Y-78950000D02*
X187125000Y-95250000D01*
%TO.C,C15*%
X158900000Y-90900000D02*
X156940000Y-90900000D01*
X158900000Y-87500000D02*
X158900000Y-90900000D01*
X156940000Y-90900000D02*
X156940000Y-87500000D01*
X156940000Y-87500000D02*
X158900000Y-87500000D01*
%TO.C,TP2*%
X149500000Y-93237500D02*
G75*
G02*
X147500000Y-93237500I-1000000J0D01*
G01*
X147500000Y-93237500D02*
G75*
G02*
X149500000Y-93237500I1000000J0D01*
G01*
%TO.C,C13*%
X140780000Y-90900000D02*
X138820000Y-90900000D01*
X140780000Y-87500000D02*
X140780000Y-90900000D01*
X138820000Y-90900000D02*
X138820000Y-87500000D01*
X138820000Y-87500000D02*
X140780000Y-87500000D01*
%TO.C,C3*%
X142700000Y-104480000D02*
X139300000Y-104480000D01*
X142700000Y-102520000D02*
X142700000Y-104480000D01*
X139300000Y-104480000D02*
X139300000Y-102520000D01*
X139300000Y-102520000D02*
X142700000Y-102520000D01*
%TO.C,J7*%
X199475000Y-74710000D02*
X199475000Y-68560000D01*
X199475000Y-68560000D02*
X187125000Y-68560000D01*
X187125000Y-74710000D02*
X199475000Y-74710000D01*
X187125000Y-68560000D02*
X187125000Y-74710000D01*
%TO.C,J2*%
X111900000Y-125940000D02*
X111900000Y-119790000D01*
X111900000Y-119790000D02*
X99550000Y-119790000D01*
X99550000Y-125940000D02*
X111900000Y-125940000D01*
X99550000Y-119790000D02*
X99550000Y-125940000D01*
%TO.C,R1*%
X145550000Y-86362500D02*
X147450000Y-86362500D01*
X145550000Y-90062500D02*
X145550000Y-86362500D01*
X147450000Y-86362500D02*
X147450000Y-90062500D01*
X147450000Y-90062500D02*
X145550000Y-90062500D01*
%TO.C,J8*%
X177140000Y-149450000D02*
X177140000Y-137100000D01*
X177140000Y-137100000D02*
X170990000Y-137100000D01*
X170990000Y-149450000D02*
X177140000Y-149450000D01*
X170990000Y-137100000D02*
X170990000Y-149450000D01*
%TO.C,C12*%
X158450000Y-105080000D02*
X155050000Y-105080000D01*
X158450000Y-103120000D02*
X158450000Y-105080000D01*
X155050000Y-105080000D02*
X155050000Y-103120000D01*
X155050000Y-103120000D02*
X158450000Y-103120000D01*
%TO.C,C8*%
X152680000Y-109450000D02*
X150720000Y-109450000D01*
X152680000Y-106050000D02*
X152680000Y-109450000D01*
X150720000Y-109450000D02*
X150720000Y-106050000D01*
X150720000Y-106050000D02*
X152680000Y-106050000D01*
%TO.C,J5*%
X199450000Y-124000000D02*
X199450000Y-100100000D01*
X199450000Y-100100000D02*
X187100000Y-100100000D01*
X187100000Y-124000000D02*
X199450000Y-124000000D01*
X187100000Y-100100000D02*
X187100000Y-124000000D01*
%TO.C,C11*%
X158500000Y-107080000D02*
X155100000Y-107080000D01*
X158500000Y-105120000D02*
X158500000Y-107080000D01*
X155100000Y-107080000D02*
X155100000Y-105120000D01*
X155100000Y-105120000D02*
X158500000Y-105120000D01*
%TO.C,R2*%
X149550000Y-90037500D02*
X147650000Y-90037500D01*
X149550000Y-86337500D02*
X149550000Y-90037500D01*
X147650000Y-90037500D02*
X147650000Y-86337500D01*
X147650000Y-86337500D02*
X149550000Y-86337500D01*
%TO.C,R4*%
X151500000Y-86337500D02*
X153400000Y-86337500D01*
X151500000Y-90037500D02*
X151500000Y-86337500D01*
X153400000Y-86337500D02*
X153400000Y-90037500D01*
X153400000Y-90037500D02*
X151500000Y-90037500D01*
%TO.C,C14*%
X142780000Y-90850000D02*
X140820000Y-90850000D01*
X142780000Y-87450000D02*
X142780000Y-90850000D01*
X140820000Y-90850000D02*
X140820000Y-87450000D01*
X140820000Y-87450000D02*
X142780000Y-87450000D01*
%TO.C,C4*%
X142750000Y-106480000D02*
X139350000Y-106480000D01*
X142750000Y-104520000D02*
X142750000Y-106480000D01*
X139350000Y-106480000D02*
X139350000Y-104520000D01*
X139350000Y-104520000D02*
X142750000Y-104520000D01*
%TO.C,C10*%
X166850000Y-98180000D02*
X163450000Y-98180000D01*
X166850000Y-96220000D02*
X166850000Y-98180000D01*
X163450000Y-98180000D02*
X163450000Y-96220000D01*
X163450000Y-96220000D02*
X166850000Y-96220000D01*
%TO.C,C1*%
X143700000Y-94780000D02*
X140300000Y-94780000D01*
X143700000Y-92820000D02*
X143700000Y-94780000D01*
X140300000Y-94780000D02*
X140300000Y-92820000D01*
X140300000Y-92820000D02*
X143700000Y-92820000D01*
%TO.C,R3*%
X149550000Y-86337500D02*
X151450000Y-86337500D01*
X149550000Y-90037500D02*
X149550000Y-86337500D01*
X151450000Y-86337500D02*
X151450000Y-90037500D01*
X151450000Y-90037500D02*
X149550000Y-90037500D01*
%TO.C,TP4*%
X153550000Y-93237500D02*
G75*
G02*
X151550000Y-93237500I-1000000J0D01*
G01*
X151550000Y-93237500D02*
G75*
G02*
X153550000Y-93237500I1000000J0D01*
G01*
%TO.C,C6*%
X146880000Y-109350000D02*
X144920000Y-109350000D01*
X146880000Y-105950000D02*
X146880000Y-109350000D01*
X144920000Y-109350000D02*
X144920000Y-105950000D01*
X144920000Y-105950000D02*
X146880000Y-105950000D01*
%TO.C,C5*%
X144880000Y-109350000D02*
X142920000Y-109350000D01*
X144880000Y-105950000D02*
X144880000Y-109350000D01*
X142920000Y-109350000D02*
X142920000Y-105950000D01*
X142920000Y-105950000D02*
X144880000Y-105950000D01*
%TO.C,JP2*%
X189900000Y-127150000D02*
X189900000Y-126150000D01*
X189900000Y-126150000D02*
X189250000Y-125500000D01*
X189250000Y-127800000D02*
X189900000Y-127150000D01*
X189250000Y-125500000D02*
X185450000Y-125500000D01*
X185450000Y-127800000D02*
X189250000Y-127800000D01*
X185450000Y-125500000D02*
X184800000Y-126150000D01*
X184800000Y-127150000D02*
X185450000Y-127800000D01*
X184800000Y-126150000D02*
X184800000Y-127150000D01*
%TO.C,J4*%
X111900000Y-114780000D02*
X111900000Y-80730000D01*
X111900000Y-80730000D02*
X99550000Y-80730000D01*
X99550000Y-114780000D02*
X111900000Y-114780000D01*
X99550000Y-80730000D02*
X99550000Y-114780000D01*
%TD*%
M02*
