%TF.GenerationSoftware,KiCad,Pcbnew,9.0.0-rc1*%
%TF.CreationDate,2025-01-08T18:27:09+01:00*%
%TF.ProjectId,HBST,48425354-2e6b-4696-9361-645f70636258,rev?*%
%TF.SameCoordinates,Original*%
%TF.FileFunction,Soldermask,Top*%
%TF.FilePolarity,Negative*%
%FSLAX46Y46*%
G04 Gerber Fmt 4.6, Leading zero omitted, Abs format (unit mm)*
G04 Created by KiCad (PCBNEW 9.0.0-rc1) date 2025-01-08 18:27:09*
%MOMM*%
%LPD*%
G01*
G04 APERTURE LIST*
G04 Aperture macros list*
%AMRoundRect*
0 Rectangle with rounded corners*
0 $1 Rounding radius*
0 $2 $3 $4 $5 $6 $7 $8 $9 X,Y pos of 4 corners*
0 Add a 4 corners polygon primitive as box body*
4,1,4,$2,$3,$4,$5,$6,$7,$8,$9,$2,$3,0*
0 Add four circle primitives for the rounded corners*
1,1,$1+$1,$2,$3*
1,1,$1+$1,$4,$5*
1,1,$1+$1,$6,$7*
1,1,$1+$1,$8,$9*
0 Add four rect primitives between the rounded corners*
20,1,$1+$1,$2,$3,$4,$5,0*
20,1,$1+$1,$4,$5,$6,$7,0*
20,1,$1+$1,$6,$7,$8,$9,0*
20,1,$1+$1,$8,$9,$2,$3,0*%
G04 Aperture macros list end*
%ADD10R,6.000000X6.000000*%
%ADD11RoundRect,0.062500X-0.062500X-0.375000X0.062500X-0.375000X0.062500X0.375000X-0.062500X0.375000X0*%
%ADD12RoundRect,0.062500X-0.375000X-0.062500X0.375000X-0.062500X0.375000X0.062500X-0.375000X0.062500X0*%
%ADD13C,10.000000*%
%ADD14C,5.400000*%
%ADD15RoundRect,0.250000X-0.250000X-0.475000X0.250000X-0.475000X0.250000X0.475000X-0.250000X0.475000X0*%
%ADD16O,1.700000X1.700000*%
%ADD17R,1.700000X1.700000*%
%ADD18C,1.000000*%
%ADD19RoundRect,0.250000X0.475000X-0.250000X0.475000X0.250000X-0.475000X0.250000X-0.475000X-0.250000X0*%
%ADD20RoundRect,0.250000X-0.475000X0.250000X-0.475000X-0.250000X0.475000X-0.250000X0.475000X0.250000X0*%
%ADD21RoundRect,0.250000X0.450000X-0.350000X0.450000X0.350000X-0.450000X0.350000X-0.450000X-0.350000X0*%
%ADD22RoundRect,0.250000X0.250000X0.475000X-0.250000X0.475000X-0.250000X-0.475000X0.250000X-0.475000X0*%
%ADD23C,1.400000*%
G04 APERTURE END LIST*
D10*
%TO.C,U1*%
X149500000Y-99500000D03*
D11*
X145750000Y-95062500D03*
X146250000Y-95062500D03*
X146750000Y-95062500D03*
X147250000Y-95062500D03*
X147750000Y-95062500D03*
X148250000Y-95062500D03*
X148750000Y-95062500D03*
X149250000Y-95062500D03*
X149750000Y-95062500D03*
X150250000Y-95062500D03*
X150750000Y-95062500D03*
X151250000Y-95062500D03*
X151750000Y-95062500D03*
X152250000Y-95062500D03*
X152750000Y-95062500D03*
X153250000Y-95062500D03*
D12*
X153937500Y-95750000D03*
X153937500Y-96250000D03*
X153937500Y-96750000D03*
X153937500Y-97250000D03*
X153937500Y-97750000D03*
X153937500Y-98250000D03*
X153937500Y-98750000D03*
X153937500Y-99250000D03*
X153937500Y-99750000D03*
X153937500Y-100250000D03*
X153937500Y-100750000D03*
X153937500Y-101250000D03*
X153937500Y-101750000D03*
X153937500Y-102250000D03*
X153937500Y-102750000D03*
X153937500Y-103250000D03*
D11*
X153250000Y-103937500D03*
X152750000Y-103937500D03*
X152250000Y-103937500D03*
X151750000Y-103937500D03*
X151250000Y-103937500D03*
X150750000Y-103937500D03*
X150250000Y-103937500D03*
X149750000Y-103937500D03*
X149250000Y-103937500D03*
X148750000Y-103937500D03*
X148250000Y-103937500D03*
X147750000Y-103937500D03*
X147250000Y-103937500D03*
X146750000Y-103937500D03*
X146250000Y-103937500D03*
X145750000Y-103937500D03*
D12*
X145062500Y-103250000D03*
X145062500Y-102750000D03*
X145062500Y-102250000D03*
X145062500Y-101750000D03*
X145062500Y-101250000D03*
X145062500Y-100750000D03*
X145062500Y-100250000D03*
X145062500Y-99750000D03*
X145062500Y-99250000D03*
X145062500Y-98750000D03*
X145062500Y-98250000D03*
X145062500Y-97750000D03*
X145062500Y-97250000D03*
X145062500Y-96750000D03*
X145062500Y-96250000D03*
X145062500Y-95750000D03*
%TD*%
D13*
%TO.C,H1*%
X111400000Y-61400000D03*
D14*
X111400000Y-61400000D03*
%TD*%
D13*
%TO.C,H2*%
X111400000Y-137600000D03*
D14*
X111400000Y-137600000D03*
%TD*%
D13*
%TO.C,H3*%
X187600000Y-137600000D03*
D14*
X187600000Y-137600000D03*
%TD*%
D13*
%TO.C,H4*%
X187600000Y-61400000D03*
D14*
X187600000Y-61400000D03*
%TD*%
D15*
%TO.C,C2*%
X142950000Y-95800000D03*
X141050000Y-95800000D03*
%TD*%
D16*
%TO.C,J6*%
X137460000Y-138900000D03*
D17*
X140000000Y-138900000D03*
%TD*%
D18*
%TO.C,TP1*%
X146500000Y-93237500D03*
%TD*%
D19*
%TO.C,C16*%
X159900000Y-88300000D03*
X159900000Y-90200000D03*
%TD*%
D15*
%TO.C,C9*%
X159000000Y-93200000D03*
X157100000Y-93200000D03*
%TD*%
D20*
%TO.C,C7*%
X153700000Y-108700000D03*
X153700000Y-106800000D03*
%TD*%
D18*
%TO.C,TP3*%
X150550000Y-93237500D03*
%TD*%
D16*
%TO.C,J3*%
X146680000Y-138925000D03*
X149220000Y-138925000D03*
X151760000Y-138925000D03*
D17*
X154300000Y-138925000D03*
%TD*%
D16*
%TO.C,J1*%
X188925000Y-93450000D03*
X188925000Y-90910000D03*
X188925000Y-88370000D03*
X188925000Y-85830000D03*
X188925000Y-83290000D03*
D17*
X188925000Y-80750000D03*
%TD*%
D19*
%TO.C,C15*%
X157920000Y-88250000D03*
X157920000Y-90150000D03*
%TD*%
D18*
%TO.C,TP2*%
X148500000Y-93237500D03*
%TD*%
D19*
%TO.C,C13*%
X139800000Y-88250000D03*
X139800000Y-90150000D03*
%TD*%
D15*
%TO.C,C3*%
X141950000Y-103500000D03*
X140050000Y-103500000D03*
%TD*%
D16*
%TO.C,J7*%
X188925000Y-72900000D03*
D17*
X188925000Y-70360000D03*
%TD*%
D16*
%TO.C,J2*%
X110100000Y-121600000D03*
D17*
X110100000Y-124140000D03*
%TD*%
D21*
%TO.C,R1*%
X146500000Y-89212500D03*
X146500000Y-87212500D03*
%TD*%
D16*
%TO.C,J8*%
X172800000Y-138900000D03*
D17*
X175340000Y-138900000D03*
%TD*%
D15*
%TO.C,C12*%
X157700000Y-104100000D03*
X155800000Y-104100000D03*
%TD*%
D20*
%TO.C,C8*%
X151700000Y-108700000D03*
X151700000Y-106800000D03*
%TD*%
D16*
%TO.C,J5*%
X188900000Y-122220000D03*
X188900000Y-119680000D03*
X188900000Y-117140000D03*
X188900000Y-114600000D03*
X188900000Y-112060000D03*
X188900000Y-109520000D03*
X188900000Y-106980000D03*
X188900000Y-104440000D03*
D17*
X188900000Y-101900000D03*
%TD*%
D15*
%TO.C,C11*%
X157750000Y-106100000D03*
X155850000Y-106100000D03*
%TD*%
D21*
%TO.C,R2*%
X148600000Y-87187500D03*
X148600000Y-89187500D03*
%TD*%
%TO.C,R4*%
X152450000Y-89187500D03*
X152450000Y-87187500D03*
%TD*%
D19*
%TO.C,C14*%
X141800000Y-88200000D03*
X141800000Y-90100000D03*
%TD*%
D15*
%TO.C,C4*%
X142000000Y-105500000D03*
X140100000Y-105500000D03*
%TD*%
%TO.C,C10*%
X166100000Y-97200000D03*
X164200000Y-97200000D03*
%TD*%
D22*
%TO.C,C1*%
X141050000Y-93800000D03*
X142950000Y-93800000D03*
%TD*%
D21*
%TO.C,R3*%
X150500000Y-89187500D03*
X150500000Y-87187500D03*
%TD*%
D18*
%TO.C,TP4*%
X152550000Y-93237500D03*
%TD*%
D19*
%TO.C,C6*%
X145900000Y-106700000D03*
X145900000Y-108600000D03*
%TD*%
%TO.C,C5*%
X143900000Y-106700000D03*
X143900000Y-108600000D03*
%TD*%
D23*
%TO.C,JP2*%
X188640000Y-126650000D03*
X186100000Y-126650000D03*
%TD*%
D16*
%TO.C,J4*%
X110100000Y-82500000D03*
X110100000Y-85040000D03*
X110100000Y-87580000D03*
X110100000Y-90120000D03*
X110100000Y-92660000D03*
X110100000Y-95200000D03*
X110100000Y-97740000D03*
X110100000Y-100280000D03*
X110100000Y-102820000D03*
X110100000Y-105360000D03*
X110100000Y-107900000D03*
X110100000Y-110440000D03*
D17*
X110100000Y-112980000D03*
%TD*%
M02*
