%TF.GenerationSoftware,KiCad,Pcbnew,9.0.0-rc1*%
%TF.CreationDate,2025-01-08T18:27:06+01:00*%
%TF.ProjectId,HBST,48425354-2e6b-4696-9361-645f70636258,rev?*%
%TF.SameCoordinates,Original*%
%TF.FileFunction,Drillmap*%
%TF.FilePolarity,Positive*%
%FSLAX45Y45*%
G04 Gerber Fmt 4.5, Leading zero omitted, Abs format (unit mm)*
G04 Created by KiCad (PCBNEW 9.0.0-rc1) date 2025-01-08 18:27:06*
%MOMM*%
%LPD*%
G01*
G04 APERTURE LIST*
%ADD10C,0.050000*%
%ADD11C,0.200000*%
%ADD12C,0.100000*%
%ADD13C,0.500000*%
G04 APERTURE END LIST*
D10*
X18760000Y-4950000D02*
G75*
G02*
X19950000Y-6140000I0J-1190000D01*
G01*
X18760000Y-4950000D02*
X11140000Y-4950000D01*
X19950000Y-13760000D02*
X19950000Y-6140000D01*
X9950000Y-6140000D02*
G75*
G02*
X11140000Y-4950000I1190000J0D01*
G01*
X9950000Y-6140000D02*
X9950000Y-13760000D01*
X19950000Y-13760000D02*
G75*
G02*
X18760000Y-14950000I-1190000J0D01*
G01*
X11140000Y-14950000D02*
G75*
G02*
X9950000Y-13760000I0J1190000D01*
G01*
X11140000Y-14950000D02*
X18760000Y-14950000D01*
D11*
D12*
X13785000Y-8855000D02*
X13815000Y-8885000D01*
X13815000Y-8855000D02*
X13785000Y-8885000D01*
X13960000Y-9335000D02*
X13990000Y-9365000D01*
X13990000Y-9335000D02*
X13960000Y-9365000D01*
X14310000Y-10335000D02*
X14340000Y-10365000D01*
X14340000Y-10335000D02*
X14310000Y-10365000D01*
X14910000Y-10510000D02*
X14940000Y-10540000D01*
X14940000Y-10510000D02*
X14910000Y-10540000D01*
X14935000Y-9935000D02*
X14965000Y-9965000D01*
X14965000Y-9935000D02*
X14935000Y-9965000D01*
X15515000Y-10925000D02*
X15545000Y-10955000D01*
X15545000Y-10925000D02*
X15515000Y-10955000D01*
X15805000Y-10765000D02*
X15835000Y-10795000D01*
X15835000Y-10765000D02*
X15805000Y-10795000D01*
X16065000Y-9225000D02*
X16095000Y-9255000D01*
X16095000Y-9225000D02*
X16065000Y-9255000D01*
X16175000Y-8835000D02*
X16205000Y-8865000D01*
X16205000Y-8835000D02*
X16175000Y-8865000D01*
X16595000Y-9555000D02*
X16625000Y-9585000D01*
X16625000Y-9555000D02*
X16595000Y-9585000D01*
X18650000Y-12665000D02*
G75*
G02*
X18570000Y-12665000I-40000J0D01*
G01*
X18570000Y-12665000D02*
G75*
G02*
X18650000Y-12665000I40000J0D01*
G01*
X18904000Y-12665000D02*
G75*
G02*
X18824000Y-12665000I-40000J0D01*
G01*
X18824000Y-12665000D02*
G75*
G02*
X18904000Y-12665000I40000J0D01*
G01*
X11010000Y-8200000D02*
X11010000Y-8300000D01*
X10960000Y-8250000D02*
X11060000Y-8250000D01*
X11010000Y-8454000D02*
X11010000Y-8554000D01*
X10960000Y-8504000D02*
X11060000Y-8504000D01*
X11010000Y-8708000D02*
X11010000Y-8808000D01*
X10960000Y-8758000D02*
X11060000Y-8758000D01*
X11010000Y-8962000D02*
X11010000Y-9062000D01*
X10960000Y-9012000D02*
X11060000Y-9012000D01*
X11010000Y-9216000D02*
X11010000Y-9316000D01*
X10960000Y-9266000D02*
X11060000Y-9266000D01*
X11010000Y-9470000D02*
X11010000Y-9570000D01*
X10960000Y-9520000D02*
X11060000Y-9520000D01*
X11010000Y-9724000D02*
X11010000Y-9824000D01*
X10960000Y-9774000D02*
X11060000Y-9774000D01*
X11010000Y-9978000D02*
X11010000Y-10078000D01*
X10960000Y-10028000D02*
X11060000Y-10028000D01*
X11010000Y-10232000D02*
X11010000Y-10332000D01*
X10960000Y-10282000D02*
X11060000Y-10282000D01*
X11010000Y-10486000D02*
X11010000Y-10586000D01*
X10960000Y-10536000D02*
X11060000Y-10536000D01*
X11010000Y-10740000D02*
X11010000Y-10840000D01*
X10960000Y-10790000D02*
X11060000Y-10790000D01*
X11010000Y-10994000D02*
X11010000Y-11094000D01*
X10960000Y-11044000D02*
X11060000Y-11044000D01*
X11010000Y-11248000D02*
X11010000Y-11348000D01*
X10960000Y-11298000D02*
X11060000Y-11298000D01*
X11010000Y-12110000D02*
X11010000Y-12210000D01*
X10960000Y-12160000D02*
X11060000Y-12160000D01*
X11010000Y-12364000D02*
X11010000Y-12464000D01*
X10960000Y-12414000D02*
X11060000Y-12414000D01*
X13746000Y-13840000D02*
X13746000Y-13940000D01*
X13696000Y-13890000D02*
X13796000Y-13890000D01*
X14000000Y-13840000D02*
X14000000Y-13940000D01*
X13950000Y-13890000D02*
X14050000Y-13890000D01*
X14668000Y-13842500D02*
X14668000Y-13942500D01*
X14618000Y-13892500D02*
X14718000Y-13892500D01*
X14922000Y-13842500D02*
X14922000Y-13942500D01*
X14872000Y-13892500D02*
X14972000Y-13892500D01*
X15176000Y-13842500D02*
X15176000Y-13942500D01*
X15126000Y-13892500D02*
X15226000Y-13892500D01*
X15430000Y-13842500D02*
X15430000Y-13942500D01*
X15380000Y-13892500D02*
X15480000Y-13892500D01*
X17280000Y-13840000D02*
X17280000Y-13940000D01*
X17230000Y-13890000D02*
X17330000Y-13890000D01*
X17534000Y-13840000D02*
X17534000Y-13940000D01*
X17484000Y-13890000D02*
X17584000Y-13890000D01*
X18890000Y-10140000D02*
X18890000Y-10240000D01*
X18840000Y-10190000D02*
X18940000Y-10190000D01*
X18890000Y-10394000D02*
X18890000Y-10494000D01*
X18840000Y-10444000D02*
X18940000Y-10444000D01*
X18890000Y-10648000D02*
X18890000Y-10748000D01*
X18840000Y-10698000D02*
X18940000Y-10698000D01*
X18890000Y-10902000D02*
X18890000Y-11002000D01*
X18840000Y-10952000D02*
X18940000Y-10952000D01*
X18890000Y-11156000D02*
X18890000Y-11256000D01*
X18840000Y-11206000D02*
X18940000Y-11206000D01*
X18890000Y-11410000D02*
X18890000Y-11510000D01*
X18840000Y-11460000D02*
X18940000Y-11460000D01*
X18890000Y-11664000D02*
X18890000Y-11764000D01*
X18840000Y-11714000D02*
X18940000Y-11714000D01*
X18890000Y-11918000D02*
X18890000Y-12018000D01*
X18840000Y-11968000D02*
X18940000Y-11968000D01*
X18890000Y-12172000D02*
X18890000Y-12272000D01*
X18840000Y-12222000D02*
X18940000Y-12222000D01*
X18892500Y-6986000D02*
X18892500Y-7086000D01*
X18842500Y-7036000D02*
X18942500Y-7036000D01*
X18892500Y-7240000D02*
X18892500Y-7340000D01*
X18842500Y-7290000D02*
X18942500Y-7290000D01*
X18892500Y-8025000D02*
X18892500Y-8125000D01*
X18842500Y-8075000D02*
X18942500Y-8075000D01*
X18892500Y-8279000D02*
X18892500Y-8379000D01*
X18842500Y-8329000D02*
X18942500Y-8329000D01*
X18892500Y-8533000D02*
X18892500Y-8633000D01*
X18842500Y-8583000D02*
X18942500Y-8583000D01*
X18892500Y-8787000D02*
X18892500Y-8887000D01*
X18842500Y-8837000D02*
X18942500Y-8837000D01*
X18892500Y-9041000D02*
X18892500Y-9141000D01*
X18842500Y-9091000D02*
X18942500Y-9091000D01*
X18892500Y-9295000D02*
X18892500Y-9395000D01*
X18842500Y-9345000D02*
X18942500Y-9345000D01*
D13*
X11316778Y-6316778D02*
X11316778Y-5963222D01*
X10963222Y-5963222D01*
X10963222Y-6316778D01*
X11316778Y-6316778D01*
X11316778Y-13936778D02*
X11316778Y-13583222D01*
X10963222Y-13583222D01*
X10963222Y-13936778D01*
X11316778Y-13936778D01*
X18936778Y-6316778D02*
X18936778Y-5963222D01*
X18583222Y-5963222D01*
X18583222Y-6316778D01*
X18936778Y-6316778D01*
X18936778Y-13936778D02*
X18936778Y-13583222D01*
X18583222Y-13583222D01*
X18583222Y-13936778D01*
X18936778Y-13936778D01*
D11*
X10208277Y-15263984D02*
X10208277Y-15063984D01*
X10208277Y-15063984D02*
X10255896Y-15063984D01*
X10255896Y-15063984D02*
X10284467Y-15073508D01*
X10284467Y-15073508D02*
X10303515Y-15092555D01*
X10303515Y-15092555D02*
X10313039Y-15111603D01*
X10313039Y-15111603D02*
X10322563Y-15149698D01*
X10322563Y-15149698D02*
X10322563Y-15178269D01*
X10322563Y-15178269D02*
X10313039Y-15216365D01*
X10313039Y-15216365D02*
X10303515Y-15235412D01*
X10303515Y-15235412D02*
X10284467Y-15254460D01*
X10284467Y-15254460D02*
X10255896Y-15263984D01*
X10255896Y-15263984D02*
X10208277Y-15263984D01*
X10408277Y-15263984D02*
X10408277Y-15130650D01*
X10408277Y-15168746D02*
X10417801Y-15149698D01*
X10417801Y-15149698D02*
X10427324Y-15140174D01*
X10427324Y-15140174D02*
X10446372Y-15130650D01*
X10446372Y-15130650D02*
X10465420Y-15130650D01*
X10532086Y-15263984D02*
X10532086Y-15130650D01*
X10532086Y-15063984D02*
X10522563Y-15073508D01*
X10522563Y-15073508D02*
X10532086Y-15083031D01*
X10532086Y-15083031D02*
X10541610Y-15073508D01*
X10541610Y-15073508D02*
X10532086Y-15063984D01*
X10532086Y-15063984D02*
X10532086Y-15083031D01*
X10655896Y-15263984D02*
X10636848Y-15254460D01*
X10636848Y-15254460D02*
X10627324Y-15235412D01*
X10627324Y-15235412D02*
X10627324Y-15063984D01*
X10760658Y-15263984D02*
X10741610Y-15254460D01*
X10741610Y-15254460D02*
X10732086Y-15235412D01*
X10732086Y-15235412D02*
X10732086Y-15063984D01*
X10989229Y-15263984D02*
X10989229Y-15063984D01*
X10989229Y-15063984D02*
X11055896Y-15206841D01*
X11055896Y-15206841D02*
X11122563Y-15063984D01*
X11122563Y-15063984D02*
X11122563Y-15263984D01*
X11303515Y-15263984D02*
X11303515Y-15159222D01*
X11303515Y-15159222D02*
X11293991Y-15140174D01*
X11293991Y-15140174D02*
X11274943Y-15130650D01*
X11274943Y-15130650D02*
X11236848Y-15130650D01*
X11236848Y-15130650D02*
X11217801Y-15140174D01*
X11303515Y-15254460D02*
X11284467Y-15263984D01*
X11284467Y-15263984D02*
X11236848Y-15263984D01*
X11236848Y-15263984D02*
X11217801Y-15254460D01*
X11217801Y-15254460D02*
X11208277Y-15235412D01*
X11208277Y-15235412D02*
X11208277Y-15216365D01*
X11208277Y-15216365D02*
X11217801Y-15197317D01*
X11217801Y-15197317D02*
X11236848Y-15187793D01*
X11236848Y-15187793D02*
X11284467Y-15187793D01*
X11284467Y-15187793D02*
X11303515Y-15178269D01*
X11398753Y-15130650D02*
X11398753Y-15330650D01*
X11398753Y-15140174D02*
X11417801Y-15130650D01*
X11417801Y-15130650D02*
X11455896Y-15130650D01*
X11455896Y-15130650D02*
X11474943Y-15140174D01*
X11474943Y-15140174D02*
X11484467Y-15149698D01*
X11484467Y-15149698D02*
X11493991Y-15168746D01*
X11493991Y-15168746D02*
X11493991Y-15225888D01*
X11493991Y-15225888D02*
X11484467Y-15244936D01*
X11484467Y-15244936D02*
X11474943Y-15254460D01*
X11474943Y-15254460D02*
X11455896Y-15263984D01*
X11455896Y-15263984D02*
X11417801Y-15263984D01*
X11417801Y-15263984D02*
X11398753Y-15254460D01*
X11579705Y-15244936D02*
X11589229Y-15254460D01*
X11589229Y-15254460D02*
X11579705Y-15263984D01*
X11579705Y-15263984D02*
X11570182Y-15254460D01*
X11570182Y-15254460D02*
X11579705Y-15244936D01*
X11579705Y-15244936D02*
X11579705Y-15263984D01*
X11579705Y-15140174D02*
X11589229Y-15149698D01*
X11589229Y-15149698D02*
X11579705Y-15159222D01*
X11579705Y-15159222D02*
X11570182Y-15149698D01*
X11570182Y-15149698D02*
X11579705Y-15140174D01*
X11579705Y-15140174D02*
X11579705Y-15159222D01*
D12*
X9917500Y-15577500D02*
X9947500Y-15607500D01*
X9947500Y-15577500D02*
X9917500Y-15607500D01*
D11*
X10246372Y-15483984D02*
X10265420Y-15483984D01*
X10265420Y-15483984D02*
X10284467Y-15493508D01*
X10284467Y-15493508D02*
X10293991Y-15503031D01*
X10293991Y-15503031D02*
X10303515Y-15522079D01*
X10303515Y-15522079D02*
X10313039Y-15560174D01*
X10313039Y-15560174D02*
X10313039Y-15607793D01*
X10313039Y-15607793D02*
X10303515Y-15645888D01*
X10303515Y-15645888D02*
X10293991Y-15664936D01*
X10293991Y-15664936D02*
X10284467Y-15674460D01*
X10284467Y-15674460D02*
X10265420Y-15683984D01*
X10265420Y-15683984D02*
X10246372Y-15683984D01*
X10246372Y-15683984D02*
X10227324Y-15674460D01*
X10227324Y-15674460D02*
X10217801Y-15664936D01*
X10217801Y-15664936D02*
X10208277Y-15645888D01*
X10208277Y-15645888D02*
X10198753Y-15607793D01*
X10198753Y-15607793D02*
X10198753Y-15560174D01*
X10198753Y-15560174D02*
X10208277Y-15522079D01*
X10208277Y-15522079D02*
X10217801Y-15503031D01*
X10217801Y-15503031D02*
X10227324Y-15493508D01*
X10227324Y-15493508D02*
X10246372Y-15483984D01*
X10398753Y-15664936D02*
X10408277Y-15674460D01*
X10408277Y-15674460D02*
X10398753Y-15683984D01*
X10398753Y-15683984D02*
X10389229Y-15674460D01*
X10389229Y-15674460D02*
X10398753Y-15664936D01*
X10398753Y-15664936D02*
X10398753Y-15683984D01*
X10474944Y-15483984D02*
X10598753Y-15483984D01*
X10598753Y-15483984D02*
X10532086Y-15560174D01*
X10532086Y-15560174D02*
X10560658Y-15560174D01*
X10560658Y-15560174D02*
X10579705Y-15569698D01*
X10579705Y-15569698D02*
X10589229Y-15579222D01*
X10589229Y-15579222D02*
X10598753Y-15598269D01*
X10598753Y-15598269D02*
X10598753Y-15645888D01*
X10598753Y-15645888D02*
X10589229Y-15664936D01*
X10589229Y-15664936D02*
X10579705Y-15674460D01*
X10579705Y-15674460D02*
X10560658Y-15683984D01*
X10560658Y-15683984D02*
X10503515Y-15683984D01*
X10503515Y-15683984D02*
X10484467Y-15674460D01*
X10484467Y-15674460D02*
X10474944Y-15664936D01*
X10722563Y-15483984D02*
X10741610Y-15483984D01*
X10741610Y-15483984D02*
X10760658Y-15493508D01*
X10760658Y-15493508D02*
X10770182Y-15503031D01*
X10770182Y-15503031D02*
X10779705Y-15522079D01*
X10779705Y-15522079D02*
X10789229Y-15560174D01*
X10789229Y-15560174D02*
X10789229Y-15607793D01*
X10789229Y-15607793D02*
X10779705Y-15645888D01*
X10779705Y-15645888D02*
X10770182Y-15664936D01*
X10770182Y-15664936D02*
X10760658Y-15674460D01*
X10760658Y-15674460D02*
X10741610Y-15683984D01*
X10741610Y-15683984D02*
X10722563Y-15683984D01*
X10722563Y-15683984D02*
X10703515Y-15674460D01*
X10703515Y-15674460D02*
X10693991Y-15664936D01*
X10693991Y-15664936D02*
X10684467Y-15645888D01*
X10684467Y-15645888D02*
X10674944Y-15607793D01*
X10674944Y-15607793D02*
X10674944Y-15560174D01*
X10674944Y-15560174D02*
X10684467Y-15522079D01*
X10684467Y-15522079D02*
X10693991Y-15503031D01*
X10693991Y-15503031D02*
X10703515Y-15493508D01*
X10703515Y-15493508D02*
X10722563Y-15483984D01*
X10913039Y-15483984D02*
X10932086Y-15483984D01*
X10932086Y-15483984D02*
X10951134Y-15493508D01*
X10951134Y-15493508D02*
X10960658Y-15503031D01*
X10960658Y-15503031D02*
X10970182Y-15522079D01*
X10970182Y-15522079D02*
X10979705Y-15560174D01*
X10979705Y-15560174D02*
X10979705Y-15607793D01*
X10979705Y-15607793D02*
X10970182Y-15645888D01*
X10970182Y-15645888D02*
X10960658Y-15664936D01*
X10960658Y-15664936D02*
X10951134Y-15674460D01*
X10951134Y-15674460D02*
X10932086Y-15683984D01*
X10932086Y-15683984D02*
X10913039Y-15683984D01*
X10913039Y-15683984D02*
X10893991Y-15674460D01*
X10893991Y-15674460D02*
X10884467Y-15664936D01*
X10884467Y-15664936D02*
X10874944Y-15645888D01*
X10874944Y-15645888D02*
X10865420Y-15607793D01*
X10865420Y-15607793D02*
X10865420Y-15560174D01*
X10865420Y-15560174D02*
X10874944Y-15522079D01*
X10874944Y-15522079D02*
X10884467Y-15503031D01*
X10884467Y-15503031D02*
X10893991Y-15493508D01*
X10893991Y-15493508D02*
X10913039Y-15483984D01*
X11065420Y-15683984D02*
X11065420Y-15550650D01*
X11065420Y-15569698D02*
X11074944Y-15560174D01*
X11074944Y-15560174D02*
X11093991Y-15550650D01*
X11093991Y-15550650D02*
X11122563Y-15550650D01*
X11122563Y-15550650D02*
X11141610Y-15560174D01*
X11141610Y-15560174D02*
X11151134Y-15579222D01*
X11151134Y-15579222D02*
X11151134Y-15683984D01*
X11151134Y-15579222D02*
X11160658Y-15560174D01*
X11160658Y-15560174D02*
X11179705Y-15550650D01*
X11179705Y-15550650D02*
X11208277Y-15550650D01*
X11208277Y-15550650D02*
X11227324Y-15560174D01*
X11227324Y-15560174D02*
X11236848Y-15579222D01*
X11236848Y-15579222D02*
X11236848Y-15683984D01*
X11332086Y-15683984D02*
X11332086Y-15550650D01*
X11332086Y-15569698D02*
X11341610Y-15560174D01*
X11341610Y-15560174D02*
X11360658Y-15550650D01*
X11360658Y-15550650D02*
X11389229Y-15550650D01*
X11389229Y-15550650D02*
X11408277Y-15560174D01*
X11408277Y-15560174D02*
X11417801Y-15579222D01*
X11417801Y-15579222D02*
X11417801Y-15683984D01*
X11417801Y-15579222D02*
X11427324Y-15560174D01*
X11427324Y-15560174D02*
X11446372Y-15550650D01*
X11446372Y-15550650D02*
X11474943Y-15550650D01*
X11474943Y-15550650D02*
X11493991Y-15560174D01*
X11493991Y-15560174D02*
X11503515Y-15579222D01*
X11503515Y-15579222D02*
X11503515Y-15683984D01*
X11893991Y-15474460D02*
X11722563Y-15731603D01*
X12151134Y-15483984D02*
X12170182Y-15483984D01*
X12170182Y-15483984D02*
X12189229Y-15493508D01*
X12189229Y-15493508D02*
X12198753Y-15503031D01*
X12198753Y-15503031D02*
X12208277Y-15522079D01*
X12208277Y-15522079D02*
X12217801Y-15560174D01*
X12217801Y-15560174D02*
X12217801Y-15607793D01*
X12217801Y-15607793D02*
X12208277Y-15645888D01*
X12208277Y-15645888D02*
X12198753Y-15664936D01*
X12198753Y-15664936D02*
X12189229Y-15674460D01*
X12189229Y-15674460D02*
X12170182Y-15683984D01*
X12170182Y-15683984D02*
X12151134Y-15683984D01*
X12151134Y-15683984D02*
X12132086Y-15674460D01*
X12132086Y-15674460D02*
X12122563Y-15664936D01*
X12122563Y-15664936D02*
X12113039Y-15645888D01*
X12113039Y-15645888D02*
X12103515Y-15607793D01*
X12103515Y-15607793D02*
X12103515Y-15560174D01*
X12103515Y-15560174D02*
X12113039Y-15522079D01*
X12113039Y-15522079D02*
X12122563Y-15503031D01*
X12122563Y-15503031D02*
X12132086Y-15493508D01*
X12132086Y-15493508D02*
X12151134Y-15483984D01*
X12303515Y-15664936D02*
X12313039Y-15674460D01*
X12313039Y-15674460D02*
X12303515Y-15683984D01*
X12303515Y-15683984D02*
X12293991Y-15674460D01*
X12293991Y-15674460D02*
X12303515Y-15664936D01*
X12303515Y-15664936D02*
X12303515Y-15683984D01*
X12436848Y-15483984D02*
X12455896Y-15483984D01*
X12455896Y-15483984D02*
X12474944Y-15493508D01*
X12474944Y-15493508D02*
X12484467Y-15503031D01*
X12484467Y-15503031D02*
X12493991Y-15522079D01*
X12493991Y-15522079D02*
X12503515Y-15560174D01*
X12503515Y-15560174D02*
X12503515Y-15607793D01*
X12503515Y-15607793D02*
X12493991Y-15645888D01*
X12493991Y-15645888D02*
X12484467Y-15664936D01*
X12484467Y-15664936D02*
X12474944Y-15674460D01*
X12474944Y-15674460D02*
X12455896Y-15683984D01*
X12455896Y-15683984D02*
X12436848Y-15683984D01*
X12436848Y-15683984D02*
X12417801Y-15674460D01*
X12417801Y-15674460D02*
X12408277Y-15664936D01*
X12408277Y-15664936D02*
X12398753Y-15645888D01*
X12398753Y-15645888D02*
X12389229Y-15607793D01*
X12389229Y-15607793D02*
X12389229Y-15560174D01*
X12389229Y-15560174D02*
X12398753Y-15522079D01*
X12398753Y-15522079D02*
X12408277Y-15503031D01*
X12408277Y-15503031D02*
X12417801Y-15493508D01*
X12417801Y-15493508D02*
X12436848Y-15483984D01*
X12693991Y-15683984D02*
X12579706Y-15683984D01*
X12636848Y-15683984D02*
X12636848Y-15483984D01*
X12636848Y-15483984D02*
X12617801Y-15512555D01*
X12617801Y-15512555D02*
X12598753Y-15531603D01*
X12598753Y-15531603D02*
X12579706Y-15541127D01*
X12884467Y-15683984D02*
X12770182Y-15683984D01*
X12827325Y-15683984D02*
X12827325Y-15483984D01*
X12827325Y-15483984D02*
X12808277Y-15512555D01*
X12808277Y-15512555D02*
X12789229Y-15531603D01*
X12789229Y-15531603D02*
X12770182Y-15541127D01*
X12998753Y-15569698D02*
X12979706Y-15560174D01*
X12979706Y-15560174D02*
X12970182Y-15550650D01*
X12970182Y-15550650D02*
X12960658Y-15531603D01*
X12960658Y-15531603D02*
X12960658Y-15522079D01*
X12960658Y-15522079D02*
X12970182Y-15503031D01*
X12970182Y-15503031D02*
X12979706Y-15493508D01*
X12979706Y-15493508D02*
X12998753Y-15483984D01*
X12998753Y-15483984D02*
X13036848Y-15483984D01*
X13036848Y-15483984D02*
X13055896Y-15493508D01*
X13055896Y-15493508D02*
X13065420Y-15503031D01*
X13065420Y-15503031D02*
X13074944Y-15522079D01*
X13074944Y-15522079D02*
X13074944Y-15531603D01*
X13074944Y-15531603D02*
X13065420Y-15550650D01*
X13065420Y-15550650D02*
X13055896Y-15560174D01*
X13055896Y-15560174D02*
X13036848Y-15569698D01*
X13036848Y-15569698D02*
X12998753Y-15569698D01*
X12998753Y-15569698D02*
X12979706Y-15579222D01*
X12979706Y-15579222D02*
X12970182Y-15588746D01*
X12970182Y-15588746D02*
X12960658Y-15607793D01*
X12960658Y-15607793D02*
X12960658Y-15645888D01*
X12960658Y-15645888D02*
X12970182Y-15664936D01*
X12970182Y-15664936D02*
X12979706Y-15674460D01*
X12979706Y-15674460D02*
X12998753Y-15683984D01*
X12998753Y-15683984D02*
X13036848Y-15683984D01*
X13036848Y-15683984D02*
X13055896Y-15674460D01*
X13055896Y-15674460D02*
X13065420Y-15664936D01*
X13065420Y-15664936D02*
X13074944Y-15645888D01*
X13074944Y-15645888D02*
X13074944Y-15607793D01*
X13074944Y-15607793D02*
X13065420Y-15588746D01*
X13065420Y-15588746D02*
X13055896Y-15579222D01*
X13055896Y-15579222D02*
X13036848Y-15569698D01*
X13151134Y-15483984D02*
X13151134Y-15522079D01*
X13227325Y-15483984D02*
X13227325Y-15522079D01*
X13522563Y-15760174D02*
X13513039Y-15750650D01*
X13513039Y-15750650D02*
X13493991Y-15722079D01*
X13493991Y-15722079D02*
X13484468Y-15703031D01*
X13484468Y-15703031D02*
X13474944Y-15674460D01*
X13474944Y-15674460D02*
X13465420Y-15626841D01*
X13465420Y-15626841D02*
X13465420Y-15588746D01*
X13465420Y-15588746D02*
X13474944Y-15541127D01*
X13474944Y-15541127D02*
X13484468Y-15512555D01*
X13484468Y-15512555D02*
X13493991Y-15493508D01*
X13493991Y-15493508D02*
X13513039Y-15464936D01*
X13513039Y-15464936D02*
X13522563Y-15455412D01*
X13703515Y-15683984D02*
X13589229Y-15683984D01*
X13646372Y-15683984D02*
X13646372Y-15483984D01*
X13646372Y-15483984D02*
X13627325Y-15512555D01*
X13627325Y-15512555D02*
X13608277Y-15531603D01*
X13608277Y-15531603D02*
X13589229Y-15541127D01*
X13827325Y-15483984D02*
X13846372Y-15483984D01*
X13846372Y-15483984D02*
X13865420Y-15493508D01*
X13865420Y-15493508D02*
X13874944Y-15503031D01*
X13874944Y-15503031D02*
X13884468Y-15522079D01*
X13884468Y-15522079D02*
X13893991Y-15560174D01*
X13893991Y-15560174D02*
X13893991Y-15607793D01*
X13893991Y-15607793D02*
X13884468Y-15645888D01*
X13884468Y-15645888D02*
X13874944Y-15664936D01*
X13874944Y-15664936D02*
X13865420Y-15674460D01*
X13865420Y-15674460D02*
X13846372Y-15683984D01*
X13846372Y-15683984D02*
X13827325Y-15683984D01*
X13827325Y-15683984D02*
X13808277Y-15674460D01*
X13808277Y-15674460D02*
X13798753Y-15664936D01*
X13798753Y-15664936D02*
X13789229Y-15645888D01*
X13789229Y-15645888D02*
X13779706Y-15607793D01*
X13779706Y-15607793D02*
X13779706Y-15560174D01*
X13779706Y-15560174D02*
X13789229Y-15522079D01*
X13789229Y-15522079D02*
X13798753Y-15503031D01*
X13798753Y-15503031D02*
X13808277Y-15493508D01*
X13808277Y-15493508D02*
X13827325Y-15483984D01*
X14132087Y-15683984D02*
X14132087Y-15483984D01*
X14217801Y-15683984D02*
X14217801Y-15579222D01*
X14217801Y-15579222D02*
X14208277Y-15560174D01*
X14208277Y-15560174D02*
X14189230Y-15550650D01*
X14189230Y-15550650D02*
X14160658Y-15550650D01*
X14160658Y-15550650D02*
X14141610Y-15560174D01*
X14141610Y-15560174D02*
X14132087Y-15569698D01*
X14341610Y-15683984D02*
X14322563Y-15674460D01*
X14322563Y-15674460D02*
X14313039Y-15664936D01*
X14313039Y-15664936D02*
X14303515Y-15645888D01*
X14303515Y-15645888D02*
X14303515Y-15588746D01*
X14303515Y-15588746D02*
X14313039Y-15569698D01*
X14313039Y-15569698D02*
X14322563Y-15560174D01*
X14322563Y-15560174D02*
X14341610Y-15550650D01*
X14341610Y-15550650D02*
X14370182Y-15550650D01*
X14370182Y-15550650D02*
X14389230Y-15560174D01*
X14389230Y-15560174D02*
X14398753Y-15569698D01*
X14398753Y-15569698D02*
X14408277Y-15588746D01*
X14408277Y-15588746D02*
X14408277Y-15645888D01*
X14408277Y-15645888D02*
X14398753Y-15664936D01*
X14398753Y-15664936D02*
X14389230Y-15674460D01*
X14389230Y-15674460D02*
X14370182Y-15683984D01*
X14370182Y-15683984D02*
X14341610Y-15683984D01*
X14522563Y-15683984D02*
X14503515Y-15674460D01*
X14503515Y-15674460D02*
X14493991Y-15655412D01*
X14493991Y-15655412D02*
X14493991Y-15483984D01*
X14674944Y-15674460D02*
X14655896Y-15683984D01*
X14655896Y-15683984D02*
X14617801Y-15683984D01*
X14617801Y-15683984D02*
X14598753Y-15674460D01*
X14598753Y-15674460D02*
X14589230Y-15655412D01*
X14589230Y-15655412D02*
X14589230Y-15579222D01*
X14589230Y-15579222D02*
X14598753Y-15560174D01*
X14598753Y-15560174D02*
X14617801Y-15550650D01*
X14617801Y-15550650D02*
X14655896Y-15550650D01*
X14655896Y-15550650D02*
X14674944Y-15560174D01*
X14674944Y-15560174D02*
X14684468Y-15579222D01*
X14684468Y-15579222D02*
X14684468Y-15598269D01*
X14684468Y-15598269D02*
X14589230Y-15617317D01*
X14760658Y-15674460D02*
X14779706Y-15683984D01*
X14779706Y-15683984D02*
X14817801Y-15683984D01*
X14817801Y-15683984D02*
X14836849Y-15674460D01*
X14836849Y-15674460D02*
X14846372Y-15655412D01*
X14846372Y-15655412D02*
X14846372Y-15645888D01*
X14846372Y-15645888D02*
X14836849Y-15626841D01*
X14836849Y-15626841D02*
X14817801Y-15617317D01*
X14817801Y-15617317D02*
X14789230Y-15617317D01*
X14789230Y-15617317D02*
X14770182Y-15607793D01*
X14770182Y-15607793D02*
X14760658Y-15588746D01*
X14760658Y-15588746D02*
X14760658Y-15579222D01*
X14760658Y-15579222D02*
X14770182Y-15560174D01*
X14770182Y-15560174D02*
X14789230Y-15550650D01*
X14789230Y-15550650D02*
X14817801Y-15550650D01*
X14817801Y-15550650D02*
X14836849Y-15560174D01*
X14913039Y-15760174D02*
X14922563Y-15750650D01*
X14922563Y-15750650D02*
X14941611Y-15722079D01*
X14941611Y-15722079D02*
X14951134Y-15703031D01*
X14951134Y-15703031D02*
X14960658Y-15674460D01*
X14960658Y-15674460D02*
X14970182Y-15626841D01*
X14970182Y-15626841D02*
X14970182Y-15588746D01*
X14970182Y-15588746D02*
X14960658Y-15541127D01*
X14960658Y-15541127D02*
X14951134Y-15512555D01*
X14951134Y-15512555D02*
X14941611Y-15493508D01*
X14941611Y-15493508D02*
X14922563Y-15464936D01*
X14922563Y-15464936D02*
X14913039Y-15455412D01*
D12*
X9947500Y-15856500D02*
G75*
G02*
X9867500Y-15856500I-40000J0D01*
G01*
X9867500Y-15856500D02*
G75*
G02*
X9947500Y-15856500I40000J0D01*
G01*
D11*
X10246372Y-15747984D02*
X10265420Y-15747984D01*
X10265420Y-15747984D02*
X10284467Y-15757508D01*
X10284467Y-15757508D02*
X10293991Y-15767031D01*
X10293991Y-15767031D02*
X10303515Y-15786079D01*
X10303515Y-15786079D02*
X10313039Y-15824174D01*
X10313039Y-15824174D02*
X10313039Y-15871793D01*
X10313039Y-15871793D02*
X10303515Y-15909888D01*
X10303515Y-15909888D02*
X10293991Y-15928936D01*
X10293991Y-15928936D02*
X10284467Y-15938460D01*
X10284467Y-15938460D02*
X10265420Y-15947984D01*
X10265420Y-15947984D02*
X10246372Y-15947984D01*
X10246372Y-15947984D02*
X10227324Y-15938460D01*
X10227324Y-15938460D02*
X10217801Y-15928936D01*
X10217801Y-15928936D02*
X10208277Y-15909888D01*
X10208277Y-15909888D02*
X10198753Y-15871793D01*
X10198753Y-15871793D02*
X10198753Y-15824174D01*
X10198753Y-15824174D02*
X10208277Y-15786079D01*
X10208277Y-15786079D02*
X10217801Y-15767031D01*
X10217801Y-15767031D02*
X10227324Y-15757508D01*
X10227324Y-15757508D02*
X10246372Y-15747984D01*
X10398753Y-15928936D02*
X10408277Y-15938460D01*
X10408277Y-15938460D02*
X10398753Y-15947984D01*
X10398753Y-15947984D02*
X10389229Y-15938460D01*
X10389229Y-15938460D02*
X10398753Y-15928936D01*
X10398753Y-15928936D02*
X10398753Y-15947984D01*
X10522563Y-15833698D02*
X10503515Y-15824174D01*
X10503515Y-15824174D02*
X10493991Y-15814650D01*
X10493991Y-15814650D02*
X10484467Y-15795603D01*
X10484467Y-15795603D02*
X10484467Y-15786079D01*
X10484467Y-15786079D02*
X10493991Y-15767031D01*
X10493991Y-15767031D02*
X10503515Y-15757508D01*
X10503515Y-15757508D02*
X10522563Y-15747984D01*
X10522563Y-15747984D02*
X10560658Y-15747984D01*
X10560658Y-15747984D02*
X10579705Y-15757508D01*
X10579705Y-15757508D02*
X10589229Y-15767031D01*
X10589229Y-15767031D02*
X10598753Y-15786079D01*
X10598753Y-15786079D02*
X10598753Y-15795603D01*
X10598753Y-15795603D02*
X10589229Y-15814650D01*
X10589229Y-15814650D02*
X10579705Y-15824174D01*
X10579705Y-15824174D02*
X10560658Y-15833698D01*
X10560658Y-15833698D02*
X10522563Y-15833698D01*
X10522563Y-15833698D02*
X10503515Y-15843222D01*
X10503515Y-15843222D02*
X10493991Y-15852746D01*
X10493991Y-15852746D02*
X10484467Y-15871793D01*
X10484467Y-15871793D02*
X10484467Y-15909888D01*
X10484467Y-15909888D02*
X10493991Y-15928936D01*
X10493991Y-15928936D02*
X10503515Y-15938460D01*
X10503515Y-15938460D02*
X10522563Y-15947984D01*
X10522563Y-15947984D02*
X10560658Y-15947984D01*
X10560658Y-15947984D02*
X10579705Y-15938460D01*
X10579705Y-15938460D02*
X10589229Y-15928936D01*
X10589229Y-15928936D02*
X10598753Y-15909888D01*
X10598753Y-15909888D02*
X10598753Y-15871793D01*
X10598753Y-15871793D02*
X10589229Y-15852746D01*
X10589229Y-15852746D02*
X10579705Y-15843222D01*
X10579705Y-15843222D02*
X10560658Y-15833698D01*
X10722563Y-15747984D02*
X10741610Y-15747984D01*
X10741610Y-15747984D02*
X10760658Y-15757508D01*
X10760658Y-15757508D02*
X10770182Y-15767031D01*
X10770182Y-15767031D02*
X10779705Y-15786079D01*
X10779705Y-15786079D02*
X10789229Y-15824174D01*
X10789229Y-15824174D02*
X10789229Y-15871793D01*
X10789229Y-15871793D02*
X10779705Y-15909888D01*
X10779705Y-15909888D02*
X10770182Y-15928936D01*
X10770182Y-15928936D02*
X10760658Y-15938460D01*
X10760658Y-15938460D02*
X10741610Y-15947984D01*
X10741610Y-15947984D02*
X10722563Y-15947984D01*
X10722563Y-15947984D02*
X10703515Y-15938460D01*
X10703515Y-15938460D02*
X10693991Y-15928936D01*
X10693991Y-15928936D02*
X10684467Y-15909888D01*
X10684467Y-15909888D02*
X10674944Y-15871793D01*
X10674944Y-15871793D02*
X10674944Y-15824174D01*
X10674944Y-15824174D02*
X10684467Y-15786079D01*
X10684467Y-15786079D02*
X10693991Y-15767031D01*
X10693991Y-15767031D02*
X10703515Y-15757508D01*
X10703515Y-15757508D02*
X10722563Y-15747984D01*
X10913039Y-15747984D02*
X10932086Y-15747984D01*
X10932086Y-15747984D02*
X10951134Y-15757508D01*
X10951134Y-15757508D02*
X10960658Y-15767031D01*
X10960658Y-15767031D02*
X10970182Y-15786079D01*
X10970182Y-15786079D02*
X10979705Y-15824174D01*
X10979705Y-15824174D02*
X10979705Y-15871793D01*
X10979705Y-15871793D02*
X10970182Y-15909888D01*
X10970182Y-15909888D02*
X10960658Y-15928936D01*
X10960658Y-15928936D02*
X10951134Y-15938460D01*
X10951134Y-15938460D02*
X10932086Y-15947984D01*
X10932086Y-15947984D02*
X10913039Y-15947984D01*
X10913039Y-15947984D02*
X10893991Y-15938460D01*
X10893991Y-15938460D02*
X10884467Y-15928936D01*
X10884467Y-15928936D02*
X10874944Y-15909888D01*
X10874944Y-15909888D02*
X10865420Y-15871793D01*
X10865420Y-15871793D02*
X10865420Y-15824174D01*
X10865420Y-15824174D02*
X10874944Y-15786079D01*
X10874944Y-15786079D02*
X10884467Y-15767031D01*
X10884467Y-15767031D02*
X10893991Y-15757508D01*
X10893991Y-15757508D02*
X10913039Y-15747984D01*
X11065420Y-15947984D02*
X11065420Y-15814650D01*
X11065420Y-15833698D02*
X11074944Y-15824174D01*
X11074944Y-15824174D02*
X11093991Y-15814650D01*
X11093991Y-15814650D02*
X11122563Y-15814650D01*
X11122563Y-15814650D02*
X11141610Y-15824174D01*
X11141610Y-15824174D02*
X11151134Y-15843222D01*
X11151134Y-15843222D02*
X11151134Y-15947984D01*
X11151134Y-15843222D02*
X11160658Y-15824174D01*
X11160658Y-15824174D02*
X11179705Y-15814650D01*
X11179705Y-15814650D02*
X11208277Y-15814650D01*
X11208277Y-15814650D02*
X11227324Y-15824174D01*
X11227324Y-15824174D02*
X11236848Y-15843222D01*
X11236848Y-15843222D02*
X11236848Y-15947984D01*
X11332086Y-15947984D02*
X11332086Y-15814650D01*
X11332086Y-15833698D02*
X11341610Y-15824174D01*
X11341610Y-15824174D02*
X11360658Y-15814650D01*
X11360658Y-15814650D02*
X11389229Y-15814650D01*
X11389229Y-15814650D02*
X11408277Y-15824174D01*
X11408277Y-15824174D02*
X11417801Y-15843222D01*
X11417801Y-15843222D02*
X11417801Y-15947984D01*
X11417801Y-15843222D02*
X11427324Y-15824174D01*
X11427324Y-15824174D02*
X11446372Y-15814650D01*
X11446372Y-15814650D02*
X11474943Y-15814650D01*
X11474943Y-15814650D02*
X11493991Y-15824174D01*
X11493991Y-15824174D02*
X11503515Y-15843222D01*
X11503515Y-15843222D02*
X11503515Y-15947984D01*
X11893991Y-15738460D02*
X11722563Y-15995603D01*
X12151134Y-15747984D02*
X12170182Y-15747984D01*
X12170182Y-15747984D02*
X12189229Y-15757508D01*
X12189229Y-15757508D02*
X12198753Y-15767031D01*
X12198753Y-15767031D02*
X12208277Y-15786079D01*
X12208277Y-15786079D02*
X12217801Y-15824174D01*
X12217801Y-15824174D02*
X12217801Y-15871793D01*
X12217801Y-15871793D02*
X12208277Y-15909888D01*
X12208277Y-15909888D02*
X12198753Y-15928936D01*
X12198753Y-15928936D02*
X12189229Y-15938460D01*
X12189229Y-15938460D02*
X12170182Y-15947984D01*
X12170182Y-15947984D02*
X12151134Y-15947984D01*
X12151134Y-15947984D02*
X12132086Y-15938460D01*
X12132086Y-15938460D02*
X12122563Y-15928936D01*
X12122563Y-15928936D02*
X12113039Y-15909888D01*
X12113039Y-15909888D02*
X12103515Y-15871793D01*
X12103515Y-15871793D02*
X12103515Y-15824174D01*
X12103515Y-15824174D02*
X12113039Y-15786079D01*
X12113039Y-15786079D02*
X12122563Y-15767031D01*
X12122563Y-15767031D02*
X12132086Y-15757508D01*
X12132086Y-15757508D02*
X12151134Y-15747984D01*
X12303515Y-15928936D02*
X12313039Y-15938460D01*
X12313039Y-15938460D02*
X12303515Y-15947984D01*
X12303515Y-15947984D02*
X12293991Y-15938460D01*
X12293991Y-15938460D02*
X12303515Y-15928936D01*
X12303515Y-15928936D02*
X12303515Y-15947984D01*
X12436848Y-15747984D02*
X12455896Y-15747984D01*
X12455896Y-15747984D02*
X12474944Y-15757508D01*
X12474944Y-15757508D02*
X12484467Y-15767031D01*
X12484467Y-15767031D02*
X12493991Y-15786079D01*
X12493991Y-15786079D02*
X12503515Y-15824174D01*
X12503515Y-15824174D02*
X12503515Y-15871793D01*
X12503515Y-15871793D02*
X12493991Y-15909888D01*
X12493991Y-15909888D02*
X12484467Y-15928936D01*
X12484467Y-15928936D02*
X12474944Y-15938460D01*
X12474944Y-15938460D02*
X12455896Y-15947984D01*
X12455896Y-15947984D02*
X12436848Y-15947984D01*
X12436848Y-15947984D02*
X12417801Y-15938460D01*
X12417801Y-15938460D02*
X12408277Y-15928936D01*
X12408277Y-15928936D02*
X12398753Y-15909888D01*
X12398753Y-15909888D02*
X12389229Y-15871793D01*
X12389229Y-15871793D02*
X12389229Y-15824174D01*
X12389229Y-15824174D02*
X12398753Y-15786079D01*
X12398753Y-15786079D02*
X12408277Y-15767031D01*
X12408277Y-15767031D02*
X12417801Y-15757508D01*
X12417801Y-15757508D02*
X12436848Y-15747984D01*
X12570182Y-15747984D02*
X12693991Y-15747984D01*
X12693991Y-15747984D02*
X12627325Y-15824174D01*
X12627325Y-15824174D02*
X12655896Y-15824174D01*
X12655896Y-15824174D02*
X12674944Y-15833698D01*
X12674944Y-15833698D02*
X12684467Y-15843222D01*
X12684467Y-15843222D02*
X12693991Y-15862269D01*
X12693991Y-15862269D02*
X12693991Y-15909888D01*
X12693991Y-15909888D02*
X12684467Y-15928936D01*
X12684467Y-15928936D02*
X12674944Y-15938460D01*
X12674944Y-15938460D02*
X12655896Y-15947984D01*
X12655896Y-15947984D02*
X12598753Y-15947984D01*
X12598753Y-15947984D02*
X12579706Y-15938460D01*
X12579706Y-15938460D02*
X12570182Y-15928936D01*
X12884467Y-15947984D02*
X12770182Y-15947984D01*
X12827325Y-15947984D02*
X12827325Y-15747984D01*
X12827325Y-15747984D02*
X12808277Y-15776555D01*
X12808277Y-15776555D02*
X12789229Y-15795603D01*
X12789229Y-15795603D02*
X12770182Y-15805127D01*
X13065420Y-15747984D02*
X12970182Y-15747984D01*
X12970182Y-15747984D02*
X12960658Y-15843222D01*
X12960658Y-15843222D02*
X12970182Y-15833698D01*
X12970182Y-15833698D02*
X12989229Y-15824174D01*
X12989229Y-15824174D02*
X13036848Y-15824174D01*
X13036848Y-15824174D02*
X13055896Y-15833698D01*
X13055896Y-15833698D02*
X13065420Y-15843222D01*
X13065420Y-15843222D02*
X13074944Y-15862269D01*
X13074944Y-15862269D02*
X13074944Y-15909888D01*
X13074944Y-15909888D02*
X13065420Y-15928936D01*
X13065420Y-15928936D02*
X13055896Y-15938460D01*
X13055896Y-15938460D02*
X13036848Y-15947984D01*
X13036848Y-15947984D02*
X12989229Y-15947984D01*
X12989229Y-15947984D02*
X12970182Y-15938460D01*
X12970182Y-15938460D02*
X12960658Y-15928936D01*
X13151134Y-15747984D02*
X13151134Y-15786079D01*
X13227325Y-15747984D02*
X13227325Y-15786079D01*
X13522563Y-16024174D02*
X13513039Y-16014650D01*
X13513039Y-16014650D02*
X13493991Y-15986079D01*
X13493991Y-15986079D02*
X13484468Y-15967031D01*
X13484468Y-15967031D02*
X13474944Y-15938460D01*
X13474944Y-15938460D02*
X13465420Y-15890841D01*
X13465420Y-15890841D02*
X13465420Y-15852746D01*
X13465420Y-15852746D02*
X13474944Y-15805127D01*
X13474944Y-15805127D02*
X13484468Y-15776555D01*
X13484468Y-15776555D02*
X13493991Y-15757508D01*
X13493991Y-15757508D02*
X13513039Y-15728936D01*
X13513039Y-15728936D02*
X13522563Y-15719412D01*
X13589229Y-15767031D02*
X13598753Y-15757508D01*
X13598753Y-15757508D02*
X13617801Y-15747984D01*
X13617801Y-15747984D02*
X13665420Y-15747984D01*
X13665420Y-15747984D02*
X13684468Y-15757508D01*
X13684468Y-15757508D02*
X13693991Y-15767031D01*
X13693991Y-15767031D02*
X13703515Y-15786079D01*
X13703515Y-15786079D02*
X13703515Y-15805127D01*
X13703515Y-15805127D02*
X13693991Y-15833698D01*
X13693991Y-15833698D02*
X13579706Y-15947984D01*
X13579706Y-15947984D02*
X13703515Y-15947984D01*
X13941610Y-15947984D02*
X13941610Y-15747984D01*
X14027325Y-15947984D02*
X14027325Y-15843222D01*
X14027325Y-15843222D02*
X14017801Y-15824174D01*
X14017801Y-15824174D02*
X13998753Y-15814650D01*
X13998753Y-15814650D02*
X13970182Y-15814650D01*
X13970182Y-15814650D02*
X13951134Y-15824174D01*
X13951134Y-15824174D02*
X13941610Y-15833698D01*
X14151134Y-15947984D02*
X14132087Y-15938460D01*
X14132087Y-15938460D02*
X14122563Y-15928936D01*
X14122563Y-15928936D02*
X14113039Y-15909888D01*
X14113039Y-15909888D02*
X14113039Y-15852746D01*
X14113039Y-15852746D02*
X14122563Y-15833698D01*
X14122563Y-15833698D02*
X14132087Y-15824174D01*
X14132087Y-15824174D02*
X14151134Y-15814650D01*
X14151134Y-15814650D02*
X14179706Y-15814650D01*
X14179706Y-15814650D02*
X14198753Y-15824174D01*
X14198753Y-15824174D02*
X14208277Y-15833698D01*
X14208277Y-15833698D02*
X14217801Y-15852746D01*
X14217801Y-15852746D02*
X14217801Y-15909888D01*
X14217801Y-15909888D02*
X14208277Y-15928936D01*
X14208277Y-15928936D02*
X14198753Y-15938460D01*
X14198753Y-15938460D02*
X14179706Y-15947984D01*
X14179706Y-15947984D02*
X14151134Y-15947984D01*
X14332087Y-15947984D02*
X14313039Y-15938460D01*
X14313039Y-15938460D02*
X14303515Y-15919412D01*
X14303515Y-15919412D02*
X14303515Y-15747984D01*
X14484468Y-15938460D02*
X14465420Y-15947984D01*
X14465420Y-15947984D02*
X14427325Y-15947984D01*
X14427325Y-15947984D02*
X14408277Y-15938460D01*
X14408277Y-15938460D02*
X14398753Y-15919412D01*
X14398753Y-15919412D02*
X14398753Y-15843222D01*
X14398753Y-15843222D02*
X14408277Y-15824174D01*
X14408277Y-15824174D02*
X14427325Y-15814650D01*
X14427325Y-15814650D02*
X14465420Y-15814650D01*
X14465420Y-15814650D02*
X14484468Y-15824174D01*
X14484468Y-15824174D02*
X14493991Y-15843222D01*
X14493991Y-15843222D02*
X14493991Y-15862269D01*
X14493991Y-15862269D02*
X14398753Y-15881317D01*
X14570182Y-15938460D02*
X14589230Y-15947984D01*
X14589230Y-15947984D02*
X14627325Y-15947984D01*
X14627325Y-15947984D02*
X14646372Y-15938460D01*
X14646372Y-15938460D02*
X14655896Y-15919412D01*
X14655896Y-15919412D02*
X14655896Y-15909888D01*
X14655896Y-15909888D02*
X14646372Y-15890841D01*
X14646372Y-15890841D02*
X14627325Y-15881317D01*
X14627325Y-15881317D02*
X14598753Y-15881317D01*
X14598753Y-15881317D02*
X14579706Y-15871793D01*
X14579706Y-15871793D02*
X14570182Y-15852746D01*
X14570182Y-15852746D02*
X14570182Y-15843222D01*
X14570182Y-15843222D02*
X14579706Y-15824174D01*
X14579706Y-15824174D02*
X14598753Y-15814650D01*
X14598753Y-15814650D02*
X14627325Y-15814650D01*
X14627325Y-15814650D02*
X14646372Y-15824174D01*
X14722563Y-16024174D02*
X14732087Y-16014650D01*
X14732087Y-16014650D02*
X14751134Y-15986079D01*
X14751134Y-15986079D02*
X14760658Y-15967031D01*
X14760658Y-15967031D02*
X14770182Y-15938460D01*
X14770182Y-15938460D02*
X14779706Y-15890841D01*
X14779706Y-15890841D02*
X14779706Y-15852746D01*
X14779706Y-15852746D02*
X14770182Y-15805127D01*
X14770182Y-15805127D02*
X14760658Y-15776555D01*
X14760658Y-15776555D02*
X14751134Y-15757508D01*
X14751134Y-15757508D02*
X14732087Y-15728936D01*
X14732087Y-15728936D02*
X14722563Y-15719412D01*
D12*
X9897500Y-16070500D02*
X9897500Y-16170500D01*
X9847500Y-16120500D02*
X9947500Y-16120500D01*
D11*
X10313039Y-16211984D02*
X10198753Y-16211984D01*
X10255896Y-16211984D02*
X10255896Y-16011984D01*
X10255896Y-16011984D02*
X10236848Y-16040555D01*
X10236848Y-16040555D02*
X10217801Y-16059603D01*
X10217801Y-16059603D02*
X10198753Y-16069127D01*
X10398753Y-16192936D02*
X10408277Y-16202460D01*
X10408277Y-16202460D02*
X10398753Y-16211984D01*
X10398753Y-16211984D02*
X10389229Y-16202460D01*
X10389229Y-16202460D02*
X10398753Y-16192936D01*
X10398753Y-16192936D02*
X10398753Y-16211984D01*
X10532086Y-16011984D02*
X10551134Y-16011984D01*
X10551134Y-16011984D02*
X10570182Y-16021508D01*
X10570182Y-16021508D02*
X10579705Y-16031031D01*
X10579705Y-16031031D02*
X10589229Y-16050079D01*
X10589229Y-16050079D02*
X10598753Y-16088174D01*
X10598753Y-16088174D02*
X10598753Y-16135793D01*
X10598753Y-16135793D02*
X10589229Y-16173888D01*
X10589229Y-16173888D02*
X10579705Y-16192936D01*
X10579705Y-16192936D02*
X10570182Y-16202460D01*
X10570182Y-16202460D02*
X10551134Y-16211984D01*
X10551134Y-16211984D02*
X10532086Y-16211984D01*
X10532086Y-16211984D02*
X10513039Y-16202460D01*
X10513039Y-16202460D02*
X10503515Y-16192936D01*
X10503515Y-16192936D02*
X10493991Y-16173888D01*
X10493991Y-16173888D02*
X10484467Y-16135793D01*
X10484467Y-16135793D02*
X10484467Y-16088174D01*
X10484467Y-16088174D02*
X10493991Y-16050079D01*
X10493991Y-16050079D02*
X10503515Y-16031031D01*
X10503515Y-16031031D02*
X10513039Y-16021508D01*
X10513039Y-16021508D02*
X10532086Y-16011984D01*
X10722563Y-16011984D02*
X10741610Y-16011984D01*
X10741610Y-16011984D02*
X10760658Y-16021508D01*
X10760658Y-16021508D02*
X10770182Y-16031031D01*
X10770182Y-16031031D02*
X10779705Y-16050079D01*
X10779705Y-16050079D02*
X10789229Y-16088174D01*
X10789229Y-16088174D02*
X10789229Y-16135793D01*
X10789229Y-16135793D02*
X10779705Y-16173888D01*
X10779705Y-16173888D02*
X10770182Y-16192936D01*
X10770182Y-16192936D02*
X10760658Y-16202460D01*
X10760658Y-16202460D02*
X10741610Y-16211984D01*
X10741610Y-16211984D02*
X10722563Y-16211984D01*
X10722563Y-16211984D02*
X10703515Y-16202460D01*
X10703515Y-16202460D02*
X10693991Y-16192936D01*
X10693991Y-16192936D02*
X10684467Y-16173888D01*
X10684467Y-16173888D02*
X10674944Y-16135793D01*
X10674944Y-16135793D02*
X10674944Y-16088174D01*
X10674944Y-16088174D02*
X10684467Y-16050079D01*
X10684467Y-16050079D02*
X10693991Y-16031031D01*
X10693991Y-16031031D02*
X10703515Y-16021508D01*
X10703515Y-16021508D02*
X10722563Y-16011984D01*
X10913039Y-16011984D02*
X10932086Y-16011984D01*
X10932086Y-16011984D02*
X10951134Y-16021508D01*
X10951134Y-16021508D02*
X10960658Y-16031031D01*
X10960658Y-16031031D02*
X10970182Y-16050079D01*
X10970182Y-16050079D02*
X10979705Y-16088174D01*
X10979705Y-16088174D02*
X10979705Y-16135793D01*
X10979705Y-16135793D02*
X10970182Y-16173888D01*
X10970182Y-16173888D02*
X10960658Y-16192936D01*
X10960658Y-16192936D02*
X10951134Y-16202460D01*
X10951134Y-16202460D02*
X10932086Y-16211984D01*
X10932086Y-16211984D02*
X10913039Y-16211984D01*
X10913039Y-16211984D02*
X10893991Y-16202460D01*
X10893991Y-16202460D02*
X10884467Y-16192936D01*
X10884467Y-16192936D02*
X10874944Y-16173888D01*
X10874944Y-16173888D02*
X10865420Y-16135793D01*
X10865420Y-16135793D02*
X10865420Y-16088174D01*
X10865420Y-16088174D02*
X10874944Y-16050079D01*
X10874944Y-16050079D02*
X10884467Y-16031031D01*
X10884467Y-16031031D02*
X10893991Y-16021508D01*
X10893991Y-16021508D02*
X10913039Y-16011984D01*
X11065420Y-16211984D02*
X11065420Y-16078650D01*
X11065420Y-16097698D02*
X11074944Y-16088174D01*
X11074944Y-16088174D02*
X11093991Y-16078650D01*
X11093991Y-16078650D02*
X11122563Y-16078650D01*
X11122563Y-16078650D02*
X11141610Y-16088174D01*
X11141610Y-16088174D02*
X11151134Y-16107222D01*
X11151134Y-16107222D02*
X11151134Y-16211984D01*
X11151134Y-16107222D02*
X11160658Y-16088174D01*
X11160658Y-16088174D02*
X11179705Y-16078650D01*
X11179705Y-16078650D02*
X11208277Y-16078650D01*
X11208277Y-16078650D02*
X11227324Y-16088174D01*
X11227324Y-16088174D02*
X11236848Y-16107222D01*
X11236848Y-16107222D02*
X11236848Y-16211984D01*
X11332086Y-16211984D02*
X11332086Y-16078650D01*
X11332086Y-16097698D02*
X11341610Y-16088174D01*
X11341610Y-16088174D02*
X11360658Y-16078650D01*
X11360658Y-16078650D02*
X11389229Y-16078650D01*
X11389229Y-16078650D02*
X11408277Y-16088174D01*
X11408277Y-16088174D02*
X11417801Y-16107222D01*
X11417801Y-16107222D02*
X11417801Y-16211984D01*
X11417801Y-16107222D02*
X11427324Y-16088174D01*
X11427324Y-16088174D02*
X11446372Y-16078650D01*
X11446372Y-16078650D02*
X11474943Y-16078650D01*
X11474943Y-16078650D02*
X11493991Y-16088174D01*
X11493991Y-16088174D02*
X11503515Y-16107222D01*
X11503515Y-16107222D02*
X11503515Y-16211984D01*
X11893991Y-16002460D02*
X11722563Y-16259603D01*
X12151134Y-16011984D02*
X12170182Y-16011984D01*
X12170182Y-16011984D02*
X12189229Y-16021508D01*
X12189229Y-16021508D02*
X12198753Y-16031031D01*
X12198753Y-16031031D02*
X12208277Y-16050079D01*
X12208277Y-16050079D02*
X12217801Y-16088174D01*
X12217801Y-16088174D02*
X12217801Y-16135793D01*
X12217801Y-16135793D02*
X12208277Y-16173888D01*
X12208277Y-16173888D02*
X12198753Y-16192936D01*
X12198753Y-16192936D02*
X12189229Y-16202460D01*
X12189229Y-16202460D02*
X12170182Y-16211984D01*
X12170182Y-16211984D02*
X12151134Y-16211984D01*
X12151134Y-16211984D02*
X12132086Y-16202460D01*
X12132086Y-16202460D02*
X12122563Y-16192936D01*
X12122563Y-16192936D02*
X12113039Y-16173888D01*
X12113039Y-16173888D02*
X12103515Y-16135793D01*
X12103515Y-16135793D02*
X12103515Y-16088174D01*
X12103515Y-16088174D02*
X12113039Y-16050079D01*
X12113039Y-16050079D02*
X12122563Y-16031031D01*
X12122563Y-16031031D02*
X12132086Y-16021508D01*
X12132086Y-16021508D02*
X12151134Y-16011984D01*
X12303515Y-16192936D02*
X12313039Y-16202460D01*
X12313039Y-16202460D02*
X12303515Y-16211984D01*
X12303515Y-16211984D02*
X12293991Y-16202460D01*
X12293991Y-16202460D02*
X12303515Y-16192936D01*
X12303515Y-16192936D02*
X12303515Y-16211984D01*
X12436848Y-16011984D02*
X12455896Y-16011984D01*
X12455896Y-16011984D02*
X12474944Y-16021508D01*
X12474944Y-16021508D02*
X12484467Y-16031031D01*
X12484467Y-16031031D02*
X12493991Y-16050079D01*
X12493991Y-16050079D02*
X12503515Y-16088174D01*
X12503515Y-16088174D02*
X12503515Y-16135793D01*
X12503515Y-16135793D02*
X12493991Y-16173888D01*
X12493991Y-16173888D02*
X12484467Y-16192936D01*
X12484467Y-16192936D02*
X12474944Y-16202460D01*
X12474944Y-16202460D02*
X12455896Y-16211984D01*
X12455896Y-16211984D02*
X12436848Y-16211984D01*
X12436848Y-16211984D02*
X12417801Y-16202460D01*
X12417801Y-16202460D02*
X12408277Y-16192936D01*
X12408277Y-16192936D02*
X12398753Y-16173888D01*
X12398753Y-16173888D02*
X12389229Y-16135793D01*
X12389229Y-16135793D02*
X12389229Y-16088174D01*
X12389229Y-16088174D02*
X12398753Y-16050079D01*
X12398753Y-16050079D02*
X12408277Y-16031031D01*
X12408277Y-16031031D02*
X12417801Y-16021508D01*
X12417801Y-16021508D02*
X12436848Y-16011984D01*
X12570182Y-16011984D02*
X12693991Y-16011984D01*
X12693991Y-16011984D02*
X12627325Y-16088174D01*
X12627325Y-16088174D02*
X12655896Y-16088174D01*
X12655896Y-16088174D02*
X12674944Y-16097698D01*
X12674944Y-16097698D02*
X12684467Y-16107222D01*
X12684467Y-16107222D02*
X12693991Y-16126269D01*
X12693991Y-16126269D02*
X12693991Y-16173888D01*
X12693991Y-16173888D02*
X12684467Y-16192936D01*
X12684467Y-16192936D02*
X12674944Y-16202460D01*
X12674944Y-16202460D02*
X12655896Y-16211984D01*
X12655896Y-16211984D02*
X12598753Y-16211984D01*
X12598753Y-16211984D02*
X12579706Y-16202460D01*
X12579706Y-16202460D02*
X12570182Y-16192936D01*
X12789229Y-16211984D02*
X12827325Y-16211984D01*
X12827325Y-16211984D02*
X12846372Y-16202460D01*
X12846372Y-16202460D02*
X12855896Y-16192936D01*
X12855896Y-16192936D02*
X12874944Y-16164365D01*
X12874944Y-16164365D02*
X12884467Y-16126269D01*
X12884467Y-16126269D02*
X12884467Y-16050079D01*
X12884467Y-16050079D02*
X12874944Y-16031031D01*
X12874944Y-16031031D02*
X12865420Y-16021508D01*
X12865420Y-16021508D02*
X12846372Y-16011984D01*
X12846372Y-16011984D02*
X12808277Y-16011984D01*
X12808277Y-16011984D02*
X12789229Y-16021508D01*
X12789229Y-16021508D02*
X12779706Y-16031031D01*
X12779706Y-16031031D02*
X12770182Y-16050079D01*
X12770182Y-16050079D02*
X12770182Y-16097698D01*
X12770182Y-16097698D02*
X12779706Y-16116746D01*
X12779706Y-16116746D02*
X12789229Y-16126269D01*
X12789229Y-16126269D02*
X12808277Y-16135793D01*
X12808277Y-16135793D02*
X12846372Y-16135793D01*
X12846372Y-16135793D02*
X12865420Y-16126269D01*
X12865420Y-16126269D02*
X12874944Y-16116746D01*
X12874944Y-16116746D02*
X12884467Y-16097698D01*
X13055896Y-16078650D02*
X13055896Y-16211984D01*
X13008277Y-16002460D02*
X12960658Y-16145317D01*
X12960658Y-16145317D02*
X13084467Y-16145317D01*
X13151134Y-16011984D02*
X13151134Y-16050079D01*
X13227325Y-16011984D02*
X13227325Y-16050079D01*
X13522563Y-16288174D02*
X13513039Y-16278650D01*
X13513039Y-16278650D02*
X13493991Y-16250079D01*
X13493991Y-16250079D02*
X13484468Y-16231031D01*
X13484468Y-16231031D02*
X13474944Y-16202460D01*
X13474944Y-16202460D02*
X13465420Y-16154841D01*
X13465420Y-16154841D02*
X13465420Y-16116746D01*
X13465420Y-16116746D02*
X13474944Y-16069127D01*
X13474944Y-16069127D02*
X13484468Y-16040555D01*
X13484468Y-16040555D02*
X13493991Y-16021508D01*
X13493991Y-16021508D02*
X13513039Y-15992936D01*
X13513039Y-15992936D02*
X13522563Y-15983412D01*
X13684468Y-16078650D02*
X13684468Y-16211984D01*
X13636848Y-16002460D02*
X13589229Y-16145317D01*
X13589229Y-16145317D02*
X13713039Y-16145317D01*
X13827325Y-16011984D02*
X13846372Y-16011984D01*
X13846372Y-16011984D02*
X13865420Y-16021508D01*
X13865420Y-16021508D02*
X13874944Y-16031031D01*
X13874944Y-16031031D02*
X13884468Y-16050079D01*
X13884468Y-16050079D02*
X13893991Y-16088174D01*
X13893991Y-16088174D02*
X13893991Y-16135793D01*
X13893991Y-16135793D02*
X13884468Y-16173888D01*
X13884468Y-16173888D02*
X13874944Y-16192936D01*
X13874944Y-16192936D02*
X13865420Y-16202460D01*
X13865420Y-16202460D02*
X13846372Y-16211984D01*
X13846372Y-16211984D02*
X13827325Y-16211984D01*
X13827325Y-16211984D02*
X13808277Y-16202460D01*
X13808277Y-16202460D02*
X13798753Y-16192936D01*
X13798753Y-16192936D02*
X13789229Y-16173888D01*
X13789229Y-16173888D02*
X13779706Y-16135793D01*
X13779706Y-16135793D02*
X13779706Y-16088174D01*
X13779706Y-16088174D02*
X13789229Y-16050079D01*
X13789229Y-16050079D02*
X13798753Y-16031031D01*
X13798753Y-16031031D02*
X13808277Y-16021508D01*
X13808277Y-16021508D02*
X13827325Y-16011984D01*
X14132087Y-16211984D02*
X14132087Y-16011984D01*
X14217801Y-16211984D02*
X14217801Y-16107222D01*
X14217801Y-16107222D02*
X14208277Y-16088174D01*
X14208277Y-16088174D02*
X14189230Y-16078650D01*
X14189230Y-16078650D02*
X14160658Y-16078650D01*
X14160658Y-16078650D02*
X14141610Y-16088174D01*
X14141610Y-16088174D02*
X14132087Y-16097698D01*
X14341610Y-16211984D02*
X14322563Y-16202460D01*
X14322563Y-16202460D02*
X14313039Y-16192936D01*
X14313039Y-16192936D02*
X14303515Y-16173888D01*
X14303515Y-16173888D02*
X14303515Y-16116746D01*
X14303515Y-16116746D02*
X14313039Y-16097698D01*
X14313039Y-16097698D02*
X14322563Y-16088174D01*
X14322563Y-16088174D02*
X14341610Y-16078650D01*
X14341610Y-16078650D02*
X14370182Y-16078650D01*
X14370182Y-16078650D02*
X14389230Y-16088174D01*
X14389230Y-16088174D02*
X14398753Y-16097698D01*
X14398753Y-16097698D02*
X14408277Y-16116746D01*
X14408277Y-16116746D02*
X14408277Y-16173888D01*
X14408277Y-16173888D02*
X14398753Y-16192936D01*
X14398753Y-16192936D02*
X14389230Y-16202460D01*
X14389230Y-16202460D02*
X14370182Y-16211984D01*
X14370182Y-16211984D02*
X14341610Y-16211984D01*
X14522563Y-16211984D02*
X14503515Y-16202460D01*
X14503515Y-16202460D02*
X14493991Y-16183412D01*
X14493991Y-16183412D02*
X14493991Y-16011984D01*
X14674944Y-16202460D02*
X14655896Y-16211984D01*
X14655896Y-16211984D02*
X14617801Y-16211984D01*
X14617801Y-16211984D02*
X14598753Y-16202460D01*
X14598753Y-16202460D02*
X14589230Y-16183412D01*
X14589230Y-16183412D02*
X14589230Y-16107222D01*
X14589230Y-16107222D02*
X14598753Y-16088174D01*
X14598753Y-16088174D02*
X14617801Y-16078650D01*
X14617801Y-16078650D02*
X14655896Y-16078650D01*
X14655896Y-16078650D02*
X14674944Y-16088174D01*
X14674944Y-16088174D02*
X14684468Y-16107222D01*
X14684468Y-16107222D02*
X14684468Y-16126269D01*
X14684468Y-16126269D02*
X14589230Y-16145317D01*
X14760658Y-16202460D02*
X14779706Y-16211984D01*
X14779706Y-16211984D02*
X14817801Y-16211984D01*
X14817801Y-16211984D02*
X14836849Y-16202460D01*
X14836849Y-16202460D02*
X14846372Y-16183412D01*
X14846372Y-16183412D02*
X14846372Y-16173888D01*
X14846372Y-16173888D02*
X14836849Y-16154841D01*
X14836849Y-16154841D02*
X14817801Y-16145317D01*
X14817801Y-16145317D02*
X14789230Y-16145317D01*
X14789230Y-16145317D02*
X14770182Y-16135793D01*
X14770182Y-16135793D02*
X14760658Y-16116746D01*
X14760658Y-16116746D02*
X14760658Y-16107222D01*
X14760658Y-16107222D02*
X14770182Y-16088174D01*
X14770182Y-16088174D02*
X14789230Y-16078650D01*
X14789230Y-16078650D02*
X14817801Y-16078650D01*
X14817801Y-16078650D02*
X14836849Y-16088174D01*
X14913039Y-16288174D02*
X14922563Y-16278650D01*
X14922563Y-16278650D02*
X14941611Y-16250079D01*
X14941611Y-16250079D02*
X14951134Y-16231031D01*
X14951134Y-16231031D02*
X14960658Y-16202460D01*
X14960658Y-16202460D02*
X14970182Y-16154841D01*
X14970182Y-16154841D02*
X14970182Y-16116746D01*
X14970182Y-16116746D02*
X14960658Y-16069127D01*
X14960658Y-16069127D02*
X14951134Y-16040555D01*
X14951134Y-16040555D02*
X14941611Y-16021508D01*
X14941611Y-16021508D02*
X14922563Y-15992936D01*
X14922563Y-15992936D02*
X14913039Y-15983412D01*
X9918211Y-16455211D02*
X9918211Y-16313789D01*
X9776789Y-16313789D01*
X9776789Y-16455211D01*
X9918211Y-16455211D01*
X10303515Y-16275984D02*
X10208277Y-16275984D01*
X10208277Y-16275984D02*
X10198753Y-16371222D01*
X10198753Y-16371222D02*
X10208277Y-16361698D01*
X10208277Y-16361698D02*
X10227324Y-16352174D01*
X10227324Y-16352174D02*
X10274944Y-16352174D01*
X10274944Y-16352174D02*
X10293991Y-16361698D01*
X10293991Y-16361698D02*
X10303515Y-16371222D01*
X10303515Y-16371222D02*
X10313039Y-16390269D01*
X10313039Y-16390269D02*
X10313039Y-16437888D01*
X10313039Y-16437888D02*
X10303515Y-16456936D01*
X10303515Y-16456936D02*
X10293991Y-16466460D01*
X10293991Y-16466460D02*
X10274944Y-16475984D01*
X10274944Y-16475984D02*
X10227324Y-16475984D01*
X10227324Y-16475984D02*
X10208277Y-16466460D01*
X10208277Y-16466460D02*
X10198753Y-16456936D01*
X10398753Y-16456936D02*
X10408277Y-16466460D01*
X10408277Y-16466460D02*
X10398753Y-16475984D01*
X10398753Y-16475984D02*
X10389229Y-16466460D01*
X10389229Y-16466460D02*
X10398753Y-16456936D01*
X10398753Y-16456936D02*
X10398753Y-16475984D01*
X10532086Y-16275984D02*
X10551134Y-16275984D01*
X10551134Y-16275984D02*
X10570182Y-16285508D01*
X10570182Y-16285508D02*
X10579705Y-16295031D01*
X10579705Y-16295031D02*
X10589229Y-16314079D01*
X10589229Y-16314079D02*
X10598753Y-16352174D01*
X10598753Y-16352174D02*
X10598753Y-16399793D01*
X10598753Y-16399793D02*
X10589229Y-16437888D01*
X10589229Y-16437888D02*
X10579705Y-16456936D01*
X10579705Y-16456936D02*
X10570182Y-16466460D01*
X10570182Y-16466460D02*
X10551134Y-16475984D01*
X10551134Y-16475984D02*
X10532086Y-16475984D01*
X10532086Y-16475984D02*
X10513039Y-16466460D01*
X10513039Y-16466460D02*
X10503515Y-16456936D01*
X10503515Y-16456936D02*
X10493991Y-16437888D01*
X10493991Y-16437888D02*
X10484467Y-16399793D01*
X10484467Y-16399793D02*
X10484467Y-16352174D01*
X10484467Y-16352174D02*
X10493991Y-16314079D01*
X10493991Y-16314079D02*
X10503515Y-16295031D01*
X10503515Y-16295031D02*
X10513039Y-16285508D01*
X10513039Y-16285508D02*
X10532086Y-16275984D01*
X10722563Y-16275984D02*
X10741610Y-16275984D01*
X10741610Y-16275984D02*
X10760658Y-16285508D01*
X10760658Y-16285508D02*
X10770182Y-16295031D01*
X10770182Y-16295031D02*
X10779705Y-16314079D01*
X10779705Y-16314079D02*
X10789229Y-16352174D01*
X10789229Y-16352174D02*
X10789229Y-16399793D01*
X10789229Y-16399793D02*
X10779705Y-16437888D01*
X10779705Y-16437888D02*
X10770182Y-16456936D01*
X10770182Y-16456936D02*
X10760658Y-16466460D01*
X10760658Y-16466460D02*
X10741610Y-16475984D01*
X10741610Y-16475984D02*
X10722563Y-16475984D01*
X10722563Y-16475984D02*
X10703515Y-16466460D01*
X10703515Y-16466460D02*
X10693991Y-16456936D01*
X10693991Y-16456936D02*
X10684467Y-16437888D01*
X10684467Y-16437888D02*
X10674944Y-16399793D01*
X10674944Y-16399793D02*
X10674944Y-16352174D01*
X10674944Y-16352174D02*
X10684467Y-16314079D01*
X10684467Y-16314079D02*
X10693991Y-16295031D01*
X10693991Y-16295031D02*
X10703515Y-16285508D01*
X10703515Y-16285508D02*
X10722563Y-16275984D01*
X10913039Y-16275984D02*
X10932086Y-16275984D01*
X10932086Y-16275984D02*
X10951134Y-16285508D01*
X10951134Y-16285508D02*
X10960658Y-16295031D01*
X10960658Y-16295031D02*
X10970182Y-16314079D01*
X10970182Y-16314079D02*
X10979705Y-16352174D01*
X10979705Y-16352174D02*
X10979705Y-16399793D01*
X10979705Y-16399793D02*
X10970182Y-16437888D01*
X10970182Y-16437888D02*
X10960658Y-16456936D01*
X10960658Y-16456936D02*
X10951134Y-16466460D01*
X10951134Y-16466460D02*
X10932086Y-16475984D01*
X10932086Y-16475984D02*
X10913039Y-16475984D01*
X10913039Y-16475984D02*
X10893991Y-16466460D01*
X10893991Y-16466460D02*
X10884467Y-16456936D01*
X10884467Y-16456936D02*
X10874944Y-16437888D01*
X10874944Y-16437888D02*
X10865420Y-16399793D01*
X10865420Y-16399793D02*
X10865420Y-16352174D01*
X10865420Y-16352174D02*
X10874944Y-16314079D01*
X10874944Y-16314079D02*
X10884467Y-16295031D01*
X10884467Y-16295031D02*
X10893991Y-16285508D01*
X10893991Y-16285508D02*
X10913039Y-16275984D01*
X11065420Y-16475984D02*
X11065420Y-16342650D01*
X11065420Y-16361698D02*
X11074944Y-16352174D01*
X11074944Y-16352174D02*
X11093991Y-16342650D01*
X11093991Y-16342650D02*
X11122563Y-16342650D01*
X11122563Y-16342650D02*
X11141610Y-16352174D01*
X11141610Y-16352174D02*
X11151134Y-16371222D01*
X11151134Y-16371222D02*
X11151134Y-16475984D01*
X11151134Y-16371222D02*
X11160658Y-16352174D01*
X11160658Y-16352174D02*
X11179705Y-16342650D01*
X11179705Y-16342650D02*
X11208277Y-16342650D01*
X11208277Y-16342650D02*
X11227324Y-16352174D01*
X11227324Y-16352174D02*
X11236848Y-16371222D01*
X11236848Y-16371222D02*
X11236848Y-16475984D01*
X11332086Y-16475984D02*
X11332086Y-16342650D01*
X11332086Y-16361698D02*
X11341610Y-16352174D01*
X11341610Y-16352174D02*
X11360658Y-16342650D01*
X11360658Y-16342650D02*
X11389229Y-16342650D01*
X11389229Y-16342650D02*
X11408277Y-16352174D01*
X11408277Y-16352174D02*
X11417801Y-16371222D01*
X11417801Y-16371222D02*
X11417801Y-16475984D01*
X11417801Y-16371222D02*
X11427324Y-16352174D01*
X11427324Y-16352174D02*
X11446372Y-16342650D01*
X11446372Y-16342650D02*
X11474943Y-16342650D01*
X11474943Y-16342650D02*
X11493991Y-16352174D01*
X11493991Y-16352174D02*
X11503515Y-16371222D01*
X11503515Y-16371222D02*
X11503515Y-16475984D01*
X11893991Y-16266460D02*
X11722563Y-16523603D01*
X12151134Y-16275984D02*
X12170182Y-16275984D01*
X12170182Y-16275984D02*
X12189229Y-16285508D01*
X12189229Y-16285508D02*
X12198753Y-16295031D01*
X12198753Y-16295031D02*
X12208277Y-16314079D01*
X12208277Y-16314079D02*
X12217801Y-16352174D01*
X12217801Y-16352174D02*
X12217801Y-16399793D01*
X12217801Y-16399793D02*
X12208277Y-16437888D01*
X12208277Y-16437888D02*
X12198753Y-16456936D01*
X12198753Y-16456936D02*
X12189229Y-16466460D01*
X12189229Y-16466460D02*
X12170182Y-16475984D01*
X12170182Y-16475984D02*
X12151134Y-16475984D01*
X12151134Y-16475984D02*
X12132086Y-16466460D01*
X12132086Y-16466460D02*
X12122563Y-16456936D01*
X12122563Y-16456936D02*
X12113039Y-16437888D01*
X12113039Y-16437888D02*
X12103515Y-16399793D01*
X12103515Y-16399793D02*
X12103515Y-16352174D01*
X12103515Y-16352174D02*
X12113039Y-16314079D01*
X12113039Y-16314079D02*
X12122563Y-16295031D01*
X12122563Y-16295031D02*
X12132086Y-16285508D01*
X12132086Y-16285508D02*
X12151134Y-16275984D01*
X12303515Y-16456936D02*
X12313039Y-16466460D01*
X12313039Y-16466460D02*
X12303515Y-16475984D01*
X12303515Y-16475984D02*
X12293991Y-16466460D01*
X12293991Y-16466460D02*
X12303515Y-16456936D01*
X12303515Y-16456936D02*
X12303515Y-16475984D01*
X12503515Y-16475984D02*
X12389229Y-16475984D01*
X12446372Y-16475984D02*
X12446372Y-16275984D01*
X12446372Y-16275984D02*
X12427325Y-16304555D01*
X12427325Y-16304555D02*
X12408277Y-16323603D01*
X12408277Y-16323603D02*
X12389229Y-16333127D01*
X12598753Y-16475984D02*
X12636848Y-16475984D01*
X12636848Y-16475984D02*
X12655896Y-16466460D01*
X12655896Y-16466460D02*
X12665420Y-16456936D01*
X12665420Y-16456936D02*
X12684467Y-16428365D01*
X12684467Y-16428365D02*
X12693991Y-16390269D01*
X12693991Y-16390269D02*
X12693991Y-16314079D01*
X12693991Y-16314079D02*
X12684467Y-16295031D01*
X12684467Y-16295031D02*
X12674944Y-16285508D01*
X12674944Y-16285508D02*
X12655896Y-16275984D01*
X12655896Y-16275984D02*
X12617801Y-16275984D01*
X12617801Y-16275984D02*
X12598753Y-16285508D01*
X12598753Y-16285508D02*
X12589229Y-16295031D01*
X12589229Y-16295031D02*
X12579706Y-16314079D01*
X12579706Y-16314079D02*
X12579706Y-16361698D01*
X12579706Y-16361698D02*
X12589229Y-16380746D01*
X12589229Y-16380746D02*
X12598753Y-16390269D01*
X12598753Y-16390269D02*
X12617801Y-16399793D01*
X12617801Y-16399793D02*
X12655896Y-16399793D01*
X12655896Y-16399793D02*
X12674944Y-16390269D01*
X12674944Y-16390269D02*
X12684467Y-16380746D01*
X12684467Y-16380746D02*
X12693991Y-16361698D01*
X12865420Y-16275984D02*
X12827325Y-16275984D01*
X12827325Y-16275984D02*
X12808277Y-16285508D01*
X12808277Y-16285508D02*
X12798753Y-16295031D01*
X12798753Y-16295031D02*
X12779706Y-16323603D01*
X12779706Y-16323603D02*
X12770182Y-16361698D01*
X12770182Y-16361698D02*
X12770182Y-16437888D01*
X12770182Y-16437888D02*
X12779706Y-16456936D01*
X12779706Y-16456936D02*
X12789229Y-16466460D01*
X12789229Y-16466460D02*
X12808277Y-16475984D01*
X12808277Y-16475984D02*
X12846372Y-16475984D01*
X12846372Y-16475984D02*
X12865420Y-16466460D01*
X12865420Y-16466460D02*
X12874944Y-16456936D01*
X12874944Y-16456936D02*
X12884467Y-16437888D01*
X12884467Y-16437888D02*
X12884467Y-16390269D01*
X12884467Y-16390269D02*
X12874944Y-16371222D01*
X12874944Y-16371222D02*
X12865420Y-16361698D01*
X12865420Y-16361698D02*
X12846372Y-16352174D01*
X12846372Y-16352174D02*
X12808277Y-16352174D01*
X12808277Y-16352174D02*
X12789229Y-16361698D01*
X12789229Y-16361698D02*
X12779706Y-16371222D01*
X12779706Y-16371222D02*
X12770182Y-16390269D01*
X12979706Y-16475984D02*
X13017801Y-16475984D01*
X13017801Y-16475984D02*
X13036848Y-16466460D01*
X13036848Y-16466460D02*
X13046372Y-16456936D01*
X13046372Y-16456936D02*
X13065420Y-16428365D01*
X13065420Y-16428365D02*
X13074944Y-16390269D01*
X13074944Y-16390269D02*
X13074944Y-16314079D01*
X13074944Y-16314079D02*
X13065420Y-16295031D01*
X13065420Y-16295031D02*
X13055896Y-16285508D01*
X13055896Y-16285508D02*
X13036848Y-16275984D01*
X13036848Y-16275984D02*
X12998753Y-16275984D01*
X12998753Y-16275984D02*
X12979706Y-16285508D01*
X12979706Y-16285508D02*
X12970182Y-16295031D01*
X12970182Y-16295031D02*
X12960658Y-16314079D01*
X12960658Y-16314079D02*
X12960658Y-16361698D01*
X12960658Y-16361698D02*
X12970182Y-16380746D01*
X12970182Y-16380746D02*
X12979706Y-16390269D01*
X12979706Y-16390269D02*
X12998753Y-16399793D01*
X12998753Y-16399793D02*
X13036848Y-16399793D01*
X13036848Y-16399793D02*
X13055896Y-16390269D01*
X13055896Y-16390269D02*
X13065420Y-16380746D01*
X13065420Y-16380746D02*
X13074944Y-16361698D01*
X13151134Y-16275984D02*
X13151134Y-16314079D01*
X13227325Y-16275984D02*
X13227325Y-16314079D01*
X13522563Y-16552174D02*
X13513039Y-16542650D01*
X13513039Y-16542650D02*
X13493991Y-16514079D01*
X13493991Y-16514079D02*
X13484468Y-16495031D01*
X13484468Y-16495031D02*
X13474944Y-16466460D01*
X13474944Y-16466460D02*
X13465420Y-16418841D01*
X13465420Y-16418841D02*
X13465420Y-16380746D01*
X13465420Y-16380746D02*
X13474944Y-16333127D01*
X13474944Y-16333127D02*
X13484468Y-16304555D01*
X13484468Y-16304555D02*
X13493991Y-16285508D01*
X13493991Y-16285508D02*
X13513039Y-16256936D01*
X13513039Y-16256936D02*
X13522563Y-16247412D01*
X13684468Y-16342650D02*
X13684468Y-16475984D01*
X13636848Y-16266460D02*
X13589229Y-16409317D01*
X13589229Y-16409317D02*
X13713039Y-16409317D01*
X13941610Y-16475984D02*
X13941610Y-16275984D01*
X14027325Y-16475984D02*
X14027325Y-16371222D01*
X14027325Y-16371222D02*
X14017801Y-16352174D01*
X14017801Y-16352174D02*
X13998753Y-16342650D01*
X13998753Y-16342650D02*
X13970182Y-16342650D01*
X13970182Y-16342650D02*
X13951134Y-16352174D01*
X13951134Y-16352174D02*
X13941610Y-16361698D01*
X14151134Y-16475984D02*
X14132087Y-16466460D01*
X14132087Y-16466460D02*
X14122563Y-16456936D01*
X14122563Y-16456936D02*
X14113039Y-16437888D01*
X14113039Y-16437888D02*
X14113039Y-16380746D01*
X14113039Y-16380746D02*
X14122563Y-16361698D01*
X14122563Y-16361698D02*
X14132087Y-16352174D01*
X14132087Y-16352174D02*
X14151134Y-16342650D01*
X14151134Y-16342650D02*
X14179706Y-16342650D01*
X14179706Y-16342650D02*
X14198753Y-16352174D01*
X14198753Y-16352174D02*
X14208277Y-16361698D01*
X14208277Y-16361698D02*
X14217801Y-16380746D01*
X14217801Y-16380746D02*
X14217801Y-16437888D01*
X14217801Y-16437888D02*
X14208277Y-16456936D01*
X14208277Y-16456936D02*
X14198753Y-16466460D01*
X14198753Y-16466460D02*
X14179706Y-16475984D01*
X14179706Y-16475984D02*
X14151134Y-16475984D01*
X14332087Y-16475984D02*
X14313039Y-16466460D01*
X14313039Y-16466460D02*
X14303515Y-16447412D01*
X14303515Y-16447412D02*
X14303515Y-16275984D01*
X14484468Y-16466460D02*
X14465420Y-16475984D01*
X14465420Y-16475984D02*
X14427325Y-16475984D01*
X14427325Y-16475984D02*
X14408277Y-16466460D01*
X14408277Y-16466460D02*
X14398753Y-16447412D01*
X14398753Y-16447412D02*
X14398753Y-16371222D01*
X14398753Y-16371222D02*
X14408277Y-16352174D01*
X14408277Y-16352174D02*
X14427325Y-16342650D01*
X14427325Y-16342650D02*
X14465420Y-16342650D01*
X14465420Y-16342650D02*
X14484468Y-16352174D01*
X14484468Y-16352174D02*
X14493991Y-16371222D01*
X14493991Y-16371222D02*
X14493991Y-16390269D01*
X14493991Y-16390269D02*
X14398753Y-16409317D01*
X14570182Y-16466460D02*
X14589230Y-16475984D01*
X14589230Y-16475984D02*
X14627325Y-16475984D01*
X14627325Y-16475984D02*
X14646372Y-16466460D01*
X14646372Y-16466460D02*
X14655896Y-16447412D01*
X14655896Y-16447412D02*
X14655896Y-16437888D01*
X14655896Y-16437888D02*
X14646372Y-16418841D01*
X14646372Y-16418841D02*
X14627325Y-16409317D01*
X14627325Y-16409317D02*
X14598753Y-16409317D01*
X14598753Y-16409317D02*
X14579706Y-16399793D01*
X14579706Y-16399793D02*
X14570182Y-16380746D01*
X14570182Y-16380746D02*
X14570182Y-16371222D01*
X14570182Y-16371222D02*
X14579706Y-16352174D01*
X14579706Y-16352174D02*
X14598753Y-16342650D01*
X14598753Y-16342650D02*
X14627325Y-16342650D01*
X14627325Y-16342650D02*
X14646372Y-16352174D01*
X14722563Y-16552174D02*
X14732087Y-16542650D01*
X14732087Y-16542650D02*
X14751134Y-16514079D01*
X14751134Y-16514079D02*
X14760658Y-16495031D01*
X14760658Y-16495031D02*
X14770182Y-16466460D01*
X14770182Y-16466460D02*
X14779706Y-16418841D01*
X14779706Y-16418841D02*
X14779706Y-16380746D01*
X14779706Y-16380746D02*
X14770182Y-16333127D01*
X14770182Y-16333127D02*
X14760658Y-16304555D01*
X14760658Y-16304555D02*
X14751134Y-16285508D01*
X14751134Y-16285508D02*
X14732087Y-16256936D01*
X14732087Y-16256936D02*
X14722563Y-16247412D01*
M02*
