%TF.GenerationSoftware,KiCad,Pcbnew,9.0.0-rc1*%
%TF.CreationDate,2025-01-08T18:27:06+01:00*%
%TF.ProjectId,HBST,48425354-2e6b-4696-9361-645f70636258,rev?*%
%TF.SameCoordinates,Original*%
%TF.FileFunction,Drillmap*%
%TF.FilePolarity,Positive*%
%FSLAX45Y45*%
G04 Gerber Fmt 4.5, Leading zero omitted, Abs format (unit mm)*
G04 Created by KiCad (PCBNEW 9.0.0-rc1) date 2025-01-08 18:27:06*
%MOMM*%
%LPD*%
G01*
G04 APERTURE LIST*
%ADD10C,0.050000*%
%ADD11C,0.200000*%
G04 APERTURE END LIST*
D10*
X18760000Y-4950000D02*
G75*
G02*
X19950000Y-6140000I0J-1190000D01*
G01*
X18760000Y-4950000D02*
X11140000Y-4950000D01*
X19950000Y-13760000D02*
X19950000Y-6140000D01*
X9950000Y-6140000D02*
G75*
G02*
X11140000Y-4950000I1190000J0D01*
G01*
X9950000Y-6140000D02*
X9950000Y-13760000D01*
X19950000Y-13760000D02*
G75*
G02*
X18760000Y-14950000I-1190000J0D01*
G01*
X11140000Y-14950000D02*
G75*
G02*
X9950000Y-13760000I0J1190000D01*
G01*
X11140000Y-14950000D02*
X18760000Y-14950000D01*
D11*
X10208277Y-15263984D02*
X10208277Y-15063984D01*
X10208277Y-15063984D02*
X10255896Y-15063984D01*
X10255896Y-15063984D02*
X10284467Y-15073508D01*
X10284467Y-15073508D02*
X10303515Y-15092555D01*
X10303515Y-15092555D02*
X10313039Y-15111603D01*
X10313039Y-15111603D02*
X10322563Y-15149698D01*
X10322563Y-15149698D02*
X10322563Y-15178269D01*
X10322563Y-15178269D02*
X10313039Y-15216365D01*
X10313039Y-15216365D02*
X10303515Y-15235412D01*
X10303515Y-15235412D02*
X10284467Y-15254460D01*
X10284467Y-15254460D02*
X10255896Y-15263984D01*
X10255896Y-15263984D02*
X10208277Y-15263984D01*
X10408277Y-15263984D02*
X10408277Y-15130650D01*
X10408277Y-15168746D02*
X10417801Y-15149698D01*
X10417801Y-15149698D02*
X10427324Y-15140174D01*
X10427324Y-15140174D02*
X10446372Y-15130650D01*
X10446372Y-15130650D02*
X10465420Y-15130650D01*
X10532086Y-15263984D02*
X10532086Y-15130650D01*
X10532086Y-15063984D02*
X10522563Y-15073508D01*
X10522563Y-15073508D02*
X10532086Y-15083031D01*
X10532086Y-15083031D02*
X10541610Y-15073508D01*
X10541610Y-15073508D02*
X10532086Y-15063984D01*
X10532086Y-15063984D02*
X10532086Y-15083031D01*
X10655896Y-15263984D02*
X10636848Y-15254460D01*
X10636848Y-15254460D02*
X10627324Y-15235412D01*
X10627324Y-15235412D02*
X10627324Y-15063984D01*
X10760658Y-15263984D02*
X10741610Y-15254460D01*
X10741610Y-15254460D02*
X10732086Y-15235412D01*
X10732086Y-15235412D02*
X10732086Y-15063984D01*
X10989229Y-15263984D02*
X10989229Y-15063984D01*
X10989229Y-15063984D02*
X11055896Y-15206841D01*
X11055896Y-15206841D02*
X11122563Y-15063984D01*
X11122563Y-15063984D02*
X11122563Y-15263984D01*
X11303515Y-15263984D02*
X11303515Y-15159222D01*
X11303515Y-15159222D02*
X11293991Y-15140174D01*
X11293991Y-15140174D02*
X11274943Y-15130650D01*
X11274943Y-15130650D02*
X11236848Y-15130650D01*
X11236848Y-15130650D02*
X11217801Y-15140174D01*
X11303515Y-15254460D02*
X11284467Y-15263984D01*
X11284467Y-15263984D02*
X11236848Y-15263984D01*
X11236848Y-15263984D02*
X11217801Y-15254460D01*
X11217801Y-15254460D02*
X11208277Y-15235412D01*
X11208277Y-15235412D02*
X11208277Y-15216365D01*
X11208277Y-15216365D02*
X11217801Y-15197317D01*
X11217801Y-15197317D02*
X11236848Y-15187793D01*
X11236848Y-15187793D02*
X11284467Y-15187793D01*
X11284467Y-15187793D02*
X11303515Y-15178269D01*
X11398753Y-15130650D02*
X11398753Y-15330650D01*
X11398753Y-15140174D02*
X11417801Y-15130650D01*
X11417801Y-15130650D02*
X11455896Y-15130650D01*
X11455896Y-15130650D02*
X11474943Y-15140174D01*
X11474943Y-15140174D02*
X11484467Y-15149698D01*
X11484467Y-15149698D02*
X11493991Y-15168746D01*
X11493991Y-15168746D02*
X11493991Y-15225888D01*
X11493991Y-15225888D02*
X11484467Y-15244936D01*
X11484467Y-15244936D02*
X11474943Y-15254460D01*
X11474943Y-15254460D02*
X11455896Y-15263984D01*
X11455896Y-15263984D02*
X11417801Y-15263984D01*
X11417801Y-15263984D02*
X11398753Y-15254460D01*
X11579705Y-15244936D02*
X11589229Y-15254460D01*
X11589229Y-15254460D02*
X11579705Y-15263984D01*
X11579705Y-15263984D02*
X11570182Y-15254460D01*
X11570182Y-15254460D02*
X11579705Y-15244936D01*
X11579705Y-15244936D02*
X11579705Y-15263984D01*
X11579705Y-15140174D02*
X11589229Y-15149698D01*
X11589229Y-15149698D02*
X11579705Y-15159222D01*
X11579705Y-15159222D02*
X11570182Y-15149698D01*
X11570182Y-15149698D02*
X11579705Y-15140174D01*
X11579705Y-15140174D02*
X11579705Y-15159222D01*
M02*
