M48
; DRILL file {KiCad 9.0.0-rc1} date 2025-01-08T18:27:05+0100
; FORMAT={-:-/ absolute / inch / decimal}
; #@! TF.CreationDate,2025-01-08T18:27:05+01:00
; #@! TF.GenerationSoftware,Kicad,Pcbnew,9.0.0-rc1
; #@! TF.FileFunction,Plated,1,4,PTH
FMAT,2
INCH
; #@! TA.AperFunction,Plated,PTH,ViaDrill
T1C0.0118
; #@! TA.AperFunction,Plated,PTH,ComponentDrill
T2C0.0315
; #@! TA.AperFunction,Plated,PTH,ComponentDrill
T3C0.0394
; #@! TA.AperFunction,Plated,PTH,ComponentDrill
T4C0.1969
%
G90
G05
T1
X5.4331Y-3.4921
X5.502Y-3.6811
X5.6398Y-4.0748
X5.876Y-4.1437
X5.8858Y-3.9173
X6.1142Y-4.3071
X6.2283Y-4.2441
X6.3307Y-3.6378
X6.374Y-3.4843
X6.5394Y-3.7677
T2
X7.3268Y-4.9862
X7.4268Y-4.9862
T3
X4.3346Y-3.248
X4.3346Y-3.348
X4.3346Y-3.448
X4.3346Y-3.548
X4.3346Y-3.648
X4.3346Y-3.748
X4.3346Y-3.848
X4.3346Y-3.948
X4.3346Y-4.048
X4.3346Y-4.148
X4.3346Y-4.248
X4.3346Y-4.348
X4.3346Y-4.448
X4.3346Y-4.7874
X4.3346Y-4.8874
X5.4118Y-5.4685
X5.5118Y-5.4685
X5.7748Y-5.4695
X5.8748Y-5.4695
X5.9748Y-5.4695
X6.0748Y-5.4695
X6.8031Y-5.4685
X6.9031Y-5.4685
X7.437Y-4.0118
X7.437Y-4.1118
X7.437Y-4.2118
X7.437Y-4.3118
X7.437Y-4.4118
X7.437Y-4.5118
X7.437Y-4.6118
X7.437Y-4.7118
X7.437Y-4.8118
X7.438Y-2.7701
X7.438Y-2.8701
X7.438Y-3.1791
X7.438Y-3.2791
X7.438Y-3.3791
X7.438Y-3.4791
X7.438Y-3.5791
X7.438Y-3.6791
T4
X4.3858Y-2.4173
X4.3858Y-5.4173
X7.3858Y-2.4173
X7.3858Y-5.4173
M30
